<?xml version="1.0" encoding="utf-8"?>
<!-- Generator: Adobe Illustrator 23.0.1, SVG Export Plug-In . SVG Version: 6.00 Build 0)  -->
<svg version="1.1" id="Layer_1" xmlns="http://www.w3.org/2000/svg" xmlns:xlink="http://www.w3.org/1999/xlink" x="0px" y="0px"
	 viewBox="0 0 32 32" style="enable-background:new 0 0 32 32;" xml:space="preserve">
<style type="text/css">
	.st0{fill:#F3D75C;}
	.st1{fill:#70D587;}
	.st2{fill:#39375E;}
	.st3{fill:#272749;}
	.st4{fill:#FFFBEB;}
	.st5{fill:#D8E0C9;}
	.st6{fill:#DD544C;}
	.st7{fill:#C63B38;}
	.st8{fill:#C7CEB6;}
</style>
<g>
	<path class="st0" d="M31,16c0,1-0.1,2-0.3,2.9c-0.2,1.2-0.6,2.3-1.1,3.3c-0.4,0.8-0.8,1.6-1.3,2.3c-0.7,1-1.4,1.8-2.3,2.6
		c-2.6,2.4-6.1,3.8-10,3.8c-4.5,0-8.5-2-11.2-5.1C4.5,25.6,4.3,25.3,4,25c-0.2-0.2-0.3-0.4-0.5-0.6c-0.6-0.9-1.2-2-1.6-3.1
		c0,0,0-0.1,0-0.1c-0.2-0.5-0.4-1.1-0.5-1.7c0-0.1,0-0.2-0.1-0.2c-0.2-1-0.3-2-0.4-3c0-0.1,0-0.2,0-0.3c0-0.2,0-0.3,0-0.5
		c0-0.4,0-0.8,0.1-1.1c0,0,0,0,0,0l0,0C1.9,6.9,8.3,1,16,1C24.3,1,31,7.7,31,16z"/>
	<path class="st1" d="M4.9,26c2.7,3.1,6.7,5,11.1,5s8.4-1.9,11.1-5H4.9z"/>
	<path class="st2" d="M30.7,18.9c-0.8-2.5-3-4.3-5.6-4.6c0,0,0,0,0,0c0,0-0.1,0-0.1,0c0,0-0.1,0-0.1,0c0,0-0.1,0-0.1,0
		c0,0-0.1,0-0.1,0c0,0,0,0-0.1,0c0,0-0.1,0-0.1,0c-0.1,0-0.2,0-0.3,0c0,0,0,0-0.1,0c-0.1,0-0.1,0-0.2,0c-0.1,0-0.1,0-0.2,0
		c0,0-0.1,0-0.1,0c0,0-0.1,0-0.1,0c0,0-0.1,0-0.1,0c0,0-0.1,0-0.1,0c0,0-0.1,0-0.1,0c0,0,0,0,0,0c-0.1,0-0.1,0-0.2,0
		c0,0-0.1,0-0.1,0c0,0,0,0,0,0c0,0-0.1,0-0.1,0c0,0,0,0-0.1,0c0,0-0.1,0-0.1,0c0,0-0.1,0-0.1,0c0,0,0,0-0.1,0c0,0-0.1,0-0.1,0
		c0,0-0.1,0-0.1,0c0,0-0.1,0-0.1,0c0,0-0.1,0-0.1,0c0,0,0,0,0,0c0,0-0.1,0-0.1,0.1c0,0-0.1,0-0.1,0.1c0,0,0,0,0,0c0,0-0.1,0-0.1,0.1
		c0,0,0,0,0,0c0,0-0.1,0-0.1,0.1c0,0,0,0,0,0c0,0-0.1,0-0.1,0.1c0,0-0.1,0.1-0.1,0.1c0,0-0.1,0.1-0.1,0.1c0,0-0.1,0.1-0.1,0.1
		c0,0,0,0,0,0c0,0-0.1,0-0.1,0.1c-0.1,0.1-0.2,0.1-0.3,0.2c0,0-0.1,0-0.1,0.1c0,0,0,0,0,0c0,0-0.1,0-0.1,0.1
		c-0.1,0.1-0.2,0.1-0.2,0.2c0,0,0,0-0.1,0.1c0,0,0,0,0,0c0,0-0.1,0.1-0.1,0.1c0,0-0.1,0.1-0.1,0.1c0,0,0,0,0,0c0,0-0.1,0.1-0.1,0.1
		c-0.1,0.1-0.2,0.2-0.3,0.4c0,0-0.1,0.1-0.1,0.1c0,0-0.1,0.1-0.1,0.1c0,0,0,0,0,0c0,0-0.1,0.1-0.1,0.1c0,0-0.1,0.1-0.1,0.1
		c0,0-0.1,0.1-0.1,0.1c0,0-0.1,0.1-0.1,0.1c0,0-0.1,0.1-0.1,0.1c0,0-0.1,0.1-0.1,0.1c-0.1,0.1-0.1,0.2-0.1,0.3c0,0,0,0.1-0.1,0.1
		c0,0,0,0.1-0.1,0.1c0,0,0,0,0,0c0,0,0,0.1-0.1,0.1c0,0,0,0.1-0.1,0.1c0,0,0,0.1-0.1,0.2s0,0.1,0,0.2s0,0.1,0,0.2c0,0,0,0.1,0,0.1
		c0,0,0,0,0,0c0,0,0,0.1,0,0.1c0,0.1,0,0.1,0,0.2c0,0.1,0,0.1,0,0.2c0,0,0,0.1,0,0.1v0c0,0,0,0,0,0.1c0,0,0,0,0,0.1c0,0,0,0,0,0.1
		c0,0,0,0.1,0,0.1c0,0,0,0.1,0,0.1c0,0.1,0,0.1,0,0.2c0,0,0,0,0,0c0,0,0,0,0,0.1c0,0,0,0.1,0,0.1c0,0.1,0,0.1,0,0.2
		c0,3.6,2.9,6.5,6.5,6.5c0,0,0.1,0,0.1,0c0,0,0,0,0.1,0c0,0,0.1,0,0.1,0c0,0,0,0,0,0c0.1,0,0.2,0,0.3,0c0.3,0,0.6-0.1,0.9-0.1
		c2.9-0.7,5-3.3,5-6.3C31,20.2,30.9,19.5,30.7,18.9z M24.5,25.4c-2.5,0-4.5-2-4.5-4.5c0-1.9,1.1-3.5,2.7-4.2
		c0.4-0.2,0.7-0.3,1.1-0.3c0.2,0,0.5-0.1,0.7-0.1c2.5,0,4.5,2,4.5,4.5S27,25.4,24.5,25.4z"/>
	<path class="st3" d="M19.1,20.8c0-3.4,2.6-6.2,5.9-6.5c-0.2,0-0.4,0-0.6,0c-3.6,0-6.5,2.9-6.5,6.5s2.9,6.5,6.5,6.5
		c0.2,0,0.4,0,0.6,0C21.7,27,19.1,24.2,19.1,20.8z"/>
	<path class="st4" d="M24.6,15.5c0,0-0.1,0-0.1,0c0,0-0.1,0-0.1,0h0c0,0-0.1,0-0.1,0c0,0,0,0,0,0c0,0-0.1,0-0.1,0c0,0,0,0,0,0
		c0,0-0.1,0-0.1,0c0,0,0,0-0.1,0c0,0,0,0-0.1,0c0,0,0,0-0.1,0c-0.1,0-0.2,0-0.2,0c0,0-0.1,0-0.1,0c0,0-0.1,0-0.1,0c0,0-0.1,0-0.1,0
		c0,0-0.1,0-0.1,0c0,0,0,0,0,0c0,0-0.1,0-0.1,0c0,0,0,0,0,0c0,0-0.1,0-0.1,0c0,0,0,0,0,0c0,0-0.1,0-0.1,0c0,0,0,0,0,0
		c0,0-0.1,0-0.1,0c-0.1,0-0.1,0-0.2,0.1c-0.1,0-0.1,0.1-0.2,0.1c0,0,0,0-0.1,0c-0.3,0.1-0.5,0.3-0.8,0.5c0,0-0.1,0-0.1,0.1
		c0,0-0.1,0-0.1,0.1c0,0,0,0,0,0c0,0-0.1,0-0.1,0.1c0,0-0.1,0-0.1,0.1c0,0-0.1,0.1-0.1,0.1c0,0,0,0-0.1,0.1
		c-0.1,0.1-0.1,0.1-0.2,0.2c0,0,0,0-0.1,0.1c0,0-0.1,0.1-0.1,0.1c0,0-0.1,0.1-0.1,0.1c0,0-0.1,0.1-0.1,0.1c0,0,0,0.1-0.1,0.1
		c0,0,0,0,0,0c0,0,0,0.1-0.1,0.1c-0.1,0.1-0.1,0.2-0.2,0.3c0,0,0,0.1-0.1,0.1c0,0,0,0.1-0.1,0.1c0,0-0.1,0.1-0.1,0.1
		c0,0,0,0.1,0,0.1c0,0,0,0,0,0c0,0,0,0.1,0,0.1c0,0,0,0.1,0,0.1c0,0,0,0,0,0.1c0,0,0,0.1-0.1,0.1c0,0,0,0.1,0,0.1c0,0,0,0,0,0
		c0,0,0,0.1,0,0.1c0,0.1-0.1,0.2-0.1,0.4c0,0,0,0,0,0.1c0,0.1,0,0.1,0,0.2c0,0,0,0,0,0.1c0,0,0,0.1,0,0.1c0,0,0,0.1,0,0.1
		c0,0,0,0,0,0c0,0,0,0.1,0,0.1c0,0,0,0,0,0c0,0,0,0,0,0.1c0,0,0,0.1,0,0.1c0,0,0,0,0,0c0,0,0,0.1,0,0.1c0,0,0,0.1,0,0.1c0,0,0,0,0,0
		c0,0,0,0.1,0,0.1c0,0,0,0.1,0,0.1c0,0,0,0.1,0,0.1c0,0.1,0,0.1,0,0.2c0,0,0,0.1,0,0.1c0,0.1,0,0.2,0,0.3c0,0,0,0.1,0,0.1
		c0,0,0,0.1,0,0.1c0,0,0,0,0,0.1c0,0,0,0.1,0,0.1c0,0,0,0.1,0,0.1c0,0,0,0.1,0,0.1c0,0,0,0.1,0,0.1c0,0,0,0,0,0c0,0,0,0.1,0,0.1
		c0,0,0,0.1,0,0.1c0,0,0,0.1,0,0.1c0,0,0,0.1,0,0.1c0,0,0,0.1,0,0.1c0,0,0,0,0,0c0,0,0,0.1,0,0.1c0,0,0,0.1,0,0.1c0,0,0,0.1,0,0.1
		c0,0,0,0.1,0,0.1c0,0,0,0,0,0.1c0,0,0,0.1,0.1,0.1c0,0,0,0.1,0,0.1c0,0,0,0.1,0,0.1c0,0,0,0,0,0.1c0,0,0,0.1,0.1,0.1c0,0,0,0,0,0.1
		c0,0,0,0,0,0.1c0,0,0.1,0.1,0.1,0.1c0,0,0,0.1,0.1,0.1c0,0,0,0.1,0.1,0.1c0,0,0,0,0,0.1c0,0,0.1,0.1,0.1,0.1c0,0,0,0,0.1,0.1
		c0,0,0,0,0,0.1c0,0,0,0,0,0c0,0,0,0,0.1,0.1c0.1,0.1,0.1,0.1,0.2,0.2c0,0,0,0,0.1,0.1c0,0,0.1,0,0.1,0.1c0,0,0,0,0.1,0.1
		c0,0,0.1,0.1,0.1,0.1c0,0,0.1,0,0.1,0.1c0,0,0.1,0,0.1,0.1c0,0,0.1,0,0.1,0.1c0,0,0,0,0,0c0,0,0.1,0,0.1,0.1c0,0,0,0,0,0
		c0,0,0,0,0.1,0c0,0,0,0,0.1,0c0,0,0.1,0,0.1,0.1c0,0,0.1,0,0.1,0c0.1,0,0.1,0.1,0.2,0.1c0,0,0,0,0.1,0c0,0,0,0,0,0c0,0,0.1,0,0.1,0
		c0,0,0.1,0,0.1,0c0,0,0,0,0.1,0c0,0,0.1,0,0.1,0c0,0,0,0,0.1,0c0.1,0,0.1,0,0.2,0.1c0,0,0.1,0,0.1,0c0,0,0.1,0,0.1,0c0,0,0,0,0.1,0
		c0,0,0,0,0,0c0,0,0.1,0,0.1,0c0,0,0.1,0,0.1,0c0,0,0.1,0,0.1,0c0,0,0.1,0,0.1,0c0,0,0.1,0,0.1,0c0,0,0.1,0,0.1,0
		c0.3,0,0.6,0.1,0.9,0.1c0.1,0,0.1,0,0.2,0h0c1.4-0.1,2.7-0.7,3.6-1.6c0.6-0.6,1.1-1.4,1.3-2.3c0.1-0.4,0.2-0.9,0.2-1.4
		C29.8,17.9,27.5,15.6,24.6,15.5z M24.5,25.4c-2.5,0-4.5-2-4.5-4.5c0-1.9,1.1-3.5,2.7-4.2c0.4-0.2,0.7-0.3,1.1-0.3
		c0.2,0,0.5-0.1,0.7-0.1c2.5,0,4.5,2,4.5,4.5S27,25.4,24.5,25.4z"/>
	<path class="st5" d="M19.6,20.8c0-2.9,2.3-5.2,5.1-5.3c-0.1,0-0.1,0-0.2,0c-2.9,0-5.3,2.4-5.3,5.3c0,2.9,2.4,5.3,5.3,5.3
		c0.1,0,0.1,0,0.2,0C21.8,26.1,19.6,23.7,19.6,20.8z"/>
	<circle class="st4" cx="24.5" cy="20.7" r="1.4"/>
	<path class="st5" d="M23.7,20.7c0-0.7,0.5-1.2,1.1-1.4c-0.1,0-0.2,0-0.3,0c-0.8,0-1.4,0.6-1.4,1.4c0,0.8,0.6,1.4,1.4,1.4
		c0.1,0,0.2,0,0.3,0C24.1,21.9,23.7,21.4,23.7,20.7z"/>
	<path class="st2" d="M7.1,19.4c-0.2-1-0.7-1.9-1.3-2.7c-0.2-0.3-0.5-0.6-0.8-0.8c-1-0.8-2.3-1.4-3.6-1.5h0c0,0,0,0,0,0c0,0,0,0,0,0
		c0,0,0,0-0.1,0c0,0,0,0,0,0c0,0,0,0-0.1,0l0,0c0,0,0,0,0,0c0,0.4-0.1,0.8-0.1,1.1c0,0.2,0,0.3,0,0.5c0,0.1,0,0.2,0,0.3v0
		c0.9,0.1,1.8,0.4,2.5,0.9c0.3,0.2,0.6,0.5,0.8,0.8c0.4,0.5,0.6,1,0.8,1.6c0.1,0.4,0.2,0.8,0.2,1.2c0,0,0,0,0,0
		c0,1.4-0.7,2.7-1.7,3.5c0,0,0,0,0,0C3.7,24.6,3.9,24.8,4,25c0.2,0.3,0.5,0.6,0.7,0.9c1.5-1.2,2.4-3,2.4-5.1c0-0.1,0-0.2,0-0.2
		C7.2,20.2,7.2,19.8,7.1,19.4z"/>
	<path class="st3" d="M1.3,14.4c-0.1,0-0.1,0-0.2,0c0,0,0,0,0,0C1.2,14.4,1.3,14.4,1.3,14.4z"/>
	<g>
		<path class="st4" d="M3.6,24.4C3.6,24.4,3.6,24.4,3.6,24.4C3.7,24.6,3.9,24.8,4,25c1.2-1,2-2.5,2-4.2c0,0,0-0.1,0-0.1
			c0-0.4-0.1-0.8-0.2-1.2c-0.2-0.8-0.5-1.4-1-2c-0.2-0.3-0.5-0.6-0.8-0.8c-0.8-0.7-1.9-1.1-3-1.2c0,0.2,0,0.3,0,0.5
			c0,0.1,0,0.2,0,0.3v0c0.9,0.1,1.8,0.4,2.5,0.9c0.3,0.2,0.6,0.5,0.8,0.8c0.4,0.5,0.6,1,0.8,1.6c0.1,0.4,0.2,0.8,0.2,1.2
			c0,0,0,0,0,0C5.3,22.3,4.6,23.5,3.6,24.4z"/>
		<path class="st4" d="M8.6,11.4c-0.2,0-0.3-0.1-0.4-0.3l-1-2.8C7,8.1,7.2,7.8,7.4,7.8C7.6,7.7,7.9,7.8,8,8l1,2.8
			c0.1,0.2,0,0.5-0.3,0.6C8.7,11.4,8.6,11.4,8.6,11.4z"/>
		<path class="st4" d="M25.4,11.9h-1.1c-0.2,0-0.4-0.2-0.4-0.4c0-0.2,0.2-0.4,0.4-0.4h1.1c0.7,0,1.3-0.6,1.3-1.3
			c0-0.7-0.6-1.3-1.3-1.3h-4.7c-0.2,0-0.4-0.2-0.4-0.4c0-0.2,0.2-0.4,0.4-0.4h4.7c1.2,0,2.2,1,2.2,2.2S26.6,11.9,25.4,11.9z"/>
	</g>
	<path class="st5" d="M21.9,7.6h-1.1c-0.2,0-0.4,0.2-0.4,0.4s0.2,0.4,0.4,0.4h1.4L21.9,7.6z"/>
	<path class="st2" d="M27.7,9.7c0.1,0,0.2,0.1,0.2,0.2c-0.1,1.2-1.2,2.2-2.4,2.2h-1.1c-0.4,0-0.7-0.3-0.8-0.7c0-0.4,0.3-0.8,0.7-0.8
		h1.1c0.5,0,0.9-0.4,1-0.8c0-0.1,0.1-0.2,0.2-0.2H27.7z"/>
	<path class="st3" d="M24.8,11.5c0-0.4,0.3-0.8,0.7-0.8h-1.2c-0.4,0-0.8,0.4-0.7,0.8c0,0.4,0.4,0.7,0.8,0.7h1.2
		C25.2,12.2,24.8,11.9,24.8,11.5z"/>
	<path class="st6" d="M24.7,19.4L24.7,19.4l-0.9-3l-0.2-0.7l0-0.1l-0.2-0.8l-0.1-0.3l-1.8-6L21.2,8c-0.1-0.2-0.3-0.4-0.5-0.4h0
		c-0.1,0-0.1,0-0.2,0C20.2,7.7,20,8,20.1,8.3l0.7,2.2L9.6,12.1l-0.4-1.3c0-0.1-0.1-0.2-0.3-0.3c-0.1-0.1-0.3-0.1-0.5,0
		c-0.2,0.1-0.3,0.2-0.3,0.3C8,10.9,8,11.1,8,11.2l0.5,1.3l-3.5,3.4l-0.9,0.8l-0.6,0.5l-2.1,2c0,0,0,0,0,0c0,0.1,0,0.2,0.1,0.2
		c0.1,0.6,0.3,1.1,0.5,1.7l0.1,0l3.2-0.3l0.8-0.1l1.2-0.1l2.2-0.2h0l0.9-0.1h0l0.5-0.1l0.4,0l0.5-0.1h0l0,0c0,0,0,0,0,0c0,0,0,0,0,0
		c0,0,0,0,0,0c0,0,0,0,0,0c0,0,0,0,0,0c0,0,0,0,0,0c0,0,0,0,0,0c0,0,0,0,0,0c0,0,0,0,0,0c0,0,0,0,0,0c0,0,0,0,0,0c0,0,0,0,0,0
		c0,0,0,0,0,0c0,0,0,0,0,0l0.1,0l0.6-0.5l0.4-0.3l0.7-0.6l7.5-6.5l0.8,2.8l0.2,0.5l0.2,0.6l0.1,0.2l0.2,0.6l0.9,3l0.2,0.6l0.2,0.6
		c0.1,0.3,0.3,0.4,0.6,0.4c0.1,0,0.1,0,0.2,0c0.3-0.1,0.5-0.4,0.4-0.7L24.7,19.4z M10.7,19.1l-0.5,0.1l-0.9,0.1h0l-2.2,0.2l-1.2,0.1
		l-0.8,0.1L2.4,20l2-1.9l0.6-0.5l0.9-0.8l3.1-3l1.4,3.9l0.3,0.8l0.2,0.5l0,0.1L10.7,19.1z M12.9,17.6l-0.7,0.6l-0.4,0.3l0,0l0,0
		l-0.2-0.5l-0.3-0.8L10,13.2l9.7-1.3L12.9,17.6z"/>
	<g>
		<path class="st7" d="M11.9,20l-0.7-0.6L10.8,19l-0.1,0l-0.5,0.1l-0.9,0.1h0l-2.2,0.2l-1.2,0.1l-0.8,0.1L2.4,20l2-1.9l0.6-0.5
			l0.9-0.8l3.1-3l-0.4-1.2l-3.5,3.4l-0.9,0.8l-0.6,0.5l-2.1,2c0,0,0,0,0,0c0,0.1,0,0.2,0.1,0.2c0.1,0.6,0.3,1.1,0.5,1.7l0.1,0
			l3.2-0.3l0.8-0.1l1.2-0.1l2.2-0.2h0l0.9-0.1h0l0.5-0.1l0.4,0l0.5-0.1h0l0,0c0,0,0,0,0,0c0,0,0,0,0,0c0,0,0,0,0,0c0,0,0,0,0,0
			C11.8,20.1,11.8,20.1,11.9,20C11.8,20.1,11.8,20.1,11.9,20C11.8,20.1,11.8,20.1,11.9,20C11.8,20.1,11.8,20.1,11.9,20
			C11.9,20.1,11.9,20.1,11.9,20C11.9,20.1,11.9,20.1,11.9,20L11.9,20L11.9,20z"/>
		<polygon class="st7" points="9.6,12.1 10,13.2 19.6,11.8 11.9,18.5 11.9,20.1 21.2,12 20.8,10.5 		"/>
	</g>
	<circle class="st5" cx="11.6" cy="19.5" r="2.3"/>
	<circle class="st8" cx="11.6" cy="19.5" r="1.5"/>
	<path id="SVGCleanerId_0" class="st4" d="M11.6,24.7c-0.2,0-0.4-0.2-0.4-0.4v-4.7c0-0.2,0.2-0.4,0.4-0.4c0.2,0,0.4,0.2,0.4,0.4v4.7
		C12.1,24.5,11.9,24.7,11.6,24.7z"/>
	<g>
		<path id="SVGCleanerId_0_1_" class="st4" d="M11.6,24.7c-0.2,0-0.4-0.2-0.4-0.4v-4.7c0-0.2,0.2-0.4,0.4-0.4c0.2,0,0.4,0.2,0.4,0.4
			v4.7C12.1,24.5,11.9,24.7,11.6,24.7z"/>
	</g>
	<path class="st5" d="M11.6,19.1c-0.2,0-0.4,0.2-0.4,0.4V21c0.1,0,0.3,0.1,0.4,0.1s0.3,0,0.4-0.1v-1.4
		C12.1,19.3,11.9,19.1,11.6,19.1z"/>
	<path class="st2" d="M12.9,25.2h-2.6c-0.2,0-0.3-0.1-0.3-0.3V24c0-0.2,0.1-0.3,0.3-0.3h2.6c0.2,0,0.3,0.1,0.3,0.3v0.9
		C13.2,25,13.1,25.2,12.9,25.2z"/>
	<path class="st3" d="M10.9,24.9V24c0-0.2,0.1-0.3,0.3-0.3h-0.8c-0.2,0-0.3,0.1-0.3,0.3v0.9c0,0.2,0.1,0.3,0.3,0.3h0.8
		C11,25.2,10.9,25,10.9,24.9z"/>
	<path class="st2" d="M9.8,8.7H6.7C6,8.7,5.5,8.2,5.5,7.5l0,0c0-0.8,0.7-1.4,1.5-1.2l3,0.7c0.4,0.1,0.7,0.5,0.7,0.9l0,0
		C10.7,8.3,10.3,8.7,9.8,8.7z"/>
	<path class="st3" d="M6.6,7.5c0-0.5,0.3-0.9,0.7-1.1L7,6.3C6.2,6.1,5.5,6.7,5.5,7.5c0,0.7,0.6,1.2,1.2,1.2h1.2
		C7.2,8.7,6.6,8.2,6.6,7.5z"/>
	<circle class="st4" cx="11.6" cy="19.5" r="1"/>
</g>
</svg>
