<?xml version="1.0" standalone="no"?>
<!DOCTYPE svg PUBLIC "-//W3C//DTD SVG 1.1//EN" "http://www.w3.org/Graphics/SVG/1.1/DTD/svg11.dtd" >
<svg>
<metadata>
Created by FontForge 20090622 at Tue Jun  2 04:51:41 2020
 By deploy user
Copyright 2011 &#194;&#169; Canada Type. All rights reserved.
</metadata>
<defs>
<font id="OrpheusPro" horiz-adv-x="798" >
  <font-face 
    font-family="OrpheusPro"
    font-weight="400"
    font-stretch="normal"
    units-per-em="1000"
    panose-1="2 0 0 0 0 0 0 0 0 0"
    ascent="775"
    descent="-225"
    x-height="476"
    cap-height="727"
    bbox="-248 -228 1973 997"
    underline-thickness="50"
    underline-position="-50"
    unicode-range="U+000D-U+FB04"
  />
<missing-glyph horiz-adv-x="600" 
d="M500 0h-400v725h400v-725zM456 43v639h-312v-639h312z" />
    <glyph glyph-name="ff" unicode="ff" horiz-adv-x="468" 
d="M413 3v-5q-44 2 -75 2t-75 -2v5q25 5 34 20t9 71v361h-170v-361q0 -56 9 -71t34 -20v-5q-44 2 -75 2t-75 -2v5q25 5 34 20t9 71v361h-17v3l17 17q0 70 14 122t59 91q46 39 101 39q59 0 94 -45q14 24 39 46q46 39 101 39q35 0 55 -15l-42 -54q-29 31 -63 31
q-40 0 -50 -45.5t-10 -161.5v-47h61q19 0 22 5h5q0 -7 -1 -27t-1 -35h-4q0 23 -7.5 30t-33.5 7h-41v-361q0 -56 9 -71t34 -20zM136 475h170q0 110 15 162q-17 72 -86 72q-99 0 -99 -197v-37z" />
    <glyph glyph-name="fi" unicode="fi" horiz-adv-x="445" 
d="M179 3v-5q-44 2 -75 2t-75 -2v5q25 5 34 20t9 71v361h-17v3l17 17q0 99 13.5 156.5t59.5 96.5t101 39q13 0 30 -5t40.5 -17t41.5 -40t23 -67l-59 -21q-5 67 -33.5 97t-60.5 30q-26 0 -44.5 -11t-27.5 -26t-13.5 -44t-5.5 -49.5t-1 -58.5v-80h61q19 0 22 5h5q0 -7 -1 -27
t-1 -35h-4q0 23 -7.5 30t-33.5 7h-41v-361q0 -56 9 -71t34 -20zM416 3v-5q-44 2 -75 2t-75 -2v5q25 5 34 20t9 71v300q0 29 -5 38.5t-26 15.5v5q55 4 95 22v-381q0 -56 9 -71t34 -20z" />
    <glyph glyph-name="fl" unicode="fl" horiz-adv-x="452" 
d="M418 3v-5q-44 2 -75 2t-75 -2v5q25 5 34 20t9 71v548q0 52 -26.5 78.5t-61.5 26.5q-36 0 -61.5 -36.5t-25.5 -88.5v-147h61q19 0 22 5h5q0 -7 -1 -27t-1 -35h-4q0 23 -7.5 30t-33.5 7h-41v-361q0 -56 9 -71t34 -20v-5q-44 2 -75 2t-75 -2v5q25 5 34 20t9 71v361h-17v3
l17 17q0 99 13.5 156.5t59.5 96.5t101 39q34 0 73 -22q32 6 56 17v-668q0 -56 9 -71t34 -20z" />
    <glyph glyph-name="ffi" unicode="ffi" horiz-adv-x="679" 
d="M413 3v-5q-44 2 -75 2t-75 -2v5q25 5 34 20t9 71v361h-170v-361q0 -56 9 -71t34 -20v-5q-44 2 -75 2t-75 -2v5q25 5 34 20t9 71v361h-17v3l17 17q0 70 14 122t59 91q46 39 101 39q59 0 95 -45q15 26 38 46q46 39 101 39q13 0 30 -5t40.5 -17t41.5 -40t23 -67l-59 -21
q-5 67 -33.5 97t-60.5 30q-26 0 -44.5 -11t-27.5 -26t-13.5 -44t-5.5 -49.5t-1 -58.5v-80h61q19 0 22 5h5q0 -7 -1 -27t-1 -35h-4q0 23 -7.5 30t-33.5 7h-41v-361q0 -56 9 -71t34 -20zM136 475h170q0 111 15 162q-17 72 -86 72q-99 0 -99 -197v-37zM650 3v-5q-44 2 -75 2
t-75 -2v5q25 5 34 20t9 71v300q0 29 -5 38.5t-26 15.5v5q55 4 95 22v-381q0 -56 9 -71t34 -20z" />
    <glyph glyph-name="ffl" unicode="ffl" horiz-adv-x="686" 
d="M652 3v-5q-44 2 -75 2t-75 -2v5q25 5 34 20t9 71v548q0 52 -26.5 78.5t-61.5 26.5q-36 0 -61.5 -36.5t-25.5 -88.5v-147h61q19 0 22 5h5q0 -7 -1 -27t-1 -35h-4q0 23 -7.5 30t-33.5 7h-41v-361q0 -56 9 -71t34 -20v-5q-44 2 -75 2t-75 -2v5q25 5 34 20t9 71v361h-170
v-361q0 -56 9 -71t34 -20v-5q-44 2 -75 2t-75 -2v5q25 5 34 20t9 71v361h-17v3l17 17q0 70 14 122t59 91q46 39 101 39q59 0 94 -45q14 24 39 46q46 39 101 39q34 0 73 -22q32 6 56 17v-668q0 -56 9 -71t34 -20zM136 475h170q0 110 15 162q-17 72 -86 72q-99 0 -99 -197v-37
z" />
    <glyph glyph-name="fb" unicode="fb" horiz-adv-x="753" 
d="M288 27v3q17 9 20 30.5t3 107.5v474q0 52 -26.5 78.5t-61.5 26.5q-36 0 -61.5 -36.5t-25.5 -88.5v-147h61q19 0 22 5h5q0 -7 -1 -27t-1 -35h-4q0 23 -7.5 30t-33.5 7h-41v-361q0 -56 9 -71t34 -20v-5q-44 2 -75 2t-75 -2v5q25 5 34 20t9 71v361h-17v3l17 17
q0 99 13.5 156.5t59.5 96.5t101 39q34 0 73 -22q32 6 56 17v-329q59 47 128 47q105 0 161.5 -66.5t56.5 -161.5q0 -103 -62.5 -182.5t-163.5 -79.5q-43 0 -92 19.5t-76 19.5q-25 0 -39 -2zM375 412v-265q0 -134 117 -134q75 0 110 61t35 158q0 100 -36.5 163t-111.5 63
q-63 0 -114 -46z" />
    <glyph glyph-name="fh" unicode="fh" horiz-adv-x="748" 
d="M725 3v-5q-44 2 -75 2t-75 -2v5q25 5 34 20t9 71v218q0 85 -33.5 116.5t-88.5 31.5q-64 0 -121 -41v-325q0 -56 9 -71t34 -20v-5q-44 2 -75 2t-75 -2v5q25 5 34 20t9 71v548q0 52 -26.5 78.5t-61.5 26.5q-36 0 -61.5 -36.5t-25.5 -88.5v-147h61q19 0 22 5h5q0 -7 -1 -27
t-1 -35h-4q0 23 -7.5 30t-33.5 7h-41v-361q0 -56 9 -71t34 -20v-5q-44 2 -75 2t-75 -2v5q25 5 34 20t9 71v361h-17v3l17 17q0 99 13.5 156.5t59.5 96.5t101 39q34 0 73 -22q32 6 56 17v-322q64 40 146 40q161 0 161 -163v-223q0 -56 9 -71t34 -20z" />
    <glyph glyph-name="fj" unicode="fj" horiz-adv-x="445" 
d="M179 3v-5q-44 2 -75 2t-75 -2v5q25 5 34 20t9 71v361h-17v3l17 17q0 99 13.5 156.5t59.5 96.5t101 39q13 0 30 -5t40.5 -17t41.5 -40t23 -67l-59 -21q-5 67 -33.5 97t-60.5 30q-26 0 -44.5 -11t-27.5 -26t-13.5 -44t-5.5 -49.5t-1 -58.5v-80h61q19 0 22 5h5q0 -7 -1 -27
t-1 -35h-4q0 23 -7.5 30t-33.5 7h-41v-361q0 -56 9 -71t34 -20zM236 -224l1 7q50 0 61 45.5t11 194.5v371q0 29 -5 38.5t-26 15.5v5q55 4 95 22v-487q0 -47 -3.5 -79t-15 -65.5t-38 -51t-66.5 -17.5q-8 0 -14 1z" />
    <glyph glyph-name="fk" unicode="fk" horiz-adv-x="692" 
d="M713 3v-5q-78 2 -91 2q-5 0 -59 -2v5q18 2 18 8q0 4 -7 13l-199 224v-154q0 -56 9 -71t34 -20v-5q-44 2 -75 2t-75 -2v5q25 5 34 20t9 71v548q0 52 -26.5 78.5t-61.5 26.5q-36 0 -61.5 -36.5t-25.5 -88.5v-147h61q19 0 22 5h5q0 -7 -1 -27t-1 -35h-4q0 23 -7.5 30
t-33.5 7h-41v-361q0 -56 9 -71t34 -20v-5q-44 2 -75 2t-75 -2v5q25 5 34 20t9 71v361h-17v3l17 17q0 99 13.5 156.5t59.5 96.5t101 39q34 0 73 -22q32 6 56 17v-501q94 88 133 130.5t39 62.5q0 14 -24 18v5q46 -2 71 -2q23 0 71 2v-6q-36 -7 -72 -35t-166 -149l62 -70.5
l52 -59l41 -46.5l33.5 -37.5l26 -27.5t22 -20.5t17.5 -12.5t16.5 -8t15.5 -2z" />
    <glyph glyph-name="ft" unicode="ft" horiz-adv-x="526" 
d="M517 72l5 -3q-32 -79 -115 -79q-49 0 -76 23t-27 96v319q0 19 -3.5 23t-20.5 4h-144v-361q0 -56 9 -71t34 -20v-5q-44 2 -75 2t-75 -2v5q25 5 34 20t9 71v361h-17v3l17 17q0 99 13.5 156.5t59.5 96.5t101 39q35 0 55 -15l-42 -54q-29 31 -63 31q-40 0 -50 -45.5
t-10 -161.5v-47h117q45 0 75.5 30.5t48.5 100.5h6q-15 -85 -15 -131h82q40 0 54 4t25 21l6 -6l-14 -20t-16 -25.5t-11 -25.5h-8q2 6 2 11q0 12 -10.5 16.5t-37.5 4.5h-72v-344q0 -51 16 -72t55 -21q55 0 78 54z" />
    <glyph glyph-name="Th" unicode="Th" horiz-adv-x="968" 
d="M945 3v-5q-44 2 -75 2t-75 -2v5q25 5 34 20t9 71v218q0 85 -33.5 116.5t-88.5 31.5q-64 0 -121 -41v-325q0 -56 9 -71t34 -20v-5q-44 2 -75 2t-75 -2v5q25 5 34 20t9 71v612q-22 -8 -61.5 -9.5t-153.5 -1.5v-601q0 -39 5.5 -58t14.5 -24.5t30 -8.5v-5q-42 2 -87 2
q-43 0 -87 -2v5q21 3 30 8.5t14.5 24.5t5.5 58v601q-130 0 -172 -9.5t-63 -54.5h-5q3 16 15 54t19 73h5q2 -23 36 -28t181 -5h148q126 0 189 37v-322q64 40 146 40q161 0 161 -163v-223q0 -56 9 -71t34 -20z" />
    <glyph glyph-name=".notdef" horiz-adv-x="600" 
d="M500 0h-400v725h400v-725zM456 43v639h-312v-639h312z" />
    <glyph glyph-name=".null" horiz-adv-x="0" 
 />
    <glyph glyph-name="nonmarkingreturn" horiz-adv-x="333" 
 />
    <glyph glyph-name="CR" unicode="&#xd;" horiz-adv-x="0" 
 />
    <glyph glyph-name="space" unicode=" " horiz-adv-x="250" 
 />
    <glyph glyph-name="exclam" unicode="!" horiz-adv-x="219" 
d="M112 173h-7q0 16 -9 85.5t-18 180t-9 226.5q0 60 41 60q42 0 42 -60q0 -116 -10 -226.5t-20 -180t-10 -85.5zM145 31q0 -14 -11 -24.5t-27 -10.5q-14 0 -24.5 10.5t-10.5 24.5q0 16 10.5 27t24.5 11q17 0 27.5 -10.5t10.5 -27.5z" />
    <glyph glyph-name="quotedbl" unicode="&#x22;" horiz-adv-x="214" 
d="M75 564h-27q-1 17 -4.5 83t-6.5 115h50l-7 -115zM165 564h-27q-1 17 -4.5 83t-6.5 115h50l-7 -115z" />
    <glyph glyph-name="numbersign" unicode="#" horiz-adv-x="1207" 
d="M1125 130h-290v20h290v-20zM987 221q-86 0 -137.5 45t-51.5 140q0 92 55 142t132 50q76 0 130.5 -51t54.5 -141q0 -85 -52.5 -135t-130.5 -50zM983 237q64 0 88 45t24 131q0 85 -26.5 126.5t-89.5 41.5q-107 0 -107 -183q0 -80 25 -120.5t86 -40.5zM720 -22h-5l-568 632
v-90q0 -373 9 -438q8 -54 32 -68q7 -4 28 -11v-5q-44 2 -85 2q-37 0 -79 -2v5q32 12 41 26q19 29 22 179q2 76 2 313v221h7l566 -629v89q0 379 -10 446q-8 51 -33 64q-6 4 -23 9q-2 1 -3 1v5q44 -2 85 -2t83 2v-5q-33 -11 -43 -24q-20 -28 -24 -171q-2 -79 -2 -319v-230z
" />
    <glyph glyph-name="dollar" unicode="$" horiz-adv-x="460" 
d="M244 -51h-20v41h-12q-36 0 -79 9.5t-65 9.5q-9 0 -15 -1q1 5 1 26q0 11 -2.5 33.5t-2.5 35.5q0 36 12 63h5q-2 -18 -2 -25q0 -58 46.5 -92t110.5 -34h3v323q-83 56 -110 85q-57 60 -57 140q0 76 46.5 124.5t120.5 53.5v39h20v-38q30 -1 71.5 -8.5t59.5 -7.5q11 0 17 1
q-3 -31 -3 -66q0 -40 1 -55h-6q-22 115 -140 115v-288q82 -57 107 -81q69 -67 69 -159q0 -83 -49 -137t-127 -64v-43zM244 324v-308q49 7 81 41.5t32 92.5q0 57 -29.5 96.5t-83.5 77.5zM224 447v273q-45 -6 -73.5 -34t-28.5 -78q0 -51 26.5 -88t75.5 -73z" />
    <glyph glyph-name="percent" unicode="%" horiz-adv-x="870" 
d="M205 0h-31l491 767h31zM226 383q-89 0 -139.5 49.5t-50.5 136.5q0 84 53.5 138.5t134.5 54.5t134 -54.5t53 -138.5q0 -78 -51 -132t-134 -54zM223 392q38 0 63.5 15.5t38 44t17 57.5t4.5 66q0 177 -127 177q-119 0 -119 -190q0 -170 123 -170zM651 -10q-89 0 -139.5 49.5
t-50.5 136.5q0 84 53.5 138.5t134.5 54.5t134 -54.5t53 -138.5q0 -78 -51 -132t-134 -54zM648 -1q38 0 63.5 15.5t38 44t17 57.5t4.5 66q0 177 -127 177q-119 0 -119 -190q0 -170 123 -170z" />
    <glyph glyph-name="ampersand" unicode="&#x26;" horiz-adv-x="633" 
d="M644 18v-3q-19 -17 -53 -17q-90 0 -176 74q-75 -82 -182 -82q-85 0 -147 51.5t-62 133.5q0 42 26 81.5t53.5 61.5t70.5 50q-64 100 -64 180q0 78 42 122.5t98 44.5q47 0 81 -30.5t34 -97.5q0 -98 -119 -191l5 -7q20 -34 75.5 -107.5t116.5 -136.5q26 58 26 131
q0 42 -12 64.5t-40 34.5v3q25 0 39.5 11.5t14.5 30.5h3q34 -43 34 -108q0 -94 -51 -181q115 -113 187 -113zM402 84q-62 57 -136 156q-48 63 -81 111q-81 -65 -81 -145q0 -81 50 -128t119 -47q78 0 129 53zM236 413q76 67 76 169q0 52 -22.5 81t-51.5 29q-28 0 -47.5 -24
t-19.5 -74q0 -70 65 -181z" />
    <glyph glyph-name="quotesingle" unicode="'" horiz-adv-x="124" 
d="M75 564h-27q-1 17 -4.5 83t-6.5 115h50l-7 -115z" />
    <glyph glyph-name="parenleft" unicode="(" horiz-adv-x="237" 
d="M196 -117h-6q-69 73 -108 202.5t-39 243.5t39 240.5t107 197.5h6q-83 -209 -83 -434q0 -227 84 -450z" />
    <glyph glyph-name="parenright" unicode=")" horiz-adv-x="237" 
d="M47 -117h-6q84 223 84 450q0 225 -83 434h6q68 -71 107 -197.5t39 -240.5t-39 -243.5t-108 -202.5z" />
    <glyph glyph-name="asterisk" unicode="*" horiz-adv-x="335" 
d="M255 468l-39 -24l-40 81l-16 -1l-41 -79l-38 24l61 68l-6 18l-86 22l23 45l69 -47l15 11l-13 78h49l-16 -78l14 -9l73 42l17 -44l-82 -18l-5 -19z" />
    <glyph glyph-name="plus" unicode="+" horiz-adv-x="459" 
d="M244 116h-30q1 36 1 172q-136 0 -171 -1v30q72 -2 171 -2q0 136 -1 172h30q-2 -72 -2 -172q99 0 173 2v-30q-37 1 -173 1q0 -100 2 -172z" />
    <glyph glyph-name="comma" unicode="," horiz-adv-x="179" 
d="M66 -103l-4 2q40 32 40 84q0 9 -2 17q-7 -4 -15 -4q-16 0 -24.5 10t-8.5 25q0 17 10 27.5t24 10.5q17 0 30.5 -15.5t13.5 -44.5q0 -36 -17 -65.5t-47 -46.5z" />
    <glyph glyph-name="hyphen" unicode="-" horiz-adv-x="313" 
d="M256 316v-30q-33 1 -100 1q-66 0 -99 -1v30q66 -2 99 -2q34 0 100 2z" />
    <glyph glyph-name="period" unicode="." horiz-adv-x="175" 
d="M124 31q0 -14 -11 -24.5t-27 -10.5q-14 0 -24.5 10.5t-10.5 24.5q0 16 10.5 27t24.5 11q16 0 27 -10.5t11 -27.5z" />
    <glyph glyph-name="slash" unicode="/" horiz-adv-x="424" 
d="M61 -46h-31l333 813h31z" />
    <glyph glyph-name="zero" unicode="0" horiz-adv-x="624" 
d="M311 -10q-47 0 -91.5 20.5t-83.5 62t-63 114t-24 167.5q0 97 29 181.5t90 140.5t144 56t144 -56t90 -140.5t29 -181.5q0 -95 -24 -167.5t-63 -114t-84 -62t-93 -20.5zM311 13q170 0 170 353q0 176 -41.5 259.5t-128.5 83.5q-85 0 -126.5 -83.5t-41.5 -259.5
q0 -353 168 -353z" />
    <glyph glyph-name="one" unicode="1" horiz-adv-x="297" 
d="M241 3v-5q-42 2 -87 2q-43 0 -87 -2v5q21 3 30 8.5t14.5 24.5t5.5 58v541q-28 -24 -83 -60l-5 11q45 30 67.5 46.5t52 48.5t37.5 61h5v-648q0 -39 5.5 -58t14.5 -24.5t30 -8.5z" />
    <glyph glyph-name="two" unicode="2" horiz-adv-x="548" 
d="M501 140h5q0 -13 -10.5 -58.5t-11.5 -87.5q-126 6 -315 6q-31 0 -94 -0.5t-64 -0.5v5q41 23 85 53.5t100 81t98.5 104.5t72 125t29.5 142q0 103 -48.5 149.5t-119.5 46.5q-65 0 -112 -39.5t-47 -105.5q0 -55 45 -89q-19 -8 -40 -22q-33 40 -33 99q0 83 60 138t155 55
q92 0 157.5 -61t65.5 -174q0 -48 -21.5 -99t-52 -93t-79.5 -90t-88 -81l-93 -75q55 -1 156.5 -3.5t110.5 -2.5q44 0 59 14t30 63z" />
    <glyph glyph-name="three" unicode="3" horiz-adv-x="523" 
d="M98 184l2 -4q-7 -20 -7 -40q0 -60 39.5 -93.5t101.5 -33.5q73 0 113 47t40 114q0 82 -46.5 130.5t-134.5 52.5v7q90 5 131.5 53.5t41.5 122.5q0 72 -42.5 114t-113.5 42q-57 0 -99 -35t-42 -94q0 -37 25 -66q-22 -5 -39 -15q-14 29 -14 68q0 72 54.5 125t142.5 53
q94 0 152.5 -54t58.5 -132q0 -100 -117 -157q125 -63 125 -183q0 -89 -62 -152.5t-168 -63.5q-64 0 -118.5 37t-78.5 105q20 13 35.5 31t19.5 21z" />
    <glyph glyph-name="four" unicode="4" horiz-adv-x="532" 
d="M462 3v-5q-42 2 -87 2q-43 0 -87 -2v5q21 3 30 8.5t14.5 24.5t5.5 58v121h-328l-2 4l399 523h5v-481h7q26 0 37 1t22.5 9t17.5 24h5q-1 -13 -13.5 -41t-15.5 -44q-14 5 -51 5h-9v-121q0 -39 5.5 -58t14.5 -24.5t30 -8.5zM338 261v353l-270 -353h270z" />
    <glyph glyph-name="five" unicode="5" horiz-adv-x="503" 
d="M73 163l4 -3q-1 -6 -1 -17q0 -59 43 -94.5t112 -35.5q70 0 121 48.5t51 144.5q0 92 -50 145.5t-132 53.5t-133 -56h-5q17 126 17 385q135 -9 238 -9q36 0 47.5 2.5t20.5 14.5h5q-1 -4 -14.5 -33.5t-19.5 -53.5l-252 9q-2 -117 -7 -212q56 24 113 24q106 0 172 -61.5
t66 -175.5q0 -103 -66.5 -176t-168.5 -73q-67 0 -123 34.5t-81 98.5q15 11 27 24t16 16z" />
    <glyph glyph-name="six" unicode="6" horiz-adv-x="553" 
d="M159 347h-5q17 65 61.5 99.5t100.5 34.5q83 0 144 -64.5t61 -174.5q0 -100 -66 -176t-162 -76q-115 0 -180.5 92t-65.5 224q0 62 15 122t47 115.5t78 97.5t112 67t144 25v-9q-70 -3 -124.5 -30.5t-89 -69.5t-57.5 -99t-32 -116t-9 -124q0 -43 7.5 -87t25 -89t51.5 -73.5
t81 -28.5q39 0 68.5 23t44.5 60t22 73.5t7 71.5q0 104 -41 158.5t-109 54.5q-40 0 -75 -24.5t-54 -76.5z" />
    <glyph glyph-name="seven" unicode="7" horiz-adv-x="493" 
d="M503 725v-5q-98 -185 -211.5 -437.5t-118.5 -313.5q-19 3 -63 3q11 17 24 42.5t38 79l54 117l86 187.5l120 258h-304q-31 0 -44 -1t-28.5 -7.5t-21.5 -20.5t-8 -39h-5q0 26 3.5 64t3.5 55q0 23 -2 35h5q20 -17 44 -17h428z" />
    <glyph glyph-name="eight" unicode="8" horiz-adv-x="493" 
d="M297 383q68 -55 104.5 -102.5t36.5 -109.5q0 -80 -59.5 -130.5t-137.5 -50.5q-92 0 -142.5 47.5t-50.5 115.5q0 122 161 200q-33 27 -52.5 45t-42 44.5t-33 55.5t-10.5 62q0 79 50.5 126.5t129.5 47.5q87 0 135 -46.5t48 -111.5q0 -55 -36 -107t-101 -86zM225 340
q-116 -53 -116 -182q0 -64 37 -104.5t105 -40.5q56 0 85.5 36t29.5 87q0 31 -10.5 59.5t-34 55t-43 44t-53.5 45.5zM282 395q50 28 75.5 75.5t25.5 100.5q0 64 -35 102t-104 38q-52 0 -82 -30t-30 -82q0 -25 10 -49.5t19.5 -40.5t36.5 -42t38 -34.5t46 -37.5z" />
    <glyph glyph-name="nine" unicode="9" horiz-adv-x="553" 
d="M110 -11v9q70 3 124.5 30.5t89 69.5t57.5 99t32 116t9 124q0 43 -7.5 87t-25 89t-51.5 73.5t-81 28.5q-39 0 -68.5 -23t-44.5 -60t-22 -73.5t-7 -71.5q0 -104 41 -158.5t109 -54.5q40 0 75 24.5t54 76.5h5q-17 -65 -61.5 -99.5t-100.5 -34.5q-83 0 -144 64.5t-61 174.5
q0 100 66 176t162 76q115 0 180.5 -92t65.5 -224q0 -62 -15 -122t-47 -115.5t-78 -97.5t-112 -67t-144 -25z" />
    <glyph glyph-name="colon" unicode=":" horiz-adv-x="187" 
d="M130 31q0 -14 -11 -24.5t-27 -10.5q-14 0 -24.5 10.5t-10.5 24.5q0 16 10.5 27t24.5 11q16 0 27 -10.5t11 -27.5zM130 363q0 -14 -11 -24.5t-27 -10.5q-14 0 -24.5 10.5t-10.5 24.5q0 16 10.5 27t24.5 11q16 0 27 -10.5t11 -27.5z" />
    <glyph glyph-name="semicolon" unicode=";" horiz-adv-x="194" 
d="M132 363q0 -14 -11 -24.5t-27 -10.5q-14 0 -24.5 10.5t-10.5 24.5q0 16 10.5 27t24.5 11q16 0 27 -10.5t11 -27.5zM73 -103l-4 2q40 32 40 84q0 9 -2 17q-7 -4 -15 -4q-16 0 -24.5 10t-8.5 25q0 17 10 27.5t24 10.5q17 0 30.5 -15.5t13.5 -44.5q0 -36 -17 -65.5
t-47 -46.5z" />
    <glyph glyph-name="less" unicode="&#x3c;" horiz-adv-x="431" 
d="M366 88l-333 202v24l333 204v-24l-287 -193l287 -189v-24z" />
    <glyph glyph-name="equal" unicode="=" horiz-adv-x="503" 
d="M437 381v-30q-39 1 -186 1t-185 -1v30q76 -2 185 -2q108 0 186 2zM437 251v-30q-39 1 -186 1t-185 -1v30q76 -2 185 -2q108 0 186 2z" />
    <glyph glyph-name="greater" unicode="&#x3e;" horiz-adv-x="431" 
d="M398 290l-333 -202v24l287 189l-287 193v24l333 -204v-24z" />
    <glyph glyph-name="question" unicode="?" horiz-adv-x="461" 
d="M223 163h-8q0 52 14.5 92t35.5 66l42.5 50.5t36 60t14.5 80.5q0 79 -46.5 121t-110.5 42q-56 0 -96.5 -33t-40.5 -89q0 -44 27 -76.5t71 -32.5q22 0 42 4q-22 -31 -24 -51q-69 14 -106.5 62t-37.5 108q0 78 53.5 121.5t128.5 43.5q81 0 141 -50t60 -140q0 -51 -20 -92
t-49 -70l-58 -57.5t-49 -69t-20 -90.5zM256 31q0 -14 -11 -24.5t-27 -10.5q-14 0 -24.5 10.5t-10.5 24.5q0 16 10.5 27t24.5 11q16 0 27 -10.5t11 -27.5z" />
    <glyph glyph-name="at" unicode="@" horiz-adv-x="832" 
d="M419 -94v-6q-169 0 -269.5 99t-100.5 262q0 92 32 165.5t86 118t119.5 67.5t137.5 23q92 0 162.5 -27.5t111 -74t60.5 -102t20 -116.5q0 -113 -59.5 -198.5t-150.5 -85.5q-26 0 -41 17.5t-15 45.5q-65 -63 -149 -63q-61 0 -94.5 32t-33.5 78q0 54 44.5 90.5t116.5 36.5
q69 0 116 -33v140q0 49 -21 74t-70 25q-45 0 -79.5 -33t-36.5 -93h-51q10 66 59.5 105t115.5 39q147 0 147 -130v-234q0 -31 6.5 -43.5t22.5 -12.5q53 0 93.5 74.5t40.5 168.5q0 55 -16.5 104t-51 91t-97 66.5t-146.5 24.5q-64 0 -123 -21t-108 -61t-78 -106t-29 -149
q0 -150 89 -250t240 -108zM512 114v103q-34 32 -96 32q-51 0 -80 -30.5t-29 -71.5q0 -36 24 -62t67 -26q66 0 114 55z" />
    <glyph glyph-name="A" unicode="A" horiz-adv-x="582" 
d="M578 3v-5q-42 2 -87 2t-89 -2v5q44 3 44 35q0 12 -12 52l-59 188h-115q-71 0 -106 -1l-60 -162q-17 -47 -17 -68q0 -39 46 -44v-5q-44 2 -93 2q-26 0 -68 -2v5q40 9 59.5 32.5t50.5 105.5l226 601h10l210 -664q16 -49 24 -60t36 -15zM366 307l-92 296l-109 -295
q32 -1 95 -1h106z" />
    <glyph glyph-name="B" unicode="B" horiz-adv-x="535" 
d="M46 -2v5q22 4 32 9t17.5 24.5t7.5 57.5v537q0 56 -11.5 71t-43.5 20v5q44 -2 80 -2q30 0 66 1t52 1q98 0 148 -48t50 -116q0 -56 -33.5 -97.5t-104.5 -60.5q92 -12 142.5 -71.5t50.5 -136.5q0 -87 -54 -143.5t-152 -56.5q-28 0 -77 1.5t-76 1.5q-50 0 -94 -2zM202 380
h-25v-348q43 -8 76 -8q165 0 165 176q0 180 -216 180zM177 698v-294q192 0 192 153q0 69 -40 109t-100 40q-28 0 -52 -8z" />
    <glyph glyph-name="C" unicode="C" horiz-adv-x="724" 
d="M679 161h5q-6 -43 -6 -107q-129 -64 -250 -64q-93 0 -168.5 31t-123.5 83.5t-73.5 118t-25.5 136.5q0 70 24.5 136t70 119.5t120 85.5t165.5 32q21 0 42.5 -1.5t43.5 -5t38 -6.5t39.5 -9l33.5 -8.5t34.5 -10t29.5 -8.5q-3 -39 -3 -95q0 -10 0.5 -23t0.5 -15h-5
q-7 77 -76 118.5t-174 41.5q-60 0 -112 -21t-93 -63t-64.5 -111.5t-23.5 -159.5q0 -87 28 -154.5t74.5 -107t101 -59.5t112.5 -20q80 0 147 37.5t88 109.5z" />
    <glyph glyph-name="D" unicode="D" horiz-adv-x="779" 
d="M43 -2v5q24 4 33.5 6.5t20.5 11.5t14 26t3 47v537q0 29 -4 46.5t-16 26.5t-20 11.5t-30 6.5v5q44 -2 95 -2q33 0 83.5 0.5t74.5 0.5q207 0 325 -97.5t118 -271.5q0 -156 -98.5 -258t-287.5 -102q-25 0 -98.5 1.5t-104.5 1.5q-64 0 -108 -2zM188 691v-656q78 -14 165 -14
q67 0 119.5 16.5t95 54t65.5 106t23 165.5q0 174 -97 256.5t-256 82.5q-69 0 -115 -11z" />
    <glyph glyph-name="E" unicode="E" horiz-adv-x="493" 
d="M454 129h5q-1 -46 -3.5 -79.5t-2.5 -52.5q-93 3 -206 3q-159 0 -201 -2v5q36 6 46.5 23t10.5 68v537q0 56 -11.5 70.5t-48.5 20.5v5q40 -2 128 -2q233 0 278 2q0 -2 0.5 -17.5t0.5 -24.5q0 -57 -6 -82h-5q0 64 -31 78t-147 14q-61 0 -84 -6v-298q54 0 79 0.5t52.5 3.5
t37 6.5t20 13.5t13.5 21t7 32h5q-2 -62 -2 -93q0 -34 2 -102h-5q-4 24 -7 36.5t-13.5 24t-19.5 16t-37 7.5t-53 3.5t-79 0.5v-325q16 -6 85 -6q48 0 68 0.5t47 3.5t35 8t19.5 17.5t15 28t7.5 41.5z" />
    <glyph glyph-name="F" unicode="F" horiz-adv-x="468" 
d="M232 3v-5q-42 2 -93 2q-43 0 -87 -2v5q21 3 30 8.5t14.5 24.5t5.5 58v537q0 56 -11.5 70.5t-48.5 20.5v5q40 -2 128 -2q233 0 278 2q0 -2 0.5 -17.5t0.5 -24.5q0 -57 -6 -82h-5q0 64 -31 78t-147 14q-62 0 -84 -6v-293q140 0 169.5 12t36.5 77h5q-2 -62 -2 -105
q0 -26 2 -94h-5q-3 22 -5.5 33.5t-12.5 22t-19.5 14t-37 6.5t-53 3.5t-78.5 0.5v-272q0 -56 11.5 -71t44.5 -20z" />
    <glyph glyph-name="G" unicode="G" horiz-adv-x="743" 
d="M596 69v182q0 31 -3 48.5t-12.5 26.5t-16.5 11t-25 5v5q44 -2 94 -2q39 0 81 2v-5q-20 -4 -28 -10t-12 -23.5t-4 -57.5v-196q-17 -5 -58.5 -24t-85 -30t-98.5 -11q-93 0 -168.5 31t-123.5 83.5t-73.5 118t-25.5 136.5q0 155 102.5 264t277.5 109q44 0 90 -7.5t76.5 -15.5
t89.5 -26q-3 -33 -3 -94q0 -32 1 -39h-5q-8 80 -76 120t-169 40q-55 0 -105 -19.5t-94 -58.5t-70.5 -108.5t-26.5 -160.5q0 -155 87.5 -253t218.5 -98q108 0 165 57z" />
    <glyph glyph-name="H" unicode="H" horiz-adv-x="733" 
d="M681 3v-5q-42 2 -87 2q-43 0 -87 -2v5q21 3 30 8.5t14.5 24.5t5.5 58v279q-66 1 -197 1q-123 0 -184 -1v-279q0 -39 5.5 -58t14.5 -24.5t30 -8.5v-5q-42 2 -87 2q-43 0 -87 -2v5q21 3 30 8.5t14.5 24.5t5.5 58v537q0 39 -5.5 58t-14.5 24.5t-30 8.5v5q44 -2 87 -2
q45 0 87 2v-5q-21 -3 -30 -8.5t-14.5 -24.5t-5.5 -58v-227q61 -1 184 -1q131 0 197 1v227q0 39 -5.5 58t-14.5 24.5t-30 8.5v5q44 -2 87 -2q45 0 87 2v-5q-21 -3 -30 -8.5t-14.5 -24.5t-5.5 -58v-537q0 -39 5.5 -58t14.5 -24.5t30 -8.5z" />
    <glyph glyph-name="I" unicode="I" horiz-adv-x="278" 
d="M226 3v-5q-42 2 -87 2q-43 0 -87 -2v5q21 3 30 8.5t14.5 24.5t5.5 58v537q0 39 -5.5 58t-14.5 24.5t-30 8.5v5q44 -2 87 -2q45 0 87 2v-5q-21 -3 -30 -8.5t-14.5 -24.5t-5.5 -58v-537q0 -39 5.5 -58t14.5 -24.5t30 -8.5z" />
    <glyph glyph-name="J" unicode="J" horiz-adv-x="277" 
d="M21 -199l-1 5q52 10 67 33.5t15 91.5v700q0 38 -9 58t-19.5 24.5t-34.5 8.5v5q44 -2 100 -2q54 0 96 2v-5q-24 -5 -33.5 -9.5t-17.5 -24t-8 -57.5v-613q0 -99 -32 -152t-123 -65z" />
    <glyph glyph-name="K" unicode="K" horiz-adv-x="573" 
d="M596 3v-5q-42 2 -91 2q-44 0 -88 -2v5q29 3 29 15q0 5 -4 11.5t-8.5 12l-13.5 16.5l-14 17l-230 279v-260q0 -39 5.5 -58t14.5 -24.5t30 -8.5v-5q-42 2 -87 2q-43 0 -87 -2v5q21 3 30 8.5t14.5 24.5t5.5 58v537q0 39 -5.5 58t-14.5 24.5t-30 8.5v5q44 -2 87 -2q45 0 87 2
v-5q-21 -3 -30 -8.5t-14.5 -24.5t-5.5 -58v-256l144 160q74 81 101 115.5t27 51.5t-29 20v5q44 -2 82 -2q47 0 89 2v-5q-44 -8 -120 -81q-42 -41 -237 -246l272 -322l35 -40.5t25 -20.5t31 -9z" />
    <glyph glyph-name="L" unicode="L" horiz-adv-x="470" 
d="M454 129h5q-1 -46 -3.5 -79.5t-2.5 -52.5q-93 3 -206 3q-159 0 -201 -2v5q36 6 46.5 23t10.5 68v537q0 39 -5.5 58t-14.5 24.5t-30 8.5v5q44 -2 87 -2q45 0 87 2v-5q-21 -3 -30 -8.5t-14.5 -24.5t-5.5 -58v-595q16 -6 85 -6q48 0 68 0.5t47 3.5t35 8t19.5 17.5t15 28
t7.5 41.5z" />
    <glyph glyph-name="M" unicode="M" horiz-adv-x="876" 
d="M870 3v-5q-42 2 -87 2q-55 0 -99 -2v5q31 4 41 11.5t10 23.5q0 6 -8 52l-82 475l-222 -557h-5l-230 554l-74 -427q-8 -45 -8 -70q0 -28 11 -42t40 -20v-5q-44 2 -99 2q-24 0 -66 -2v5q39 10 56.5 40t30.5 103l111 596h5l245 -599l243 599h5l120 -664q7 -38 19 -53t43 -22
z" />
    <glyph glyph-name="N" unicode="N" horiz-adv-x="814" 
d="M708 -22h-5l-568 632v-90q0 -373 9 -438q8 -54 32 -68q7 -4 28 -11v-5q-44 2 -85 2q-37 0 -79 -2v5q32 12 41 26q19 29 22 179q2 76 2 313v221h7l566 -629v89q0 379 -10 446q-8 51 -33 64q-6 4 -23 9q-2 1 -3 1v5q44 -2 85 -2t83 2v-5q-33 -11 -43 -24q-20 -28 -24 -171
q-2 -79 -2 -319v-230z" />
    <glyph glyph-name="O" unicode="O" 
d="M396 -10q-159 0 -258.5 110t-99.5 256q0 96 43 181t128.5 140t194.5 55q148 0 252 -107t104 -266q0 -154 -104.5 -261.5t-259.5 -107.5zM396 13q120 0 196 87t76 253q0 177 -80 267t-192 90q-52 0 -98 -20.5t-84 -61t-60.5 -110t-22.5 -159.5q0 -172 74 -259t191 -87z
" />
    <glyph glyph-name="P" unicode="P" horiz-adv-x="504" 
d="M226 3v-5q-42 2 -87 2q-43 0 -87 -2v5q21 3 30 8.5t14.5 24.5t5.5 58v537q0 56 -11.5 71t-43.5 20v5q44 -2 80 -2q30 0 65.5 1t52.5 1q123 0 183 -54.5t60 -142.5q0 -80 -54.5 -140t-147.5 -60q-50 0 -79 23l4 8q25 -14 61 -14q66 0 100 46t34 120q0 88 -42 139.5
t-118 51.5q-37 0 -70 -10v-600q0 -39 5.5 -58t14.5 -24.5t30 -8.5z" />
    <glyph glyph-name="Q" unicode="Q" 
d="M767 -65l1 -2q-24 -28 -63 -28q-78 0 -182 107q-61 -22 -127 -22q-159 0 -258.5 110t-99.5 256q0 96 43 181t128.5 140t194.5 55q148 0 252 -107t104 -266q0 -97 -44 -179.5t-121 -132.5q107 -118 153 -118q10 0 19 6zM396 13q120 0 196 87t76 253q0 177 -80 267t-192 90
q-52 0 -98 -20.5t-84 -61t-60.5 -110t-22.5 -159.5q0 -172 74 -259t191 -87z" />
    <glyph glyph-name="R" unicode="R" horiz-adv-x="552" 
d="M554 3v-6q-9 -1 -25 -1q-43 2 -63.5 6.5t-48 32t-50.5 67.5t-71 132l-10.5 20l-14 27t-14.5 24t-17 20h-64v-231q0 -39 5.5 -58t14.5 -24.5t30 -8.5v-5q-42 2 -87 2q-43 0 -87 -2v5q21 3 30 8.5t14.5 24.5t5.5 58v537q0 50 -9.5 68t-38.5 23v5q34 -2 96 -2q16 0 55 1
t49 1q111 0 173.5 -55.5t62.5 -144.5q0 -67 -44.5 -120t-129.5 -72q11 -8 52 -86t92.5 -155t93.5 -91zM176 346h48q101 0 141.5 44.5t40.5 123.5q0 83 -41.5 136.5t-116.5 53.5q-36 0 -72 -10v-348z" />
    <glyph glyph-name="S" unicode="S" horiz-adv-x="456" 
d="M59 166h5q-2 -18 -2 -25q0 -58 46.5 -92t110.5 -34q56 0 96 35t40 100q0 40 -16.5 74t-43 57.5t-58.5 46l-64 45t-58.5 48t-43 62t-16.5 80.5q0 80 52 129.5t133 49.5q31 0 73.5 -8t59.5 -8q11 0 17 1q-3 -31 -3 -66q0 -40 1 -55h-6q-22 115 -140 115q-52 0 -87 -28.5
t-35 -84.5q0 -44 22 -81t55 -60.5l72 -51.5t72 -55t55 -70t22 -97q0 -92 -59 -147.5t-149 -55.5q-36 0 -79 9.5t-65 9.5q-9 0 -15 -1q1 5 1 26q0 11 -2.5 33.5t-2.5 35.5q0 36 12 63z" />
    <glyph glyph-name="T" unicode="T" horiz-adv-x="546" 
d="M366 3v-5q-42 2 -87 2q-43 0 -87 -2v5q21 3 30 8.5t14.5 24.5t5.5 58v593q-130 0 -172 -9.5t-63 -54.5h-5q3 16 15 54t19 73h5q2 -23 36 -28t181 -5q179 0 225.5 3.5t67.5 21.5h6q-5 -12 -16.5 -51.5t-14.5 -55.5h-6q2 8 2 15q0 12 -7 19t-30.5 11t-61.5 5.5t-107 1.5
v-593q0 -39 5.5 -58t14.5 -24.5t30 -8.5z" />
    <glyph glyph-name="U" unicode="U" horiz-adv-x="684" 
d="M560 260v328q0 44 -2 67t-13.5 37t-21 17.5t-38.5 11.5v5q44 -2 91 -2q41 0 83 2v-5q-33 -9 -44.5 -16.5t-18 -32.5t-6.5 -83v-315q0 -165 -69 -228q-68 -62 -171 -62q-116 0 -182 52q-80 62 -80 223v372q0 39 -5.5 58t-14.5 24.5t-30 8.5v5q44 -2 87 -2q52 0 94 2v-5
q-33 -4 -45 -19.5t-12 -71.5v-361q0 -154 50 -201q56 -53 142 -53q91 0 143 52q63 62 63 192z" />
    <glyph glyph-name="V" unicode="V" horiz-adv-x="615" 
d="M312 -22h-6l-245 669q-17 44 -32.5 56.5t-49.5 18.5v5q42 -2 109 -2q54 0 98 2v-5q-53 -5 -53 -38q0 -15 12 -49l186 -513l143 413q38 112 38 139q0 21 -12.5 32t-40.5 16v5q44 -2 109 -2q24 0 66 2v-5q-39 -11 -64 -49t-65 -151z" />
    <glyph glyph-name="W" unicode="W" horiz-adv-x="914" 
d="M601 -22h-6l-136 362l-144 -362h-6l-248 669q-14 38 -27.5 53.5t-41.5 21.5v5q42 -2 96 -2q45 0 89 2v-5q-44 -5 -44 -38q0 -15 12 -49l189 -509l107 263l-97 258q-15 40 -31.5 54t-48.5 21v5q42 -2 103 -2q39 0 83 2v-5q-40 -5 -40 -34q0 -16 14 -53l57 -147l19 47
q41 100 41 136q0 44 -50 51v5q44 -2 116 -2q24 0 66 2v-5q-41 -8 -67 -42.5t-75 -157.5l-32 -81l121 -315l155 409q37 97 37 134q0 45 -55 55v3q44 -2 125 -2q24 0 66 2v-3q-24 -7 -34.5 -12t-28 -24.5t-35.5 -58.5t-44 -107z" />
    <glyph glyph-name="X" unicode="X" horiz-adv-x="621" 
d="M644 3v-5q-42 2 -101 2q-69 0 -113 -2v5q49 4 49 29q0 19 -25 57l-151 236l-91 -135q-74 -110 -74 -145t45 -42v-5q-44 2 -105 2q-70 0 -112 -2v5q57 8 92 41t123 159l105 150l-187 294q-20 32 -38.5 48.5t-30 20t-35.5 6.5v5q42 -2 109 -2q74 0 118 2v-5q-45 -6 -45 -35
q0 -19 20 -51l137 -220l78 119q73 113 73 148q0 33 -48 39v5q44 -2 109 -2q50 0 92 2v-5q-23 -7 -34.5 -13t-34.5 -25t-52.5 -58t-73.5 -104l-91 -135l194 -309q19 -30 36.5 -46.5t29.5 -21t32 -7.5z" />
    <glyph glyph-name="Y" unicode="Y" horiz-adv-x="577" 
d="M375 3v-5q-42 2 -87 2q-43 0 -87 -2v5q31 6 40.5 20.5t9.5 70.5v150l-201 403q-20 40 -33 54.5t-40 20.5v5q42 -2 100 -2q45 0 89 2v-5q-45 -6 -45 -32q0 -18 19 -55l168 -341l124 241q5 11 15 29q44 86 47 107q1 7 1 15q0 29 -41 36v5q44 -2 73 -2q34 0 76 2v-5
q-30 -6 -43 -23t-60 -107l-37 -70l-138 -263v-165q0 -56 9.5 -70.5t40.5 -20.5z" />
    <glyph glyph-name="Z" unicode="Z" horiz-adv-x="596" 
d="M551 128h5q0 -31 -1 -62.5t-1 -40.5q0 -17 1 -28q-137 3 -400 3h-141v5l461 690h-167h-64t-51.5 -1.5t-44 -4t-32.5 -7.5t-27.5 -12.5t-18 -19t-15 -26.5t-8.5 -35h-5q0 22 2.5 66.5t2.5 71.5q91 -2 395 -2h139v-5l-462 -690h174q57 0 83 0.5t60.5 3.5t48.5 8.5t30.5 17
t23.5 27.5t12 41z" />
    <glyph glyph-name="bracketleft" unicode="[" horiz-adv-x="222" 
d="M177 -116h-100v883h99v-22h-39v-840h40v-21z" />
    <glyph glyph-name="backslash" unicode="\" horiz-adv-x="424" 
d="M394 -46h-31l-333 813h31z" />
    <glyph glyph-name="bracketright" unicode="]" horiz-adv-x="222" 
d="M145 -116h-100v21h40v840h-39v22h99v-883z" />
    <glyph glyph-name="asciicircum" unicode="^" horiz-adv-x="386" 
d="M366 380h-24l-147 224l-151 -224h-24l162 270h24z" />
    <glyph glyph-name="underscore" unicode="_" horiz-adv-x="485" 
d="M428 15v-30q-39 1 -186 1t-185 -1v30q76 -2 185 -2q108 0 186 2z" />
    <glyph glyph-name="grave" unicode="`" horiz-adv-x="333" 
d="M273 530l-11 -9l-162 121l38 40z" />
    <glyph glyph-name="a" unicode="a" horiz-adv-x="444" 
d="M431 46l2 -5q-32 -51 -72 -51q-26 0 -41 17.5t-15 45.5q-65 -63 -149 -63q-61 0 -94.5 32t-33.5 78q0 54 44.5 90.5t116.5 36.5q69 0 116 -33v169q0 49 -21 74t-70 25q-45 0 -79.5 -33t-36.5 -93h-51q10 66 59.5 105t115.5 39q147 0 147 -130v-263q0 -31 6.5 -43.5
t22.5 -12.5q17 0 33 15zM305 73v103q-34 32 -96 32q-51 0 -80 -30.5t-29 -71.5q0 -36 24 -62t67 -26q66 0 114 55z" />
    <glyph glyph-name="b" unicode="b" horiz-adv-x="509" 
d="M44 27v3q17 9 20 30.5t3 107.5v513q0 29 -7.5 39t-36.5 15v5q76 5 108 22v-329q59 47 128 47q105 0 161.5 -66.5t56.5 -161.5q0 -103 -62.5 -182.5t-163.5 -79.5q-43 0 -92 19.5t-76 19.5q-25 0 -39 -2zM131 412v-265q0 -134 117 -134q75 0 110 61t35 158
q0 100 -36.5 163t-111.5 63q-63 0 -114 -46z" />
    <glyph glyph-name="c" unicode="c" horiz-adv-x="470" 
d="M431 72l4 -4q-63 -78 -166 -78q-113 0 -175 71t-62 169q0 104 65.5 177t183.5 73q69 0 113.5 -28t53.5 -71h-72q-15 86 -101 86q-79 0 -119.5 -64.5t-40.5 -153.5q0 -109 50.5 -173t136.5 -64q74 0 129 60z" />
    <glyph glyph-name="d" unicode="d" horiz-adv-x="526" 
d="M521 36l3 -5q-29 -41 -77 -41q-31 0 -45 13.5t-19 43.5q-52 -57 -137 -57q-99 0 -156.5 68.5t-57.5 163.5q0 110 70.5 184t166.5 74q58 0 111 -33v234q0 29 -7.5 39t-36.5 15v5q76 5 108 22v-628q0 -72 6 -93t28 -21t43 16zM380 105v285q-15 32 -48 51t-70 19
q-62 0 -103 -56.5t-41 -171.5q0 -92 44 -150t121 -58q34 0 65.5 19t31.5 62z" />
    <glyph glyph-name="e" unicode="e" horiz-adv-x="464" 
d="M433 72l4 -4q-63 -78 -166 -78q-114 0 -176 72t-62 172q0 104 61 175t152 71q77 0 130.5 -50t53.5 -127h-314q-2 -20 -2 -34q0 -116 54.5 -181t142.5 -65q69 0 122 49zM118 323h230q-3 68 -30.5 106t-73.5 38t-80.5 -39.5t-45.5 -104.5z" />
    <glyph glyph-name="f" unicode="f" horiz-adv-x="234" 
d="M179 3v-5q-44 2 -75 2t-75 -2v5q25 5 34 20t9 71v361h-17v3l17 17q0 99 13.5 156.5t59.5 96.5t101 39q35 0 55 -15l-42 -54q-29 31 -63 31q-40 0 -50 -45.5t-10 -161.5v-47h61q19 0 22 5h5q0 -7 -1 -27t-1 -35h-4q0 23 -7.5 30t-33.5 7h-41v-361q0 -56 9 -71t34 -20z" />
    <glyph glyph-name="g" unicode="g" horiz-adv-x="459" 
d="M462 451l-36 -58q-8 31 -29 31q-14 0 -30 -14q29 -40 29 -93q0 -73 -51.5 -116t-126.5 -43q-13 0 -35 2q-46 -15 -46 -55q0 -12 3.5 -20.5t12 -14.5t16 -9.5t23.5 -6l26 -4t32 -3.5l33 -3q85 -9 123 -44t38 -84q0 -57 -57 -99t-157 -42q-85 0 -147.5 33.5t-62.5 93.5
q0 86 120 124q-34 7 -51.5 21.5t-17.5 44.5q0 29 22.5 48t53.5 28q-53 17 -81.5 58.5t-28.5 92.5q0 65 47.5 113t131.5 48q89 0 142 -59q42 47 73 47q19 0 31 -17zM179 22q-81 -22 -81 -114q0 -59 37.5 -89t96.5 -30q55 0 92 28t37 87q0 16 -3.5 30t-7.5 24t-13.5 18.5
l-15.5 14t-20.5 10.5l-21.5 7.5t-25 5t-24 3.5t-26.5 3t-24.5 2zM215 171q98 0 98 143q0 153 -101 153q-92 0 -92 -144q0 -80 23.5 -116t71.5 -36z" />
    <glyph glyph-name="h" unicode="h" horiz-adv-x="509" 
d="M486 3v-5q-44 2 -75 2t-75 -2v5q25 5 34 20t9 71v218q0 85 -33.5 116.5t-88.5 31.5q-64 0 -121 -41v-325q0 -56 9 -71t34 -20v-5q-44 2 -75 2t-75 -2v5q25 5 34 20t9 71v587q0 29 -5 38.5t-26 15.5v5q55 4 95 22v-322q64 40 146 40q161 0 161 -163v-223q0 -56 9 -71
t34 -20z" />
    <glyph glyph-name="i" unicode="i" horiz-adv-x="211" 
d="M182 3v-5q-44 2 -75 2t-75 -2v5q25 5 34 20t9 71v300q0 29 -5 38.5t-26 15.5v5q55 4 95 22v-381q0 -56 9 -71t34 -20zM148 588q0 -14 -10 -24t-26 -10q-14 0 -24 10t-10 24q0 16 10 26t24 10q16 0 26 -10t10 -26z" />
    <glyph glyph-name="j" unicode="j" horiz-adv-x="198" 
d="M-6 -224l1 7q50 0 61 45.5t11 194.5v371q0 29 -5 38.5t-26 15.5v5q55 4 95 22v-487q0 -47 -3.5 -79t-15 -65.5t-38 -51t-66.5 -17.5q-8 0 -14 1zM140 588q0 -14 -10 -24t-26 -10q-14 0 -24 10t-10 24q0 16 10 26t24 10q16 0 26 -10t10 -26z" />
    <glyph glyph-name="k" unicode="k" horiz-adv-x="453" 
d="M474 3v-5q-78 2 -91 2q-5 0 -59 -2v5q18 2 18 8q0 4 -7 13l-199 224v-154q0 -56 9 -71t34 -20v-5q-44 2 -75 2t-75 -2v5q25 5 34 20t9 71v587q0 29 -5 38.5t-26 15.5v5q55 4 95 22v-501q94 88 133 130.5t39 62.5q0 14 -24 18v5q46 -2 71 -2q23 0 71 2v-6q-36 -7 -72 -35
t-166 -149l62 -70.5l52 -59l41 -46.5l33.5 -37.5l26 -27.5t22 -20.5t17.5 -12.5t16.5 -8t15.5 -2z" />
    <glyph glyph-name="l" unicode="l" horiz-adv-x="218" 
d="M184 3v-5q-44 2 -75 2t-75 -2v5q25 5 34 20t9 71v587q0 29 -5 38.5t-26 15.5v5q55 4 95 22v-668q0 -56 9 -71t34 -20z" />
    <glyph glyph-name="m" unicode="m" horiz-adv-x="800" 
d="M777 3v-5q-44 2 -75 2t-75 -2v5q25 5 34 20t9 71v203q0 163 -110 163q-68 0 -144 -53q18 -37 18 -100v-213q0 -56 9 -71t34 -20v-5q-44 2 -75 2t-75 -2v5q25 5 34 20t9 71v208q0 92 -31 125t-79 33q-65 0 -121 -39v-327q0 -56 9 -71t34 -20v-5q-44 2 -75 2t-75 -2v5
q25 5 34 20t9 71v305q0 29 -5 38.5t-26 15.5v5q55 4 95 22v-40q64 40 146 40q89 0 124 -60q86 60 176 60q149 0 149 -178v-208q0 -56 9 -71t34 -20z" />
    <glyph glyph-name="n" unicode="n" horiz-adv-x="512" 
d="M489 3v-5q-44 2 -75 2t-75 -2v5q25 5 34 20t9 71v218q0 85 -33.5 116.5t-88.5 31.5q-64 0 -121 -41v-325q0 -56 9 -71t34 -20v-5q-44 2 -75 2t-75 -2v5q25 5 34 20t9 71v305q0 29 -5 38.5t-26 15.5v5q55 4 95 22v-40q64 40 146 40q161 0 161 -163v-223q0 -56 9 -71
t34 -20z" />
    <glyph glyph-name="o" unicode="o" horiz-adv-x="547" 
d="M277 -6q-114 0 -179 64t-65 176q0 107 69 176.5t173 69.5t171.5 -70t67.5 -176q0 -101 -65 -170.5t-172 -69.5zM273 7q48 0 81 20t49 56t22 73t6 85q0 226 -163 226q-152 0 -152 -242q0 -218 157 -218z" />
    <glyph glyph-name="p" unicode="p" horiz-adv-x="543" 
d="M178 -222v-5q-44 2 -75 2t-75 -2v5q25 5 34 20t9 71v530q0 29 -7.5 39t-36.5 15v5q76 5 108 22v-48q70 48 149 48q101 0 163.5 -72t62.5 -176q0 -108 -71 -173t-168 -65q-75 0 -136 41v-166q0 -56 9 -71t34 -20zM135 406v-346q49 -45 126 -45q29 0 55 9.5t52 31.5
t41.5 67t15.5 108q0 93 -47.5 158.5t-124.5 65.5q-63 0 -118 -49z" />
    <glyph glyph-name="q" unicode="q" horiz-adv-x="537" 
d="M506 -222v-5q-44 2 -75 2t-75 -2v5q25 5 34 20t9 71v163q-59 -42 -131 -42q-97 0 -166.5 64.5t-69.5 172.5q0 109 71 181t182 72q32 0 76 -11t77 -11q31 0 69 6v-5q-28 -9 -36 -31t-8 -71v-488q0 -56 9 -71t34 -20zM399 59v241q0 41 -1 59t-6 42.5t-16 34t-31.5 17
t-52.5 7.5q-80 0 -128.5 -61.5t-48.5 -168.5t50.5 -161.5t118.5 -54.5q74 0 115 45z" />
    <glyph glyph-name="r" unicode="r" horiz-adv-x="313" 
d="M182 3v-5q-44 2 -75 2t-75 -2v5q25 5 34 20t9 71v305q0 29 -5 38.5t-26 15.5v5q55 4 95 22v-46q53 46 100 46q64 0 64 -83h-64q0 52 -37 52q-30 0 -63 -38v-317q0 -56 9 -71t34 -20z" />
    <glyph glyph-name="s" unicode="s" horiz-adv-x="361" 
d="M311 365h-5q-8 43 -36.5 72.5t-75.5 29.5q-38 0 -63 -23.5t-25 -64.5q0 -32 22.5 -55.5t55 -40t65 -35.5t55 -51.5t22.5 -78.5q0 -61 -48 -94.5t-112 -33.5q-66 0 -126 32q3 14 5 55.5t7 63.5h5q-1 -6 -1 -19q0 -52 26.5 -85t83.5 -33q41 0 66.5 25t25.5 71
q0 35 -22.5 61t-54.5 42.5l-63.5 34t-54 48t-22.5 72.5q0 59 47.5 90.5t109.5 31.5q57 0 114 -17q-3 -15 -3 -32q0 -2 2 -66z" />
    <glyph glyph-name="t" unicode="t" horiz-adv-x="292" 
d="M283 72l5 -3q-32 -79 -115 -79q-49 0 -76 23t-27 96v305q0 31 -9 40.5t-40 14.5v5q46 0 77.5 37t44.5 95h6q-15 -85 -15 -131h82q40 0 54 4t25 21l6 -6l-14 -20t-16 -25.5t-11 -25.5h-8q2 6 2 11q0 12 -10.5 16.5t-37.5 4.5h-72v-344q0 -51 16 -72t55 -21q55 0 78 54z
" />
    <glyph glyph-name="u" unicode="u" horiz-adv-x="522" 
d="M503 46l2 -5q-10 -16 -17 -25t-22 -17.5t-33 -8.5q-56 0 -56 92q-56 -92 -161 -92q-151 0 -151 173v236q0 27 -9.5 38t-39.5 16v5q82 5 113 22v-312q0 -80 26.5 -115.5t85.5 -35.5q91 0 136 89v293q0 29 -7.5 39t-36.5 15v5q76 5 108 22v-385q0 -16 0.5 -24t2.5 -19.5
t8 -17t15 -5.5q18 0 36 17z" />
    <glyph glyph-name="v" unicode="v" horiz-adv-x="485" 
d="M233 -16h-7l-181 439q-11 28 -21.5 36t-32.5 12v5q4 0 33 -0.5t50 -0.5q22 0 52 0.5t34 0.5v-5q-24 -3 -34.5 -8.5t-10.5 -18.5q0 -12 7 -29l131 -320l113 254q29 63 29 86q0 32 -50 36v5q3 0 28 -0.5t51 -0.5q19 0 42.5 0.5t28.5 0.5v-5q-20 -4 -31.5 -12t-31.5 -38.5
t-46 -89.5z" />
    <glyph glyph-name="w" unicode="w" horiz-adv-x="734" 
d="M476 -16h-7l-111 323l-140 -323h-7l-165 439q-10 28 -20.5 36t-33.5 12v5q4 0 33 -0.5t50 -0.5q22 0 52 0.5t34 0.5v-5q-24 -3 -34.5 -8.5t-10.5 -18.5q0 -8 7 -29l115 -320l107 248l-27 80q-8 25 -20.5 33t-43.5 15v5q63 -3 118 -3q23 0 56.5 1.5t42.5 1.5v-5
q-22 -5 -38 -19.5t-33 -51.5l97 -305l116 254q29 63 29 85q0 33 -52 37v5q3 0 29 -0.5t52 -0.5q19 0 43.5 0.5t29.5 0.5v-5q-21 -5 -32 -11.5t-31 -37t-48 -91.5z" />
    <glyph glyph-name="x" unicode="x" horiz-adv-x="503" 
d="M514 4v-5q-4 0 -46 0.5t-65 0.5q-29 0 -45.5 -0.5t-20.5 -0.5v5q24 3 24 16q0 9 -22 40l-109 150l-63 -84q-1 -2 -10.5 -13.5t-14.5 -19.5l-12.5 -19.5t-11 -22t-3.5 -19.5q0 -24 33 -28v-5q-3 0 -35.5 0.5t-58.5 0.5q-19 0 -37.5 -0.5t-23.5 -0.5v5q25 3 39.5 10t60 57
t125.5 156l-141 196q-13 18 -28 28.5t-24.5 13.5t-26.5 6v5q4 0 53 -1t70 -1q22 0 44.5 1t27.5 1v-5q-51 -7 -51 -28q0 -15 14 -34l98 -136l56 74q57 78 57 100q0 19 -25 22v5q3 0 29 -0.5t52 -0.5q19 0 44 0.5t30 0.5v-5q-17 -2 -23.5 -3.5t-27 -12.5t-40.5 -31.5
t-56 -62.5t-83 -103l149 -204q15 -21 33.5 -32t30 -13t34.5 -3z" />
    <glyph glyph-name="y" unicode="y" horiz-adv-x="518" 
d="M231 -221v-5q-3 0 -39.5 0.5t-62.5 0.5q-19 0 -35 -0.5t-21 -0.5v5q36 3 58.5 27t65.5 116l40 84l-184 415q-9 20 -19.5 30.5t-18.5 13.5t-24 6v5q4 0 37 -0.5t54 -0.5q22 0 52 0.5t34 0.5v-5q-25 -3 -35.5 -8.5t-10.5 -18.5q0 -12 8 -31l145 -326l124 260q29 63 29 86
q0 34 -50 38v5q3 0 28 -0.5t51 -0.5q19 0 42.5 0.5t28.5 0.5v-5q-29 -6 -48.5 -29t-60.5 -111l-192 -409q-36 -76 -36 -107q0 -13 6 -20.5t13 -10t21 -5.5z" />
    <glyph glyph-name="z" unicode="z" horiz-adv-x="466" 
d="M426 133h5q0 -26 -3.5 -68t-3.5 -67q-120 2 -309 2h-92v3l325 449h-110h-57t-42.5 -2t-33.5 -3.5t-21.5 -7.5t-16.5 -11.5t-9.5 -18.5t-9 -24.5t-6.5 -33.5h-5q3 31 3 71q0 27 -2 55q40 -2 198 -2q149 0 206 2v-5l-327 -449h153q95 0 123.5 21t34.5 89z" />
    <glyph glyph-name="braceleft" unicode="{" horiz-adv-x="221" 
d="M182 -113v-3q-68 0 -86 26.5t-18 99.5v239q0 37 -10 55t-37 26v4q47 18 47 120v195q0 67 20.5 91.5t83.5 24.5v-3q-20 -6 -30.5 -23t-12 -33t-1.5 -45v-229q0 -22 -1 -33t-5.5 -27t-15.5 -25.5t-29 -14.5q24 -8 35.5 -24t13.5 -31.5t2 -46.5v-249q0 -26 2 -41t12 -30
t30 -23z" />
    <glyph glyph-name="bar" unicode="|" horiz-adv-x="191" 
d="M116 -225h-40q1 89 1 492q0 407 -1 495h40q-2 -176 -2 -495q0 -314 2 -492z" />
    <glyph glyph-name="braceright" unicode="}" horiz-adv-x="221" 
d="M39 -116v3q20 8 30 23t12 30t2 41v249q0 31 2 46.5t13.5 31.5t35.5 24q-18 5 -29 14.5t-15.5 25.5t-5.5 27t-1 33v229q0 29 -1.5 45t-12 33t-30.5 23v3q63 0 83.5 -24.5t20.5 -91.5v-195q0 -102 47 -120v-4q-27 -8 -37 -26t-10 -55v-239q0 -73 -18 -99.5t-86 -26.5z" />
    <glyph glyph-name="asciitilde" unicode="~" horiz-adv-x="489" 
d="M458 638h4q-3 -19 -10.5 -38t-21 -40.5t-38 -34.5t-55.5 -13q-37 0 -102 34.5t-104 34.5q-36 0 -57 -15t-34 -54h-4q9 54 43 87t83 33q38 0 104.5 -34.5t105.5 -34.5q32 0 54 21.5t32 53.5z" />
    <glyph glyph-name="nbspace" unicode="&#xa0;" horiz-adv-x="250" 
 />
    <glyph glyph-name="exclamdown" unicode="&#xa1;" horiz-adv-x="211" 
d="M103 362h7q0 -16 9 -85.5t18 -180t9 -226.5q0 -60 -41 -60q-42 0 -42 60q0 116 10 226.5t20 180t10 85.5zM143 479q0 -14 -11 -24.5t-27 -10.5q-14 0 -24.5 10.5t-10.5 24.5q0 16 10.5 27t24.5 11q17 0 27.5 -10.5t10.5 -27.5z" />
    <glyph glyph-name="cent" unicode="&#xa2;" horiz-adv-x="558" 
d="M497 177l5 -5q-69 -89 -185 -90v-82h-23v82q-123 6 -190 86.5t-67 190.5q0 112 67.5 194t189.5 92v80h23v-79q1 0 3.5 0.5t4.5 0.5q79 0 130 -32t62 -82l-85 3q-15 96 -115 96v-523q20 -2 32 -2q84 0 148 70zM294 114v516q-80 -10 -120.5 -82.5t-40.5 -166.5
q0 -107 43 -177.5t118 -89.5z" />
    <glyph glyph-name="sterling" unicode="&#xa3;" horiz-adv-x="467" 
d="M427 129h5q-1 -46 -3.5 -79.5t-2.5 -52.5q-93 3 -206 3q-134 0 -176 -2v5q36 6 46.5 23t10.5 68v258h-56v23h56v102q0 95 17.5 152.5t65.5 98.5q46 39 101 39q35 0 55 -15l-42 -54q-29 31 -63 31q-40 0 -50 -45.5t-10 -161.5v-147h173v-23h-173v-316q17 -6 60 -6
q48 0 68 0.5t47 3.5t35 8t19.5 17.5t15 28t7.5 41.5z" />
    <glyph glyph-name="currency" unicode="&#xa4;" horiz-adv-x="599" 
d="M491 76l-75 74q-50 -25 -112 -25q-68 0 -120 23l-73 -72l-21 21l66 66q-96 62 -96 202q0 128 94 199l-64 64l21 21l69 -69q56 31 122 31t120 -31l69 69l21 -21l-65 -65q94 -71 94 -198q0 -62 -26 -114t-73 -85l70 -69zM303 161q91 0 146.5 59t55.5 145q0 90 -57.5 150
t-145.5 60q-89 0 -147.5 -59t-58.5 -151q0 -95 55 -149.5t152 -54.5z" />
    <glyph glyph-name="yen" unicode="&#xa5;" horiz-adv-x="703" 
d="M634 172h-246v-78q0 -56 9.5 -70.5t40.5 -20.5v-5q-42 2 -87 2q-43 0 -87 -2v5q31 6 40.5 20.5t9.5 70.5v78h-249v23h249v49l-41 82h-208v23h196l-148 298q-20 40 -33 54.5t-40 20.5v5q42 -2 100 -2q45 0 89 2v-5q-45 -6 -45 -32q0 -18 19 -55l168 -341l124 241
q5 11 15 29q44 86 47 107l1 15q0 29 -41 36v5q44 -2 73 -2q34 0 76 2v-5q-30 -6 -43 -23t-60 -107q-8 -14 -12 -22l-11 -21.5l-14 -26.5l-91 -173h199v-23h-211l-35 -67v-64h246v-23z" />
    <glyph glyph-name="brokenbar" unicode="&#xa6;" horiz-adv-x="197" 
d="M119 -225h-40q1 77 1 425h37q0 -275 2 -425zM117 363h-37q0 327 -1 399h40q-2 -138 -2 -399z" />
    <glyph glyph-name="section" unicode="&#xa7;" horiz-adv-x="444" 
d="M63 144h5q-1 -6 -1 -19q0 -52 26.5 -85t83.5 -33q41 0 66.5 25t25.5 71q0 35 -22.5 63t-54.5 47.5l-63.5 40t-54 53t-22.5 74.5q0 51 36 81.5t89 37.5q-65 49 -65 119q0 59 47.5 90.5t109.5 31.5q57 0 114 -17q-3 -15 -3 -32q0 -2 2 -66h-5q-8 43 -36.5 72.5t-75.5 29.5
q-38 0 -63 -23.5t-25 -64.5q0 -27 16.5 -50t40.5 -38l53 -34.5t53 -38.5t40.5 -50t16.5 -70q0 -49 -31.5 -80.5t-80.5 -42.5q52 -49 52 -115q0 -61 -48 -94.5t-112 -33.5q-66 0 -126 32q3 14 5 55.5t7 63.5zM269 250q60 18 60 91q0 22 -7.5 40t-24 33.5t-29.5 25t-38.5 25.5
l-37.5 24q-33 -4 -54 -27t-21 -60q0 -33 20.5 -57t68 -53t63.5 -42z" />
    <glyph glyph-name="dieresis" unicode="&#xa8;" horiz-adv-x="298" 
d="M121 565q0 -14 -11 -24.5t-25 -10.5t-24.5 10.5t-10.5 24.5t10.5 24.5t24.5 10.5t25 -10.5t11 -24.5zM213 530q-14 0 -25 10.5t-11 24.5t11 24.5t25 10.5q13 0 24 -11t11 -24t-11 -24t-24 -11z" />
    <glyph glyph-name="copyright" unicode="&#xa9;" horiz-adv-x="877" 
d="M838 367q0 -166 -117 -282.5t-283 -116.5t-282.5 116.5t-116.5 282.5t116.5 283t282.5 117t283 -117t117 -283zM803 367q0 151 -106.5 258t-258.5 107q-151 0 -257.5 -106.5t-106.5 -258.5q0 -151 106 -257.5t258 -106.5t258.5 106.5t106.5 257.5zM627 240h9
q-4 -25 -4 -84q-90 -45 -175 -45q-127 0 -200 76t-73 181q0 104 70 181.5t195 77.5q60 0 183 -34q-3 -24 -3 -56q0 -29 1 -47h-8q-5 54 -51 83t-119 29q-79 0 -134 -62.5t-55 -174.5q0 -107 63.5 -167t141.5 -60q55 0 100 26t59 76z" />
    <glyph glyph-name="ordfeminine" unicode="&#xaa;" horiz-adv-x="423" 
d="M360 228h-290v20h290v-20zM379 361l1 -3q-23 -40 -60 -40q-21 0 -34.5 14t-13.5 35q-52 -49 -115 -49q-48 0 -73.5 26.5t-25.5 68.5q0 48 33.5 78t90.5 30q52 0 90 -25v105q0 76 -71 76q-34 0 -61 -24t-28 -68h-49q8 52 47.5 81.5t97.5 29.5q123 0 123 -100v-203
q0 -24 4.5 -33.5t17.5 -9.5q14 0 26 11zM272 387v90q-27 24 -74 24q-33 0 -53.5 -24.5t-20.5 -58.5q0 -31 16.5 -52t43.5 -21q49 0 88 42z" />
    <glyph glyph-name="guillemotleft" unicode="&#xab;" horiz-adv-x="410" 
d="M194 92l-167 133v27l167 133v-27l-115 -119l115 -120v-27zM354 92l-167 133v27l167 133v-27l-115 -119l115 -120v-27z" />
    <glyph glyph-name="logicalnot" unicode="&#xac;" horiz-adv-x="514" 
d="M448 116h-30q1 36 1 171q-38 1 -159 1q-147 0 -185 -1v30q76 -2 185 -2q108 0 186 2q0 -125 2 -201z" />
    <glyph glyph-name="uni00AD" unicode="&#xad;" horiz-adv-x="313" 
d="M256 316v-30q-33 1 -100 1q-66 0 -99 -1v30q66 -2 99 -2q34 0 100 2z" />
    <glyph glyph-name="registered" unicode="&#xae;" horiz-adv-x="877" 
d="M838 367q0 -166 -117 -282.5t-283 -116.5t-282.5 116.5t-116.5 282.5t116.5 283t282.5 117t283 -117t117 -283zM803 367q0 151 -106.5 258t-258.5 107q-151 0 -257.5 -106.5t-106.5 -258.5q0 -151 106 -257.5t258 -106.5t258.5 106.5t106.5 257.5zM649 110v-4
q-7 -1 -29 -1q-56 2 -80.5 27.5t-88.5 145.5q-30 57 -40 66h-37v-166q0 -41 7 -51.5t29 -14.5v-5q-6 0 -28 0.5t-35 0.5q-15 0 -41 -0.5t-33 -0.5v5q23 4 30 14.5t7 51.5v385q0 36 -7 49.5t-28 16.5v6q25 -1 80 -1q12 0 40 0.5t35 0.5q81 0 126.5 -40t45.5 -105
q0 -49 -32 -87t-94 -52q8 -7 38 -63.5t67.5 -111.5t67.5 -66zM374 369h35q122 0 122 112q0 53 -28.5 90t-76.5 37q-28 0 -52 -7v-232z" />
    <glyph glyph-name="macron" unicode="&#xaf;" horiz-adv-x="333" 
d="M303 580v-30q-46 1 -137 1t-136 -1v30q90 -2 136 -2q45 0 137 2z" />
    <glyph glyph-name="degree" unicode="&#xb0;" horiz-adv-x="314" 
d="M283 574q0 -52 -37 -88.5t-89 -36.5t-89 36.5t-37 88.5t36.5 89t89.5 37t89.5 -37t36.5 -89zM250 574q0 39 -27 66t-66 27t-66 -27t-27 -66t27 -65.5t66 -26.5t66 26.5t27 65.5z" />
    <glyph glyph-name="plusminus" unicode="&#xb1;" horiz-adv-x="511" 
d="M270 152h-30q1 36 1 172q-136 0 -171 -1v30q72 -2 171 -2q0 136 -1 172h30q-2 -72 -2 -172q99 0 173 2v-30q-37 1 -173 1q0 -100 2 -172zM441 109v-30q-39 1 -186 1t-185 -1v30q76 -2 185 -2q108 0 186 2z" />
    <glyph glyph-name="acute" unicode="&#xb4;" horiz-adv-x="333" 
d="M273 643l-162 -121l-11 9l135 152z" />
    <glyph glyph-name="mu" unicode="&#xb5;" horiz-adv-x="576" 
d="M533 46l2 -5q-10 -16 -17 -25t-22 -17.5t-33 -8.5q-56 0 -56 92q-23 -40 -66 -66t-88 -26q-66 0 -100 70q0 -36 3.5 -117t3.5 -99q0 -22 -2 -35t-10 -24t-24 -11q-24 0 -31.5 18t-7.5 52q0 24 2.5 66.5t5 161t2.5 327.5q0 27 -9.5 38t-39.5 16v5q82 5 113 22v-312
q0 -80 26.5 -115.5t85.5 -35.5q91 0 136 89v293q0 29 -7.5 39t-36.5 15v5q76 5 108 22v-385q0 -16 0.5 -24t2.5 -19.5t8 -17t15 -5.5q18 0 36 17z" />
    <glyph glyph-name="paragraph" unicode="&#xb6;" horiz-adv-x="693" 
d="M623 4v-5q-42 2 -83 2q-37 0 -81 -2v5q21 3 30 8.5t14.5 24.5t5.5 58v466q0 55 -9 75.5t-33 20.5q-26 0 -36.5 -20.5t-10.5 -75.5v-591q0 -39 5.5 -58t14.5 -24.5t30 -8.5v-5q-44 2 -87 2q-45 0 -87 -2v5q21 3 30 8.5t14.5 24.5t5.5 58v678q-33 10 -70 10
q-76 0 -118 -51.5t-42 -139.5q0 -74 34 -120t100 -46q36 0 61 14l4 -8q-29 -23 -79 -23q-93 0 -147.5 60t-54.5 140q0 88 60 142.5t183 54.5q1 0 75 -1t188 -1q41 0 83 2v-5q-21 -3 -30 -8.5t-14.5 -24.5t-5.5 -58v-490q0 -39 5.5 -58t14.5 -24.5t30 -8.5z" />
    <glyph glyph-name="periodcentered" unicode="&#xb7;" horiz-adv-x="187" 
d="M130 363q0 -14 -11 -24.5t-27 -10.5q-14 0 -24.5 10.5t-10.5 24.5q0 16 10.5 27t24.5 11q16 0 27 -10.5t11 -27.5z" />
    <glyph glyph-name="cedilla" unicode="&#xb8;" horiz-adv-x="248" 
d="M50 -145h3q16 -28 53 -28q22 0 37 13t15 37q0 19 -12.5 33t-31.5 14q-22 0 -42 -18h-2l46 99h13l-23 -62q12 4 25 4q28 0 47.5 -19t19.5 -50q0 -33 -24 -53t-55 -20q-25 0 -44 13t-25 37z" />
    <glyph glyph-name="ordmasculine" unicode="&#xba;" horiz-adv-x="467" 
d="M376 228h-290v20h290v-20zM238 319q-86 0 -137.5 45t-51.5 140q0 92 55 142t132 50q76 0 130.5 -51t54.5 -141q0 -85 -52.5 -135t-130.5 -50zM234 335q64 0 88 45t24 131q0 85 -26.5 126.5t-89.5 41.5q-107 0 -107 -183q0 -80 25 -120.5t86 -40.5z" />
    <glyph glyph-name="guillemotright" unicode="&#xbb;" horiz-adv-x="410" 
d="M223 225l-167 -133v27l115 120l-115 119v27l167 -133v-27zM383 225l-167 -133v27l115 120l-115 119v27l167 -133v-27z" />
    <glyph glyph-name="questiondown" unicode="&#xbf;" horiz-adv-x="453" 
d="M238 348h8q0 -52 -14.5 -92t-35.5 -66l-42.5 -50.5t-36 -60t-14.5 -80.5q0 -79 46.5 -121t110.5 -42q56 0 96.5 33t40.5 89q0 44 -27 76.5t-71 32.5q-22 0 -42 -4q22 31 24 51q69 -14 106.5 -62t37.5 -108q0 -78 -53.5 -121.5t-128.5 -43.5q-81 0 -141 50t-60 140
q0 51 20 92t49 70l58 57.5t49 69t20 90.5zM243 442q-17 0 -27.5 11t-10.5 27q0 14 11 24.5t27 10.5q14 0 24.5 -10.5t10.5 -24.5q0 -16 -10.5 -27t-24.5 -11z" />
    <glyph glyph-name="Agrave" unicode="&#xc0;" horiz-adv-x="582" 
d="M578 3v-5q-42 2 -87 2t-89 -2v5q44 3 44 35q0 12 -12 52l-59 188h-115q-71 0 -106 -1l-60 -162q-17 -47 -17 -68q0 -39 46 -44v-5q-44 2 -93 2q-26 0 -68 -2v5q40 9 59.5 32.5t50.5 105.5l226 601h10l210 -664q16 -49 24 -60t36 -15zM366 307l-92 296l-109 -295
q32 -1 95 -1h106zM357 780l-11 -9l-162 121l38 40z" />
    <glyph glyph-name="Aacute" unicode="&#xc1;" horiz-adv-x="582" 
d="M578 3v-5q-42 2 -87 2t-89 -2v5q44 3 44 35q0 12 -12 52l-59 188h-115q-71 0 -106 -1l-60 -162q-17 -47 -17 -68q0 -39 46 -44v-5q-44 2 -93 2q-26 0 -68 -2v5q40 9 59.5 32.5t50.5 105.5l226 601h10l210 -664q16 -49 24 -60t36 -15zM366 307l-92 296l-109 -295
q32 -1 95 -1h106zM397 893l-162 -121l-11 9l135 152z" />
    <glyph glyph-name="Acircumflex" unicode="&#xc2;" horiz-adv-x="582" 
d="M578 3v-5q-42 2 -87 2t-89 -2v5q44 3 44 35q0 12 -12 52l-59 188h-115q-71 0 -106 -1l-60 -162q-17 -47 -17 -68q0 -39 46 -44v-5q-44 2 -93 2q-26 0 -68 -2v5q40 9 59.5 32.5t50.5 105.5l226 601h10l210 -664q16 -49 24 -60t36 -15zM366 307l-92 296l-109 -295
q32 -1 95 -1h106zM451 766h-27l-120 115l-119 -115h-27l133 167h27z" />
    <glyph glyph-name="Atilde" unicode="&#xc3;" horiz-adv-x="582" 
d="M578 3v-5q-42 2 -87 2t-89 -2v5q44 3 44 35q0 12 -12 52l-59 188h-115q-71 0 -106 -1l-60 -162q-17 -47 -17 -68q0 -39 46 -44v-5q-44 2 -93 2q-26 0 -68 -2v5q40 9 59.5 32.5t50.5 105.5l226 601h10l210 -664q16 -49 24 -60t36 -15zM366 307l-92 296l-109 -295
q32 -1 95 -1h106zM441 867h9q-5 -31 -27.5 -59t-61.5 -28q-25 0 -68 23t-69 23q-23 0 -33.5 -9.5t-19.5 -36.5h-10q6 36 29 59.5t55 23.5q25 0 69 -23t70 -23q42 0 57 50z" />
    <glyph glyph-name="Adieresis" unicode="&#xc4;" horiz-adv-x="582" 
d="M214 707q0 -14 -11 -24.5t-25 -10.5t-24.5 10.5t-10.5 24.5t10.5 24.5t24.5 10.5t25 -10.5t11 -24.5zM426 672q-14 0 -25 10.5t-11 24.5t11 24.5t25 10.5t24.5 -11t10.5 -24t-10.5 -24t-24.5 -11zM578 3v-5q-42 2 -87 2t-89 -2v5q44 3 44 35q0 12 -12 52l-59 188h-115
q-71 0 -106 -1l-60 -162q-17 -47 -17 -68q0 -39 46 -44v-5q-44 2 -93 2q-26 0 -68 -2v5q40 9 59.5 32.5t50.5 105.5l226 601h10l210 -664q16 -49 24 -60t36 -15zM366 307l-92 296l-109 -295q32 -1 95 -1h106z" />
    <glyph glyph-name="Aring" unicode="&#xc5;" horiz-adv-x="582" 
d="M578 3v-5q-42 2 -87 2t-89 -2v5q44 3 44 35q0 12 -12 52l-59 188h-115q-71 0 -106 -1l-60 -162q-17 -47 -17 -68q0 -39 46 -44v-5q-44 2 -93 2q-26 0 -68 -2v5q40 9 59.5 32.5t50.5 105.5l226 601h10l210 -664q16 -49 24 -60t36 -15zM366 307l-92 296l-109 -295
q32 -1 95 -1h106zM386 845q0 -34 -24.5 -58.5t-59.5 -24.5q-34 0 -58.5 24t-24.5 59t24.5 59t59.5 24q34 0 58.5 -24.5t24.5 -58.5zM359 845q0 23 -16.5 39t-39.5 16t-39.5 -16t-16.5 -39t16.5 -39t38.5 -16q24 0 40.5 16t16.5 39z" />
    <glyph glyph-name="AE" unicode="&#xc6;" horiz-adv-x="882" 
d="M843 129h5q-1 -46 -3.5 -79.5t-2.5 -52.5q-93 3 -206 3q-159 0 -201 -2v5q36 6 46.5 23t10.5 68v184h-121q-79 0 -118 -1l-111 -162q-27 -40 -34 -53.5t-7 -29.5q0 -25 34 -29l-1 -5q-44 2 -93 2q-52 0 -73 -2l1 5q43 9 70 32.5t84 105.5l367 530q-4 29 -16 37.5
t-42 13.5v5q32 -2 128 -2q233 0 278 2q0 -2 0.5 -17.5t0.5 -24.5q0 -57 -6 -82h-5q0 64 -31 78t-147 14q-62 0 -84 -6v-298q54 0 79 0.5t52.5 3.5t37 6.5t20 13.5t13.5 21t7 32h5q-2 -62 -2 -93q0 -34 2 -102h-5q-4 24 -7 36.5t-13.5 24t-19.5 16t-37 7.5t-53 3.5t-79 0.5
v-325q16 -6 85 -6q48 0 68 0.5t47 3.5t35 8t19.5 17.5t15 28t7.5 41.5zM492 307v320l-218 -319q32 -1 97 -1h121z" />
    <glyph glyph-name="Ccedilla" unicode="&#xc7;" horiz-adv-x="726" 
d="M680 161h5q-6 -43 -6 -107q-126 -62 -245 -64l-17 -47q12 4 25 4q28 0 47.5 -19t19.5 -50q0 -33 -24 -53t-55 -20q-25 0 -44 13t-25 37h3q16 -28 53 -28q22 0 37 13t15 37q0 19 -12.5 33t-31.5 14q-22 0 -42 -18h-2l39 84q-91 1 -165 33t-120.5 84t-71.5 117t-25 135
t24.5 136t70 119.5t120 85.5t165.5 32q21 0 42.5 -1.5t43.5 -5t38 -6.5t39.5 -9l33.5 -8.5t34.5 -10t29.5 -8.5q-3 -39 -3 -95q0 -10 0.5 -23t0.5 -15h-5q-7 77 -76 118.5t-174 41.5q-60 0 -112 -21t-93 -63t-64.5 -111.5t-23.5 -159.5q0 -87 28 -154.5t74.5 -107t101 -59.5
t112.5 -20q80 0 147 37.5t88 109.5z" />
    <glyph glyph-name="Egrave" unicode="&#xc8;" horiz-adv-x="493" 
d="M454 129h5q-1 -46 -3.5 -79.5t-2.5 -52.5q-93 3 -206 3q-159 0 -201 -2v5q36 6 46.5 23t10.5 68v537q0 56 -11.5 70.5t-48.5 20.5v5q40 -2 128 -2q233 0 278 2q0 -2 0.5 -17.5t0.5 -24.5q0 -57 -6 -82h-5q0 64 -31 78t-147 14q-61 0 -84 -6v-298q54 0 79 0.5t52.5 3.5
t37 6.5t20 13.5t13.5 21t7 32h5q-2 -62 -2 -93q0 -34 2 -102h-5q-4 24 -7 36.5t-13.5 24t-19.5 16t-37 7.5t-53 3.5t-79 0.5v-325q16 -6 85 -6q48 0 68 0.5t47 3.5t35 8t19.5 17.5t15 28t7.5 41.5zM327 780l-11 -9l-162 121l38 40z" />
    <glyph glyph-name="Eacute" unicode="&#xc9;" horiz-adv-x="493" 
d="M454 129h5q-1 -46 -3.5 -79.5t-2.5 -52.5q-93 3 -206 3q-159 0 -201 -2v5q36 6 46.5 23t10.5 68v537q0 56 -11.5 70.5t-48.5 20.5v5q40 -2 128 -2q233 0 278 2q0 -2 0.5 -17.5t0.5 -24.5q0 -57 -6 -82h-5q0 64 -31 78t-147 14q-61 0 -84 -6v-298q54 0 79 0.5t52.5 3.5
t37 6.5t20 13.5t13.5 21t7 32h5q-2 -62 -2 -93q0 -34 2 -102h-5q-4 24 -7 36.5t-13.5 24t-19.5 16t-37 7.5t-53 3.5t-79 0.5v-325q16 -6 85 -6q48 0 68 0.5t47 3.5t35 8t19.5 17.5t15 28t7.5 41.5zM387 893l-162 -121l-11 9l135 152z" />
    <glyph glyph-name="Ecircumflex" unicode="&#xca;" horiz-adv-x="493" 
d="M454 129h5q-1 -46 -3.5 -79.5t-2.5 -52.5q-93 3 -206 3q-159 0 -201 -2v5q36 6 46.5 23t10.5 68v537q0 56 -11.5 70.5t-48.5 20.5v5q40 -2 128 -2q233 0 278 2q0 -2 0.5 -17.5t0.5 -24.5q0 -57 -6 -82h-5q0 64 -31 78t-147 14q-61 0 -84 -6v-298q54 0 79 0.5t52.5 3.5
t37 6.5t20 13.5t13.5 21t7 32h5q-2 -62 -2 -93q0 -34 2 -102h-5q-4 24 -7 36.5t-13.5 24t-19.5 16t-37 7.5t-53 3.5t-79 0.5v-325q16 -6 85 -6q48 0 68 0.5t47 3.5t35 8t19.5 17.5t15 28t7.5 41.5zM427 780h-27l-120 115l-119 -115h-27l133 167h27z" />
    <glyph glyph-name="Edieresis" unicode="&#xcb;" horiz-adv-x="493" 
d="M454 129h5q-1 -46 -3.5 -79.5t-2.5 -52.5q-93 3 -206 3q-159 0 -201 -2v5q36 6 46.5 23t10.5 68v537q0 56 -11.5 70.5t-48.5 20.5v5q40 -2 128 -2q233 0 278 2q0 -2 0.5 -17.5t0.5 -24.5q0 -57 -6 -82h-5q0 64 -31 78t-147 14q-61 0 -84 -6v-298q54 0 79 0.5t52.5 3.5
t37 6.5t20 13.5t13.5 21t7 32h5q-2 -62 -2 -93q0 -34 2 -102h-5q-4 24 -7 36.5t-13.5 24t-19.5 16t-37 7.5t-53 3.5t-79 0.5v-325q16 -6 85 -6q48 0 68 0.5t47 3.5t35 8t19.5 17.5t15 28t7.5 41.5zM241 815q0 -14 -11 -24.5t-25 -10.5t-24.5 10.5t-10.5 24.5t10.5 24.5
t24.5 10.5t25 -10.5t11 -24.5zM333 780q-14 0 -25 10.5t-11 24.5t11 24.5t25 10.5q13 0 24 -11t11 -24t-11 -24t-24 -11z" />
    <glyph glyph-name="Igrave" unicode="&#xcc;" horiz-adv-x="278" 
d="M226 3v-5q-42 2 -87 2q-43 0 -87 -2v5q21 3 30 8.5t14.5 24.5t5.5 58v537q0 39 -5.5 58t-14.5 24.5t-30 8.5v5q44 -2 87 -2q45 0 87 2v-5q-21 -3 -30 -8.5t-14.5 -24.5t-5.5 -58v-537q0 -39 5.5 -58t14.5 -24.5t30 -8.5zM176 780l-11 -9l-162 121l38 40z" />
    <glyph glyph-name="Iacute" unicode="&#xcd;" horiz-adv-x="278" 
d="M226 3v-5q-42 2 -87 2q-43 0 -87 -2v5q21 3 30 8.5t14.5 24.5t5.5 58v537q0 39 -5.5 58t-14.5 24.5t-30 8.5v5q44 -2 87 -2q45 0 87 2v-5q-21 -3 -30 -8.5t-14.5 -24.5t-5.5 -58v-537q0 -39 5.5 -58t14.5 -24.5t30 -8.5zM278 893l-162 -121l-11 9l135 152z" />
    <glyph glyph-name="Icircumflex" unicode="&#xce;" horiz-adv-x="278" 
d="M226 3v-5q-42 2 -87 2q-43 0 -87 -2v5q21 3 30 8.5t14.5 24.5t5.5 58v537q0 39 -5.5 58t-14.5 24.5t-30 8.5v5q44 -2 87 -2q45 0 87 2v-5q-21 -3 -30 -8.5t-14.5 -24.5t-5.5 -58v-537q0 -39 5.5 -58t14.5 -24.5t30 -8.5zM286 780h-27l-120 115l-119 -115h-27l133 167h27z
" />
    <glyph glyph-name="Idieresis" unicode="&#xcf;" horiz-adv-x="278" 
d="M226 3v-5q-42 2 -87 2q-43 0 -87 -2v5q21 3 30 8.5t14.5 24.5t5.5 58v537q0 39 -5.5 58t-14.5 24.5t-30 8.5v5q44 -2 87 -2q45 0 87 2v-5q-21 -3 -30 -8.5t-14.5 -24.5t-5.5 -58v-537q0 -39 5.5 -58t14.5 -24.5t30 -8.5zM111 815q0 -14 -11 -24.5t-25 -10.5t-24.5 10.5
t-10.5 24.5t10.5 24.5t24.5 10.5t25 -10.5t11 -24.5zM203 780q-14 0 -25 10.5t-11 24.5t11 24.5t25 10.5q13 0 24 -11t11 -24t-11 -24t-24 -11z" />
    <glyph glyph-name="Eth" unicode="&#xd0;" horiz-adv-x="768" 
d="M32 -2v5q24 4 33.5 6.5t20.5 11.5t14 26t3 47v254q-9 0 -25 -0.5t-24 -0.5v30q16 -1 49 -1v255q0 29 -4 46.5t-16 26.5t-20 11.5t-30 6.5v5q44 -2 95 -2q33 0 83.5 0.5t74.5 0.5q207 0 325 -97.5t118 -271.5q0 -156 -98.5 -258t-287.5 -102q-25 0 -98.5 1.5t-104.5 1.5
q-64 0 -108 -2zM373 377v-30q-53 1 -160 1h-36v-313q78 -14 165 -14q67 0 119.5 16.5t95 54t65.5 106t23 165.5q0 174 -97 256.5t-256 82.5q-69 0 -115 -11v-316h36q54 0 160 2z" />
    <glyph glyph-name="Ntilde" unicode="&#xd1;" horiz-adv-x="814" 
d="M708 -22h-5l-568 632v-90q0 -373 9 -438q8 -54 32 -68q7 -4 28 -11v-5q-44 2 -85 2q-37 0 -79 -2v5q32 12 41 26q19 29 22 179q2 76 2 313v221h7l566 -629v89q0 379 -10 446q-8 51 -33 64q-6 4 -23 9q-2 1 -3 1v5q44 -2 85 -2t83 2v-5q-33 -11 -43 -24q-20 -28 -24 -171
q-2 -79 -2 -319v-230zM542 867h9q-5 -31 -27.5 -59t-61.5 -28q-25 0 -68 23t-69 23q-23 0 -33.5 -9.5t-19.5 -36.5h-10q6 36 29 59.5t55 23.5q25 0 69 -23t70 -23q42 0 57 50z" />
    <glyph glyph-name="Ograve" unicode="&#xd2;" 
d="M396 -10q-159 0 -258.5 110t-99.5 256q0 96 43 181t128.5 140t194.5 55q148 0 252 -107t104 -266q0 -154 -104.5 -261.5t-259.5 -107.5zM396 13q120 0 196 87t76 253q0 177 -80 267t-192 90q-52 0 -98 -20.5t-84 -61t-60.5 -110t-22.5 -159.5q0 -172 74 -259t191 -87z
M485 780l-11 -9l-162 121l38 40z" />
    <glyph glyph-name="Oacute" unicode="&#xd3;" 
d="M396 -10q-159 0 -258.5 110t-99.5 256q0 96 43 181t128.5 140t194.5 55q148 0 252 -107t104 -266q0 -154 -104.5 -261.5t-259.5 -107.5zM396 13q120 0 196 87t76 253q0 177 -80 267t-192 90q-52 0 -98 -20.5t-84 -61t-60.5 -110t-22.5 -159.5q0 -172 74 -259t191 -87z
M485 893l-162 -121l-11 9l135 152z" />
    <glyph glyph-name="Ocircumflex" unicode="&#xd4;" 
d="M396 -10q-159 0 -258.5 110t-99.5 256q0 96 43 181t128.5 140t194.5 55q148 0 252 -107t104 -266q0 -154 -104.5 -261.5t-259.5 -107.5zM396 13q120 0 196 87t76 253q0 177 -80 267t-192 90q-52 0 -98 -20.5t-84 -61t-60.5 -110t-22.5 -159.5q0 -172 74 -259t191 -87z
M545 768h-27l-120 115l-119 -115h-27l133 167h27z" />
    <glyph glyph-name="Otilde" unicode="&#xd5;" 
d="M396 -10q-159 0 -258.5 110t-99.5 256q0 96 43 181t128.5 140t194.5 55q148 0 252 -107t104 -266q0 -154 -104.5 -261.5t-259.5 -107.5zM396 13q120 0 196 87t76 253q0 177 -80 267t-192 90q-52 0 -98 -20.5t-84 -61t-60.5 -110t-22.5 -159.5q0 -172 74 -259t191 -87z
M534 867h9q-5 -31 -27.5 -59t-61.5 -28q-25 0 -68 23t-69 23q-23 0 -33.5 -9.5t-19.5 -36.5h-10q6 36 29 59.5t55 23.5q25 0 69 -23t70 -23q42 0 57 50z" />
    <glyph glyph-name="Odieresis" unicode="&#xd6;" 
d="M141 693q0 -14 -11 -24.5t-25 -10.5t-24.5 10.5t-10.5 24.5t10.5 24.5t24.5 10.5t25 -10.5t11 -24.5zM693 658q-14 0 -25 10.5t-11 24.5t11 24.5t25 10.5q13 0 24 -11t11 -24t-11 -24t-24 -11zM396 -10q-159 0 -258.5 110t-99.5 256q0 96 43 181t128.5 140t194.5 55
q148 0 252 -107t104 -266q0 -154 -104.5 -261.5t-259.5 -107.5zM396 13q120 0 196 87t76 253q0 177 -80 267t-192 90q-52 0 -98 -20.5t-84 -61t-60.5 -110t-22.5 -159.5q0 -172 74 -259t191 -87z" />
    <glyph glyph-name="multiply" unicode="&#xd7;" horiz-adv-x="414" 
d="M328 160l-122 123l-120 -123l-21 21l122 120l-122 121l21 21l120 -122l121 122l21 -21l-123 -120q83 -83 124 -121z" />
    <glyph glyph-name="Oslash" unicode="&#xd8;" 
d="M248 -46h-31l28 68q-96 44 -151.5 136t-55.5 198q0 96 43 181t128.5 140t194.5 55q62 0 122 -22l24 57h31l-28 -68q94 -45 150.5 -135t56.5 -205q0 -154 -104.5 -261.5t-259.5 -107.5q-64 0 -125 21zM257 52l257 628q-55 30 -118 30q-52 0 -98 -20.5t-84 -61t-60.5 -110
t-22.5 -159.5q0 -224 126 -307zM539 665l-257 -627q51 -25 114 -25q120 0 196 87t76 253q0 221 -129 312z" />
    <glyph glyph-name="Ugrave" unicode="&#xd9;" horiz-adv-x="684" 
d="M560 260v328q0 44 -2 67t-13.5 37t-21 17.5t-38.5 11.5v5q44 -2 91 -2q41 0 83 2v-5q-33 -9 -44.5 -16.5t-18 -32.5t-6.5 -83v-315q0 -165 -69 -228q-68 -62 -171 -62q-116 0 -182 52q-80 62 -80 223v372q0 39 -5.5 58t-14.5 24.5t-30 8.5v5q44 -2 87 -2q52 0 94 2v-5
q-33 -4 -45 -19.5t-12 -71.5v-361q0 -154 50 -201q56 -53 142 -53q91 0 143 52q63 62 63 192zM395 780l-11 -9l-162 121l38 40z" />
    <glyph glyph-name="Uacute" unicode="&#xda;" horiz-adv-x="684" 
d="M560 260v328q0 44 -2 67t-13.5 37t-21 17.5t-38.5 11.5v5q44 -2 91 -2q41 0 83 2v-5q-33 -9 -44.5 -16.5t-18 -32.5t-6.5 -83v-315q0 -165 -69 -228q-68 -62 -171 -62q-116 0 -182 52q-80 62 -80 223v372q0 39 -5.5 58t-14.5 24.5t-30 8.5v5q44 -2 87 -2q52 0 94 2v-5
q-33 -4 -45 -19.5t-12 -71.5v-361q0 -154 50 -201q56 -53 142 -53q91 0 143 52q63 62 63 192zM485 893l-162 -121l-11 9l135 152z" />
    <glyph glyph-name="Ucircumflex" unicode="&#xdb;" horiz-adv-x="684" 
d="M560 260v328q0 44 -2 67t-13.5 37t-21 17.5t-38.5 11.5v5q44 -2 91 -2q41 0 83 2v-5q-33 -9 -44.5 -16.5t-18 -32.5t-6.5 -83v-315q0 -165 -69 -228q-68 -62 -171 -62q-116 0 -182 52q-80 62 -80 223v372q0 39 -5.5 58t-14.5 24.5t-30 8.5v5q44 -2 87 -2q52 0 94 2v-5
q-33 -4 -45 -19.5t-12 -71.5v-361q0 -154 50 -201q56 -53 142 -53q91 0 143 52q63 62 63 192zM503 767h-27l-120 115l-119 -115h-27l133 167h27z" />
    <glyph glyph-name="Udieresis" unicode="&#xdc;" horiz-adv-x="684" 
d="M560 260v328q0 44 -2 67t-13.5 37t-21 17.5t-38.5 11.5v5q44 -2 91 -2q41 0 83 2v-5q-33 -9 -44.5 -16.5t-18 -32.5t-6.5 -83v-315q0 -165 -69 -228q-68 -62 -171 -62q-116 0 -182 52q-80 62 -80 223v372q0 39 -5.5 58t-14.5 24.5t-30 8.5v5q44 -2 87 -2q52 0 94 2v-5
q-33 -4 -45 -19.5t-12 -71.5v-361q0 -154 50 -201q56 -53 142 -53q91 0 143 52q63 62 63 192zM331 635q0 -14 -11 -24.5t-25 -10.5t-24.5 10.5t-10.5 24.5t10.5 24.5t24.5 10.5t25 -10.5t11 -24.5zM423 600q-14 0 -25 10.5t-11 24.5t11 24.5t25 10.5q13 0 24 -11t11 -24
t-11 -24t-24 -11z" />
    <glyph glyph-name="Yacute" unicode="&#xdd;" horiz-adv-x="577" 
d="M440 893l-162 -121l-11 9l135 152zM375 3v-5q-42 2 -87 2q-43 0 -87 -2v5q31 6 40.5 20.5t9.5 70.5v150l-201 403q-20 40 -33 54.5t-40 20.5v5q42 -2 100 -2q45 0 89 2v-5q-45 -6 -45 -32q0 -18 19 -55l168 -341l124 241q5 11 15 29q44 86 47 107q1 7 1 15q0 29 -41 36v5
q44 -2 73 -2q34 0 76 2v-5q-30 -6 -43 -23t-60 -107l-37 -70l-138 -263v-165q0 -56 9.5 -70.5t40.5 -20.5z" />
    <glyph glyph-name="Thorn" unicode="&#xde;" horiz-adv-x="503" 
d="M226 3v-5q-42 2 -87 2q-43 0 -87 -2v5q21 3 30 8.5t14.5 24.5t5.5 58v537q0 39 -5.5 58t-14.5 24.5t-30 8.5v5q44 -2 87 -2q45 0 87 2v-5q-21 -3 -30 -8.5t-14.5 -24.5t-5.5 -58v-76q58 7 69 7q123 0 183 -54.5t60 -142.5q0 -80 -54.5 -140t-147.5 -60q-50 0 -79 23l4 8
q25 -14 61 -14q66 0 100 46t34 120q0 88 -42 139.5t-118 51.5q-37 0 -70 -10v-435q0 -39 5.5 -58t14.5 -24.5t30 -8.5z" />
    <glyph glyph-name="germandbls" unicode="&#xdf;" horiz-adv-x="490" 
d="M179 3v-5q-44 2 -75 2t-75 -2v5q25 5 34 20t9 71v360h-17v3l17 17q0 45 3 80t14.5 77t30.5 69.5t54.5 46.5t83.5 19q51 0 86 -33t35 -90q0 -37 -18.5 -73.5t-40 -60.5t-40 -54t-18.5 -57q0 -26 15.5 -48.5t39 -38.5l51 -35t51 -37.5t39 -47t15.5 -62.5q0 -59 -38 -99
t-103 -40q-56 0 -116 32q3 14 5 55.5t7 63.5h5q-1 -6 -1 -19q0 -51 25 -84.5t75 -33.5q36 0 54.5 30.5t18.5 72.5q0 29 -18.5 55t-44.5 47.5l-52 44.5t-44.5 55t-18.5 70q0 24 13.5 53.5t30.5 55t30.5 67.5t13.5 88q0 106 -64 106q-49 0 -82 -53.5t-33 -173.5v-428
q0 -56 9 -71t34 -20z" />
    <glyph glyph-name="agrave" unicode="&#xe0;" horiz-adv-x="444" 
d="M431 46l2 -5q-32 -51 -72 -51q-26 0 -41 17.5t-15 45.5q-65 -63 -149 -63q-61 0 -94.5 32t-33.5 78q0 54 44.5 90.5t116.5 36.5q69 0 116 -33v169q0 49 -21 74t-70 25q-45 0 -79.5 -33t-36.5 -93h-51q10 66 59.5 105t115.5 39q147 0 147 -130v-263q0 -31 6.5 -43.5
t22.5 -12.5q17 0 33 15zM305 73v103q-34 32 -96 32q-51 0 -80 -30.5t-29 -71.5q0 -36 24 -62t67 -26q66 0 114 55zM274 530l-11 -9l-162 121l38 40z" />
    <glyph glyph-name="aacute" unicode="&#xe1;" horiz-adv-x="444" 
d="M431 46l2 -5q-32 -51 -72 -51q-26 0 -41 17.5t-15 45.5q-65 -63 -149 -63q-61 0 -94.5 32t-33.5 78q0 54 44.5 90.5t116.5 36.5q69 0 116 -33v169q0 49 -21 74t-70 25q-45 0 -79.5 -33t-36.5 -93h-51q10 66 59.5 105t115.5 39q147 0 147 -130v-263q0 -31 6.5 -43.5
t22.5 -12.5q17 0 33 15zM305 73v103q-34 32 -96 32q-51 0 -80 -30.5t-29 -71.5q0 -36 24 -62t67 -26q66 0 114 55zM335 643l-162 -121l-11 9l135 152z" />
    <glyph glyph-name="acircumflex" unicode="&#xe2;" horiz-adv-x="444" 
d="M431 46l2 -5q-32 -51 -72 -51q-26 0 -41 17.5t-15 45.5q-65 -63 -149 -63q-61 0 -94.5 32t-33.5 78q0 54 44.5 90.5t116.5 36.5q69 0 116 -33v169q0 49 -21 74t-70 25q-45 0 -79.5 -33t-36.5 -93h-51q10 66 59.5 105t115.5 39q147 0 147 -130v-263q0 -31 6.5 -43.5
t22.5 -12.5q17 0 33 15zM305 73v103q-34 32 -96 32q-51 0 -80 -30.5t-29 -71.5q0 -36 24 -62t67 -26q66 0 114 55zM363 530h-27l-120 115l-119 -115h-27l133 167h27z" />
    <glyph glyph-name="atilde" unicode="&#xe3;" horiz-adv-x="444" 
d="M431 46l2 -5q-32 -51 -72 -51q-26 0 -41 17.5t-15 45.5q-65 -63 -149 -63q-61 0 -94.5 32t-33.5 78q0 54 44.5 90.5t116.5 36.5q69 0 116 -33v169q0 49 -21 74t-70 25q-45 0 -79.5 -33t-36.5 -93h-51q10 66 59.5 105t115.5 39q147 0 147 -130v-263q0 -31 6.5 -43.5
t22.5 -12.5q17 0 33 15zM305 73v103q-34 32 -96 32q-51 0 -80 -30.5t-29 -71.5q0 -36 24 -62t67 -26q66 0 114 55zM352 617h9q-5 -31 -27.5 -59t-61.5 -28q-25 0 -68 23t-69 23q-23 0 -33.5 -9.5t-19.5 -36.5h-10q6 36 29 59.5t55 23.5q25 0 69 -23t70 -23q42 0 57 50z" />
    <glyph glyph-name="adieresis" unicode="&#xe4;" horiz-adv-x="444" 
d="M431 46l2 -5q-32 -51 -72 -51q-26 0 -41 17.5t-15 45.5q-65 -63 -149 -63q-61 0 -94.5 32t-33.5 78q0 54 44.5 90.5t116.5 36.5q69 0 116 -33v169q0 49 -21 74t-70 25q-45 0 -79.5 -33t-36.5 -93h-51q10 66 59.5 105t115.5 39q147 0 147 -130v-263q0 -31 6.5 -43.5
t22.5 -12.5q17 0 33 15zM305 73v103q-34 32 -96 32q-51 0 -80 -30.5t-29 -71.5q0 -36 24 -62t67 -26q66 0 114 55zM188 565q0 -14 -11 -24.5t-25 -10.5t-24.5 10.5t-10.5 24.5t10.5 24.5t24.5 10.5t25 -10.5t11 -24.5zM280 530q-14 0 -25 10.5t-11 24.5t11 24.5t25 10.5
t24.5 -11t10.5 -24t-10.5 -24t-24.5 -11z" />
    <glyph glyph-name="aring" unicode="&#xe5;" horiz-adv-x="444" 
d="M431 46l2 -5q-32 -51 -72 -51q-26 0 -41 17.5t-15 45.5q-65 -63 -149 -63q-61 0 -94.5 32t-33.5 78q0 54 44.5 90.5t116.5 36.5q69 0 116 -33v169q0 49 -21 74t-70 25q-45 0 -79.5 -33t-36.5 -93h-51q10 66 59.5 105t115.5 39q147 0 147 -130v-263q0 -31 6.5 -43.5
t22.5 -12.5q17 0 33 15zM305 73v103q-34 32 -96 32q-51 0 -80 -30.5t-29 -71.5q0 -36 24 -62t67 -26q66 0 114 55zM302 595q0 -34 -24.5 -58.5t-59.5 -24.5q-34 0 -58.5 24t-24.5 59t24.5 59t59.5 24q34 0 58.5 -24.5t24.5 -58.5zM275 595q0 23 -16.5 39t-39.5 16t-39.5 -16
t-16.5 -39t16.5 -39t38.5 -16q24 0 40.5 16t16.5 39z" />
    <glyph glyph-name="ae" unicode="&#xe6;" horiz-adv-x="733" 
d="M702 72l4 -4q-63 -78 -166 -78q-134 0 -197 100q-86 -100 -187 -100q-61 0 -94.5 32t-33.5 78q0 54 44.5 90.5t116.5 36.5t116 -34q-3 37 -3 76q0 16 1.5 47.5t1.5 46.5q0 49 -21 74t-70 25q-45 0 -79.5 -33t-36.5 -93h-51q10 66 59.5 105t115.5 39q114 0 139 -78
q60 78 154 78q77 0 130.5 -50t53.5 -127h-314q-2 -20 -2 -34q0 -116 54.5 -181t142.5 -65q69 0 122 49zM335 103q-21 40 -27 70q-42 35 -99 35q-51 0 -80 -30.5t-29 -71.5q0 -36 24 -62t67 -26q77 0 144 85zM387 323h230q-3 68 -30.5 106t-73.5 38t-80.5 -39.5t-45.5 -104.5
z" />
    <glyph glyph-name="ccedilla" unicode="&#xe7;" horiz-adv-x="471" 
d="M432 72l4 -4q-63 -78 -166 -78l-17 -47q12 4 25 4q28 0 47.5 -19t19.5 -50q0 -33 -24 -53t-55 -20q-25 0 -44 13t-25 37h3q16 -28 53 -28q22 0 37 13t15 37q0 19 -12.5 33t-31.5 14q-22 0 -42 -18h-2l39 84q-107 5 -165 75t-58 165q0 104 65.5 177t183.5 73
q69 0 113.5 -28t53.5 -71h-72q-15 86 -101 86q-79 0 -119.5 -64.5t-40.5 -153.5q0 -109 50.5 -173t136.5 -64q74 0 129 60z" />
    <glyph glyph-name="egrave" unicode="&#xe8;" horiz-adv-x="464" 
d="M433 72l4 -4q-63 -78 -166 -78q-114 0 -176 72t-62 172q0 104 61 175t152 71q77 0 130.5 -50t53.5 -127h-314q-2 -20 -2 -34q0 -116 54.5 -181t142.5 -65q69 0 122 49zM118 323h230q-3 68 -30.5 106t-73.5 38t-80.5 -39.5t-45.5 -104.5zM308 530l-11 -9l-162 121l38 40z
" />
    <glyph glyph-name="eacute" unicode="&#xe9;" horiz-adv-x="464" 
d="M433 72l4 -4q-63 -78 -166 -78q-114 0 -176 72t-62 172q0 104 61 175t152 71q77 0 130.5 -50t53.5 -127h-314q-2 -20 -2 -34q0 -116 54.5 -181t142.5 -65q69 0 122 49zM118 323h230q-3 68 -30.5 106t-73.5 38t-80.5 -39.5t-45.5 -104.5zM359 643l-162 -121l-11 9l135 152
z" />
    <glyph glyph-name="ecircumflex" unicode="&#xea;" horiz-adv-x="464" 
d="M433 72l4 -4q-63 -78 -166 -78q-114 0 -176 72t-62 172q0 104 61 175t152 71q77 0 130.5 -50t53.5 -127h-314q-2 -20 -2 -34q0 -116 54.5 -181t142.5 -65q69 0 122 49zM118 323h230q-3 68 -30.5 106t-73.5 38t-80.5 -39.5t-45.5 -104.5zM395 530h-27l-120 115l-119 -115
h-27l133 167h27z" />
    <glyph glyph-name="edieresis" unicode="&#xeb;" horiz-adv-x="464" 
d="M433 72l4 -4q-63 -78 -166 -78q-114 0 -176 72t-62 172q0 104 61 175t152 71q77 0 130.5 -50t53.5 -127h-314q-2 -20 -2 -34q0 -116 54.5 -181t142.5 -65q69 0 122 49zM118 323h230q-3 68 -30.5 106t-73.5 38t-80.5 -39.5t-45.5 -104.5zM214 565q0 -14 -11 -24.5
t-25 -10.5t-24.5 10.5t-10.5 24.5t10.5 24.5t24.5 10.5t25 -10.5t11 -24.5zM306 530q-14 0 -25 10.5t-11 24.5t11 24.5t25 10.5t24.5 -11t10.5 -24t-10.5 -24t-24.5 -11z" />
    <glyph glyph-name="igrave" unicode="&#xec;" horiz-adv-x="211" 
d="M182 3v-5q-44 2 -75 2t-75 -2v5q25 5 34 20t9 71v300q0 29 -5 38.5t-26 15.5v5q55 4 95 22v-381q0 -56 9 -71t34 -20zM164 530l-11 -9l-162 121l38 40z" />
    <glyph glyph-name="iacute" unicode="&#xed;" horiz-adv-x="211" 
d="M182 3v-5q-44 2 -75 2t-75 -2v5q25 5 34 20t9 71v300q0 29 -5 38.5t-26 15.5v5q55 4 95 22v-381q0 -56 9 -71t34 -20zM214 643l-162 -121l-11 9l135 152z" />
    <glyph glyph-name="icircumflex" unicode="&#xee;" horiz-adv-x="211" 
d="M182 3v-5q-44 2 -75 2t-75 -2v5q25 5 34 20t9 71v300q0 29 -5 38.5t-26 15.5v5q55 4 95 22v-381q0 -56 9 -71t34 -20zM254 530h-27l-120 115l-119 -115h-27l133 167h27z" />
    <glyph glyph-name="idieresis" unicode="&#xef;" horiz-adv-x="211" 
d="M182 3v-5q-44 2 -75 2t-75 -2v5q25 5 34 20t9 71v300q0 29 -5 38.5t-26 15.5v5q55 4 95 22v-381q0 -56 9 -71t34 -20zM79 565q0 -14 -11 -24.5t-25 -10.5t-24.5 10.5t-10.5 24.5t10.5 24.5t24.5 10.5t25 -10.5t11 -24.5zM171 530q-14 0 -25 10.5t-11 24.5t11 24.5
t25 10.5q13 0 24 -11t11 -24t-11 -24t-24 -11z" />
    <glyph glyph-name="eth" unicode="&#xf0;" horiz-adv-x="566" 
d="M409 715l-62 -53q87 -62 132 -165.5t45 -213.5q0 -123 -64 -206t-183 -83q-114 0 -179 64t-65 176q0 107 69 176.5t173 69.5q74 0 138 -44q-29 130 -96 201l-58 -49l-13 15l57 48q-74 66 -186 73v9q122 -1 213 -59l68 56zM422 381q-54 85 -153 85q-76 0 -114.5 -57.5
t-38.5 -183.5q0 -218 157 -218q48 0 81 20t49 56t22 73t6 85q0 80 -9 140z" />
    <glyph glyph-name="ntilde" unicode="&#xf1;" horiz-adv-x="512" 
d="M489 3v-5q-44 2 -75 2t-75 -2v5q25 5 34 20t9 71v218q0 85 -33.5 116.5t-88.5 31.5q-64 0 -121 -41v-325q0 -56 9 -71t34 -20v-5q-44 2 -75 2t-75 -2v5q25 5 34 20t9 71v305q0 29 -5 38.5t-26 15.5v5q55 4 95 22v-40q64 40 146 40q161 0 161 -163v-223q0 -56 9 -71
t34 -20zM387 617h9q-5 -31 -27.5 -59t-61.5 -28q-25 0 -68 23t-69 23q-23 0 -33.5 -9.5t-19.5 -36.5h-10q6 36 29 59.5t55 23.5q25 0 69 -23t70 -23q42 0 57 50z" />
    <glyph glyph-name="ograve" unicode="&#xf2;" horiz-adv-x="547" 
d="M277 -6q-114 0 -179 64t-65 176q0 107 69 176.5t173 69.5t171.5 -70t67.5 -176q0 -101 -65 -170.5t-172 -69.5zM273 7q48 0 81 20t49 56t22 73t6 85q0 226 -163 226q-152 0 -152 -242q0 -218 157 -218zM319 530l-11 -9l-162 121l38 40z" />
    <glyph glyph-name="oacute" unicode="&#xf3;" horiz-adv-x="547" 
d="M277 -6q-114 0 -179 64t-65 176q0 107 69 176.5t173 69.5t171.5 -70t67.5 -176q0 -101 -65 -170.5t-172 -69.5zM273 7q48 0 81 20t49 56t22 73t6 85q0 226 -163 226q-152 0 -152 -242q0 -218 157 -218zM398 643l-162 -121l-11 9l135 152z" />
    <glyph glyph-name="ocircumflex" unicode="&#xf4;" horiz-adv-x="547" 
d="M277 -6q-114 0 -179 64t-65 176q0 107 69 176.5t173 69.5t171.5 -70t67.5 -176q0 -101 -65 -170.5t-172 -69.5zM273 7q48 0 81 20t49 56t22 73t6 85q0 226 -163 226q-152 0 -152 -242q0 -218 157 -218zM420 530h-27l-120 115l-119 -115h-27l133 167h27z" />
    <glyph glyph-name="otilde" unicode="&#xf5;" horiz-adv-x="547" 
d="M277 -6q-114 0 -179 64t-65 176q0 107 69 176.5t173 69.5t171.5 -70t67.5 -176q0 -101 -65 -170.5t-172 -69.5zM273 7q48 0 81 20t49 56t22 73t6 85q0 226 -163 226q-152 0 -152 -242q0 -218 157 -218zM409 617h9q-5 -31 -27.5 -59t-61.5 -28q-25 0 -68 23t-69 23
q-23 0 -33.5 -9.5t-19.5 -36.5h-10q6 36 29 59.5t55 23.5q25 0 69 -23t70 -23q42 0 57 50z" />
    <glyph glyph-name="odieresis" unicode="&#xf6;" horiz-adv-x="547" 
d="M277 -6q-114 0 -179 64t-65 176q0 107 69 176.5t173 69.5t171.5 -70t67.5 -176q0 -101 -65 -170.5t-172 -69.5zM273 7q48 0 81 20t49 56t22 73t6 85q0 226 -163 226q-152 0 -152 -242q0 -218 157 -218zM245 565q0 -14 -11 -24.5t-25 -10.5t-24.5 10.5t-10.5 24.5
t10.5 24.5t24.5 10.5t25 -10.5t11 -24.5zM337 530q-14 0 -25 10.5t-11 24.5t11 24.5t25 10.5q13 0 24 -11t11 -24t-11 -24t-24 -11z" />
    <glyph glyph-name="divide" unicode="&#xf7;" horiz-adv-x="503" 
d="M288 174q0 -14 -11 -24.5t-27 -10.5q-14 0 -24.5 10.5t-10.5 24.5q0 16 10.5 27t24.5 11q16 0 27 -11t11 -27zM288 426q0 -14 -11 -24.5t-27 -10.5q-14 0 -24.5 10.5t-10.5 24.5q0 16 10.5 27t24.5 11q16 0 27 -11t11 -27zM437 317v-30q-39 1 -186 1t-185 -1v30
q76 -2 185 -2q108 0 186 2z" />
    <glyph glyph-name="oslash" unicode="&#xf8;" horiz-adv-x="547" 
d="M171 -55h-31l28 68q-65 26 -100 83t-35 138q0 107 69 176.5t173 69.5q40 0 79 -13l22 54h31l-26 -64q61 -30 97 -89t36 -134q0 -101 -65 -170.5t-172 -69.5q-40 0 -82 10zM177 36l170 413q-34 18 -79 18q-152 0 -152 -242q0 -138 61 -189zM371 433l-169 -412
q30 -14 71 -14q48 0 81 20t49 56t22 73t6 85q0 140 -60 192z" />
    <glyph glyph-name="ugrave" unicode="&#xf9;" horiz-adv-x="522" 
d="M503 46l2 -5q-10 -16 -17 -25t-22 -17.5t-33 -8.5q-56 0 -56 92q-56 -92 -161 -92q-151 0 -151 173v236q0 27 -9.5 38t-39.5 16v5q82 5 113 22v-312q0 -80 26.5 -115.5t85.5 -35.5q91 0 136 89v293q0 29 -7.5 39t-36.5 15v5q76 5 108 22v-385q0 -16 0.5 -24t2.5 -19.5
t8 -17t15 -5.5q18 0 36 17zM293 530l-11 -9l-162 121l38 40z" />
    <glyph glyph-name="uacute" unicode="&#xfa;" horiz-adv-x="522" 
d="M503 46l2 -5q-10 -16 -17 -25t-22 -17.5t-33 -8.5q-56 0 -56 92q-56 -92 -161 -92q-151 0 -151 173v236q0 27 -9.5 38t-39.5 16v5q82 5 113 22v-312q0 -80 26.5 -115.5t85.5 -35.5q91 0 136 89v293q0 29 -7.5 39t-36.5 15v5q76 5 108 22v-385q0 -16 0.5 -24t2.5 -19.5
t8 -17t15 -5.5q18 0 36 17zM379 643l-162 -121l-11 9l135 152z" />
    <glyph glyph-name="ucircumflex" unicode="&#xfb;" horiz-adv-x="522" 
d="M503 46l2 -5q-10 -16 -17 -25t-22 -17.5t-33 -8.5q-56 0 -56 92q-56 -92 -161 -92q-151 0 -151 173v236q0 27 -9.5 38t-39.5 16v5q82 5 113 22v-312q0 -80 26.5 -115.5t85.5 -35.5q91 0 136 89v293q0 29 -7.5 39t-36.5 15v5q76 5 108 22v-385q0 -16 0.5 -24t2.5 -19.5
t8 -17t15 -5.5q18 0 36 17zM391 530h-27l-120 115l-119 -115h-27l133 167h27z" />
    <glyph glyph-name="udieresis" unicode="&#xfc;" horiz-adv-x="522" 
d="M503 46l2 -5q-10 -16 -17 -25t-22 -17.5t-33 -8.5q-56 0 -56 92q-56 -92 -161 -92q-151 0 -151 173v236q0 27 -9.5 38t-39.5 16v5q82 5 113 22v-312q0 -80 26.5 -115.5t85.5 -35.5q91 0 136 89v293q0 29 -7.5 39t-36.5 15v5q76 5 108 22v-385q0 -16 0.5 -24t2.5 -19.5
t8 -17t15 -5.5q18 0 36 17zM227 565q0 -14 -11 -24.5t-25 -10.5t-24.5 10.5t-10.5 24.5t10.5 24.5t24.5 10.5t25 -10.5t11 -24.5zM319 530q-14 0 -25 10.5t-11 24.5t11 24.5t25 10.5q13 0 24 -11t11 -24t-11 -24t-24 -11z" />
    <glyph glyph-name="yacute" unicode="&#xfd;" horiz-adv-x="518" 
d="M231 -221v-5q-3 0 -39.5 0.5t-62.5 0.5q-19 0 -35 -0.5t-21 -0.5v5q36 3 58.5 27t65.5 116l40 84l-184 415q-9 20 -19.5 30.5t-18.5 13.5t-24 6v5q4 0 37 -0.5t54 -0.5q22 0 52 0.5t34 0.5v-5q-25 -3 -35.5 -8.5t-10.5 -18.5q0 -12 8 -31l145 -326l124 260q29 63 29 86
q0 34 -50 38v5q3 0 28 -0.5t51 -0.5q19 0 42.5 0.5t28.5 0.5v-5q-29 -6 -48.5 -29t-60.5 -111l-192 -409q-36 -76 -36 -107q0 -13 6 -20.5t13 -10t21 -5.5zM417 643l-162 -121l-11 9l135 152z" />
    <glyph glyph-name="thorn" unicode="&#xfe;" horiz-adv-x="539" 
d="M174 -222v-5q-44 2 -75 2t-75 -2v5q25 5 34 20t9 71v813q0 29 -7.5 39t-36.5 15v5q76 5 108 22v-331q70 48 149 48q101 0 163.5 -72t62.5 -176q0 -108 -71 -173t-168 -65q-75 0 -136 41v-166q0 -56 9 -71t34 -20zM131 406v-346q49 -45 126 -45q29 0 55 9.5t52 31.5
t41.5 67t15.5 108q0 93 -47.5 158.5t-124.5 65.5q-63 0 -118 -49z" />
    <glyph glyph-name="ydieresis" unicode="&#xff;" horiz-adv-x="518" 
d="M231 -221v-5q-3 0 -39.5 0.5t-62.5 0.5q-19 0 -35 -0.5t-21 -0.5v5q36 3 58.5 27t65.5 116l40 84l-184 415q-9 20 -19.5 30.5t-18.5 13.5t-24 6v5q4 0 37 -0.5t54 -0.5q22 0 52 0.5t34 0.5v-5q-25 -3 -35.5 -8.5t-10.5 -18.5q0 -12 8 -31l145 -326l124 260q29 63 29 86
q0 34 -50 38v5q3 0 28 -0.5t51 -0.5q19 0 42.5 0.5t28.5 0.5v-5q-29 -6 -48.5 -29t-60.5 -111l-192 -409q-36 -76 -36 -107q0 -13 6 -20.5t13 -10t21 -5.5zM248 565q0 -14 -11 -24.5t-25 -10.5t-24.5 10.5t-10.5 24.5t10.5 24.5t24.5 10.5t25 -10.5t11 -24.5zM340 530
q-14 0 -25 10.5t-11 24.5t11 24.5t25 10.5t24.5 -11t10.5 -24t-10.5 -24t-24.5 -11z" />
    <glyph glyph-name="Amacron" unicode="&#x100;" horiz-adv-x="582" 
d="M578 3v-5q-42 2 -87 2t-89 -2v5q44 3 44 35q0 12 -12 52l-59 188h-115q-71 0 -106 -1l-60 -162q-17 -47 -17 -68q0 -39 46 -44v-5q-44 2 -93 2q-26 0 -68 -2v5q40 9 59.5 32.5t50.5 105.5l226 601h10l210 -664q16 -49 24 -60t36 -15zM366 307l-92 296l-109 -295
q32 -1 95 -1h106zM440 830v-30q-46 1 -137 1t-136 -1v30q90 -2 136 -2q45 0 137 2z" />
    <glyph glyph-name="amacron" unicode="&#x101;" horiz-adv-x="444" 
d="M431 46l2 -5q-32 -51 -72 -51q-26 0 -41 17.5t-15 45.5q-65 -63 -149 -63q-61 0 -94.5 32t-33.5 78q0 54 44.5 90.5t116.5 36.5q69 0 116 -33v169q0 49 -21 74t-70 25q-45 0 -79.5 -33t-36.5 -93h-51q10 66 59.5 105t115.5 39q147 0 147 -130v-263q0 -31 6.5 -43.5
t22.5 -12.5q17 0 33 15zM305 73v103q-34 32 -96 32q-51 0 -80 -30.5t-29 -71.5q0 -36 24 -62t67 -26q66 0 114 55zM355 580v-30q-46 1 -137 1t-136 -1v30q90 -2 136 -2q45 0 137 2z" />
    <glyph glyph-name="Abreve" unicode="&#x102;" horiz-adv-x="582" 
d="M578 3v-5q-42 2 -87 2t-89 -2v5q44 3 44 35q0 12 -12 52l-59 188h-115q-71 0 -106 -1l-60 -162q-17 -47 -17 -68q0 -39 46 -44v-5q-44 2 -93 2q-26 0 -68 -2v5q40 9 59.5 32.5t50.5 105.5l226 601h10l210 -664q16 -49 24 -60t36 -15zM366 307l-92 296l-109 -295
q32 -1 95 -1h106zM412 913h22q0 -50 -36 -91.5t-94 -41.5q-59 0 -95 41.5t-36 91.5h22q17 -96 108 -96q49 0 72 23t37 73z" />
    <glyph glyph-name="abreve" unicode="&#x103;" horiz-adv-x="444" 
d="M431 46l2 -5q-32 -51 -72 -51q-26 0 -41 17.5t-15 45.5q-65 -63 -149 -63q-61 0 -94.5 32t-33.5 78q0 54 44.5 90.5t116.5 36.5q69 0 116 -33v169q0 49 -21 74t-70 25q-45 0 -79.5 -33t-36.5 -93h-51q10 66 59.5 105t115.5 39q147 0 147 -130v-263q0 -31 6.5 -43.5
t22.5 -12.5q17 0 33 15zM305 73v103q-34 32 -96 32q-51 0 -80 -30.5t-29 -71.5q0 -36 24 -62t67 -26q66 0 114 55zM327 663h22q0 -50 -36 -91.5t-94 -41.5q-59 0 -95 41.5t-36 91.5h22q17 -96 108 -96q49 0 72 23t37 73z" />
    <glyph glyph-name="Aogonek" unicode="&#x104;" horiz-adv-x="580" 
d="M521 -176l1 -13q-26 -13 -63 -13q-35 0 -58.5 14.5t-23.5 44.5q0 32 29.5 71t78.5 72q-43 0 -83 -2v5q44 3 44 35q0 12 -12 52l-59 188h-221l-60 -163q-17 -47 -17 -68q0 -39 46 -44v-5q-44 2 -93 2q-26 0 -68 -2v5q40 9 59.5 32.5t50.5 105.5l226 601h10l210 -664
q16 -49 24 -60t36 -15v-5q-36 2 -72 2q-88 -75 -88 -131q0 -50 60 -50q18 0 43 5zM366 308l-92 295l-109 -295h201z" />
    <glyph glyph-name="aogonek" unicode="&#x105;" horiz-adv-x="443" 
d="M408 -178l1 -13q-26 -13 -63 -13q-35 0 -58.5 14.5t-23.5 44.5q0 29 26 66t70 69q-26 0 -40.5 17.5t-14.5 45.5q-65 -63 -149 -63q-61 0 -94.5 32t-33.5 78q0 54 44.5 90.5t116.5 36.5q69 0 116 -33v169q0 49 -21 74t-70 25q-45 0 -79.5 -33t-36.5 -93h-51
q10 66 59.5 105t115.5 39q147 0 147 -130v-263q0 -31 6.5 -43.5t22.5 -12.5q17 0 33 15l2 -5q-20 -30 -38 -41q-90 -76 -90 -133q0 -50 60 -50q18 0 43 5zM305 73v103q-34 32 -96 32q-51 0 -80 -30.5t-29 -71.5q0 -36 24 -62t67 -26q66 0 114 55z" />
    <glyph glyph-name="Cacute" unicode="&#x106;" horiz-adv-x="724" 
d="M679 161h5q-6 -43 -6 -107q-129 -64 -250 -64q-93 0 -168.5 31t-123.5 83.5t-73.5 118t-25.5 136.5q0 70 24.5 136t70 119.5t120 85.5t165.5 32q21 0 42.5 -1.5t43.5 -5t38 -6.5t39.5 -9l33.5 -8.5t34.5 -10t29.5 -8.5q-3 -39 -3 -95q0 -10 0.5 -23t0.5 -15h-5
q-7 77 -76 118.5t-174 41.5q-60 0 -112 -21t-93 -63t-64.5 -111.5t-23.5 -159.5q0 -87 28 -154.5t74.5 -107t101 -59.5t112.5 -20q80 0 147 37.5t88 109.5zM522 893l-162 -121l-11 9l135 152z" />
    <glyph glyph-name="cacute" unicode="&#x107;" horiz-adv-x="470" 
d="M431 72l4 -4q-63 -78 -166 -78q-113 0 -175 71t-62 169q0 104 65.5 177t183.5 73q69 0 113.5 -28t53.5 -71h-72q-15 86 -101 86q-79 0 -119.5 -64.5t-40.5 -153.5q0 -109 50.5 -173t136.5 -64q74 0 129 60zM368 643l-162 -121l-11 9l135 152z" />
    <glyph glyph-name="Ccircumflex" unicode="&#x108;" horiz-adv-x="724" 
d="M679 161h5q-6 -43 -6 -107q-129 -64 -250 -64q-93 0 -168.5 31t-123.5 83.5t-73.5 118t-25.5 136.5q0 70 24.5 136t70 119.5t120 85.5t165.5 32q21 0 42.5 -1.5t43.5 -5t38 -6.5t39.5 -9l33.5 -8.5t34.5 -10t29.5 -8.5q-3 -39 -3 -95q0 -10 0.5 -23t0.5 -15h-5
q-7 77 -76 118.5t-174 41.5q-60 0 -112 -21t-93 -63t-64.5 -111.5t-23.5 -159.5q0 -87 28 -154.5t74.5 -107t101 -59.5t112.5 -20q80 0 147 37.5t88 109.5zM552 780h-27l-120 115l-119 -115h-27l133 167h27z" />
    <glyph glyph-name="ccircumflex" unicode="&#x109;" horiz-adv-x="470" 
d="M431 72l4 -4q-63 -78 -166 -78q-113 0 -175 71t-62 169q0 104 65.5 177t183.5 73q69 0 113.5 -28t53.5 -71h-72q-15 86 -101 86q-79 0 -119.5 -64.5t-40.5 -153.5q0 -109 50.5 -173t136.5 -64q74 0 129 60zM398 530h-27l-120 115l-119 -115h-27l133 167h27z" />
    <glyph glyph-name="Cdotaccent" unicode="&#x10a;" horiz-adv-x="724" 
d="M679 161h5q-6 -43 -6 -107q-129 -64 -250 -64q-93 0 -168.5 31t-123.5 83.5t-73.5 118t-25.5 136.5q0 70 24.5 136t70 119.5t120 85.5t165.5 32q21 0 42.5 -1.5t43.5 -5t38 -6.5t39.5 -9l33.5 -8.5t34.5 -10t29.5 -8.5q-3 -39 -3 -95q0 -10 0.5 -23t0.5 -15h-5
q-7 77 -76 118.5t-174 41.5q-60 0 -112 -21t-93 -63t-64.5 -111.5t-23.5 -159.5q0 -87 28 -154.5t74.5 -107t101 -59.5t112.5 -20q80 0 147 37.5t88 109.5zM441 815q0 -14 -11 -24.5t-25 -10.5t-24.5 10.5t-10.5 24.5t10.5 24.5t24.5 10.5t25 -10.5t11 -24.5z" />
    <glyph glyph-name="cdotaccent" unicode="&#x10b;" horiz-adv-x="470" 
d="M431 72l4 -4q-63 -78 -166 -78q-113 0 -175 71t-62 169q0 104 65.5 177t183.5 73q69 0 113.5 -28t53.5 -71h-72q-15 86 -101 86q-79 0 -119.5 -64.5t-40.5 -153.5q0 -109 50.5 -173t136.5 -64q74 0 129 60zM298 565q0 -14 -11 -24.5t-25 -10.5t-24.5 10.5t-10.5 24.5
t10.5 24.5t24.5 10.5t25 -10.5t11 -24.5z" />
    <glyph glyph-name="Ccaron" unicode="&#x10c;" horiz-adv-x="724" 
d="M679 161h5q-6 -43 -6 -107q-129 -64 -250 -64q-93 0 -168.5 31t-123.5 83.5t-73.5 118t-25.5 136.5q0 70 24.5 136t70 119.5t120 85.5t165.5 32q21 0 42.5 -1.5t43.5 -5t38 -6.5t39.5 -9l33.5 -8.5t34.5 -10t29.5 -8.5q-3 -39 -3 -95q0 -10 0.5 -23t0.5 -15h-5
q-7 77 -76 118.5t-174 41.5q-60 0 -112 -21t-93 -63t-64.5 -111.5t-23.5 -159.5q0 -87 28 -154.5t74.5 -107t101 -59.5t112.5 -20q80 0 147 37.5t88 109.5zM425 780h-27l-133 167h27l119 -115l120 115h27z" />
    <glyph glyph-name="ccaron" unicode="&#x10d;" horiz-adv-x="470" 
d="M431 72l4 -4q-63 -78 -166 -78q-113 0 -175 71t-62 169q0 104 65.5 177t183.5 73q69 0 113.5 -28t53.5 -71h-72q-15 86 -101 86q-79 0 -119.5 -64.5t-40.5 -153.5q0 -109 50.5 -173t136.5 -64q74 0 129 60zM256 530h-27l-133 167h27l119 -115l120 115h27z" />
    <glyph glyph-name="Dcaron" unicode="&#x10e;" horiz-adv-x="779" 
d="M43 -2v5q24 4 33.5 6.5t20.5 11.5t14 26t3 47v537q0 29 -4 46.5t-16 26.5t-20 11.5t-30 6.5v5q44 -2 95 -2q33 0 83.5 0.5t74.5 0.5q207 0 325 -97.5t118 -271.5q0 -156 -98.5 -258t-287.5 -102q-25 0 -98.5 1.5t-104.5 1.5q-64 0 -108 -2zM188 691v-656q78 -14 165 -14
q67 0 119.5 16.5t95 54t65.5 106t23 165.5q0 174 -97 256.5t-256 82.5q-69 0 -115 -11zM385 780h-27l-133 167h27l119 -115l120 115h27z" />
    <glyph glyph-name="dcaron" unicode="&#x10f;" horiz-adv-x="526" 
d="M521 36l3 -5q-29 -41 -77 -41q-31 0 -45 13.5t-19 43.5q-52 -57 -137 -57q-99 0 -156.5 68.5t-57.5 163.5q0 110 70.5 184t166.5 74q58 0 111 -33v234q0 29 -7.5 39t-36.5 15v5q76 5 108 22v-628q0 -72 6 -93t28 -21t43 16zM380 105v285q-15 32 -48 51t-70 19
q-62 0 -103 -56.5t-41 -171.5q0 -92 44 -150t121 -58q34 0 65.5 19t31.5 62zM503 554l-4 2q40 32 40 84q0 9 -2 17q-7 -4 -15 -4q-16 0 -24.5 10.5t-8.5 24.5q0 17 10 27.5t24 10.5q17 0 30.5 -15.5t13.5 -44.5q0 -36 -17 -65.5t-47 -46.5z" />
    <glyph glyph-name="Dcroat" unicode="&#x110;" horiz-adv-x="768" 
d="M32 -2v5q24 4 33.5 6.5t20.5 11.5t14 26t3 47v254q-9 0 -25 -0.5t-24 -0.5v30q16 -1 49 -1v255q0 29 -4 46.5t-16 26.5t-20 11.5t-30 6.5v5q44 -2 95 -2q33 0 83.5 0.5t74.5 0.5q207 0 325 -97.5t118 -271.5q0 -156 -98.5 -258t-287.5 -102q-25 0 -98.5 1.5t-104.5 1.5
q-64 0 -108 -2zM373 377v-30q-53 1 -160 1h-36v-313q78 -14 165 -14q67 0 119.5 16.5t95 54t65.5 106t23 165.5q0 174 -97 256.5t-256 82.5q-69 0 -115 -11v-316h36q54 0 160 2z" />
    <glyph glyph-name="dcroat" unicode="&#x111;" horiz-adv-x="526" 
d="M521 36l3 -5q-29 -41 -77 -41q-31 0 -45 13.5t-19 43.5q-52 -57 -137 -57q-99 0 -156.5 68.5t-57.5 163.5q0 110 70.5 184t166.5 74q58 0 111 -33v152h-37q-113 0 -169 -1v30q112 -2 169 -2h37v55q0 29 -7.5 39t-36.5 15v5q76 5 108 22v-136l69 2v-30q-11 0 -34 0.5
t-35 0.5v-465q0 -72 6 -93t28 -21t43 16zM380 105v285q-15 32 -48 51t-70 19q-62 0 -103 -56.5t-41 -171.5q0 -92 44 -150t121 -58q34 0 65.5 19t31.5 62z" />
    <glyph glyph-name="Emacron" unicode="&#x112;" horiz-adv-x="493" 
d="M454 129h5q-1 -46 -3.5 -79.5t-2.5 -52.5q-93 3 -206 3q-159 0 -201 -2v5q36 6 46.5 23t10.5 68v537q0 56 -11.5 70.5t-48.5 20.5v5q40 -2 128 -2q233 0 278 2q0 -2 0.5 -17.5t0.5 -24.5q0 -57 -6 -82h-5q0 64 -31 78t-147 14q-61 0 -84 -6v-298q54 0 79 0.5t52.5 3.5
t37 6.5t20 13.5t13.5 21t7 32h5q-2 -62 -2 -93q0 -34 2 -102h-5q-4 24 -7 36.5t-13.5 24t-19.5 16t-37 7.5t-53 3.5t-79 0.5v-325q16 -6 85 -6q48 0 68 0.5t47 3.5t35 8t19.5 17.5t15 28t7.5 41.5zM405 830v-30q-46 1 -137 1t-136 -1v30q90 -2 136 -2q45 0 137 2z" />
    <glyph glyph-name="emacron" unicode="&#x113;" horiz-adv-x="464" 
d="M433 72l4 -4q-63 -78 -166 -78q-114 0 -176 72t-62 172q0 104 61 175t152 71q77 0 130.5 -50t53.5 -127h-314q-2 -20 -2 -34q0 -116 54.5 -181t142.5 -65q69 0 122 49zM118 323h230q-3 68 -30.5 106t-73.5 38t-80.5 -39.5t-45.5 -104.5zM378 580v-30q-46 1 -137 1
t-136 -1v30q90 -2 136 -2q45 0 137 2z" />
    <glyph glyph-name="Ebreve" unicode="&#x114;" horiz-adv-x="493" 
d="M454 129h5q-1 -46 -3.5 -79.5t-2.5 -52.5q-93 3 -206 3q-159 0 -201 -2v5q36 6 46.5 23t10.5 68v537q0 56 -11.5 70.5t-48.5 20.5v5q40 -2 128 -2q233 0 278 2q0 -2 0.5 -17.5t0.5 -24.5q0 -57 -6 -82h-5q0 64 -31 78t-147 14q-61 0 -84 -6v-298q54 0 79 0.5t52.5 3.5
t37 6.5t20 13.5t13.5 21t7 32h5q-2 -62 -2 -93q0 -34 2 -102h-5q-4 24 -7 36.5t-13.5 24t-19.5 16t-37 7.5t-53 3.5t-79 0.5v-325q16 -6 85 -6q48 0 68 0.5t47 3.5t35 8t19.5 17.5t15 28t7.5 41.5zM384 913h22q0 -50 -36 -91.5t-94 -41.5q-59 0 -95 41.5t-36 91.5h22
q17 -96 108 -96q49 0 72 23t37 73z" />
    <glyph glyph-name="ebreve" unicode="&#x115;" horiz-adv-x="464" 
d="M433 72l4 -4q-63 -78 -166 -78q-114 0 -176 72t-62 172q0 104 61 175t152 71q77 0 130.5 -50t53.5 -127h-314q-2 -20 -2 -34q0 -116 54.5 -181t142.5 -65q69 0 122 49zM118 323h230q-3 68 -30.5 106t-73.5 38t-80.5 -39.5t-45.5 -104.5zM351 663h22q0 -50 -36 -91.5
t-94 -41.5q-59 0 -95 41.5t-36 91.5h22q17 -96 108 -96q49 0 72 23t37 73z" />
    <glyph glyph-name="Edotaccent" unicode="&#x116;" horiz-adv-x="493" 
d="M454 129h5q-1 -46 -3.5 -79.5t-2.5 -52.5q-93 3 -206 3q-159 0 -201 -2v5q36 6 46.5 23t10.5 68v537q0 56 -11.5 70.5t-48.5 20.5v5q40 -2 128 -2q233 0 278 2q0 -2 0.5 -17.5t0.5 -24.5q0 -57 -6 -82h-5q0 64 -31 78t-147 14q-61 0 -84 -6v-298q54 0 79 0.5t52.5 3.5
t37 6.5t20 13.5t13.5 21t7 32h5q-2 -62 -2 -93q0 -34 2 -102h-5q-4 24 -7 36.5t-13.5 24t-19.5 16t-37 7.5t-53 3.5t-79 0.5v-325q16 -6 85 -6q48 0 68 0.5t47 3.5t35 8t19.5 17.5t15 28t7.5 41.5zM324 815q0 -14 -11 -24.5t-25 -10.5t-24.5 10.5t-10.5 24.5t10.5 24.5
t24.5 10.5t25 -10.5t11 -24.5z" />
    <glyph glyph-name="edotaccent" unicode="&#x117;" horiz-adv-x="464" 
d="M433 72l4 -4q-63 -78 -166 -78q-114 0 -176 72t-62 172q0 104 61 175t152 71q77 0 130.5 -50t53.5 -127h-314q-2 -20 -2 -34q0 -116 54.5 -181t142.5 -65q69 0 122 49zM118 323h230q-3 68 -30.5 106t-73.5 38t-80.5 -39.5t-45.5 -104.5zM282 565q0 -14 -11 -24.5
t-25 -10.5t-24.5 10.5t-10.5 24.5t10.5 24.5t24.5 10.5t25 -10.5t11 -24.5z" />
    <glyph glyph-name="Eogonek" unicode="&#x118;" horiz-adv-x="493" 
d="M418 -177l1 -13q-26 -13 -63 -13q-35 0 -58.5 14.5t-23.5 44.5q0 32 29.5 71t78.5 72q-42 1 -135 1q-159 0 -201 -2v5q36 6 46.5 23t10.5 68v537q0 56 -11.5 70.5t-48.5 20.5v5q40 -2 128 -2q233 0 278 2q0 -2 0.5 -17.5t0.5 -24.5q0 -57 -6 -82h-5q0 64 -31 78t-147 14
q-61 0 -84 -6v-298q54 0 79 0.5t52.5 3.5t37 6.5t20 13.5t13.5 21t7 32h5q-2 -62 -2 -93q0 -34 2 -102h-5q-4 24 -7 36.5t-13.5 24t-19.5 16t-37 7.5t-53 3.5t-79 0.5v-325q16 -6 85 -6q48 0 68 0.5t47 3.5t35 8t19.5 17.5t15 28t7.5 41.5h5q-1 -46 -3.5 -79.5t-2.5 -52.5
l-50 2q-88 -75 -88 -131q0 -50 60 -50q18 0 43 5z" />
    <glyph glyph-name="eogonek" unicode="&#x119;" horiz-adv-x="465" 
d="M387 -163l1 -13q-26 -13 -63 -13q-35 0 -58.5 14.5t-23.5 44.5q0 58 85 127q-25 -7 -57 -7q-114 0 -176 72t-62 172q0 104 61 175t152 71q77 0 130.5 -50t53.5 -127h-314q-2 -20 -2 -34q0 -116 54.5 -181t142.5 -65q69 0 122 49l4 -4q-28 -35 -63 -53q-90 -77 -90 -133
q0 -50 60 -50q18 0 43 5zM118 323h230q-3 68 -30.5 106t-73.5 38t-80.5 -39.5t-45.5 -104.5z" />
    <glyph glyph-name="Ecaron" unicode="&#x11a;" horiz-adv-x="493" 
d="M454 129h5q-1 -46 -3.5 -79.5t-2.5 -52.5q-93 3 -206 3q-159 0 -201 -2v5q36 6 46.5 23t10.5 68v537q0 56 -11.5 70.5t-48.5 20.5v5q40 -2 128 -2q233 0 278 2q0 -2 0.5 -17.5t0.5 -24.5q0 -57 -6 -82h-5q0 64 -31 78t-147 14q-61 0 -84 -6v-298q54 0 79 0.5t52.5 3.5
t37 6.5t20 13.5t13.5 21t7 32h5q-2 -62 -2 -93q0 -34 2 -102h-5q-4 24 -7 36.5t-13.5 24t-19.5 16t-37 7.5t-53 3.5t-79 0.5v-325q16 -6 85 -6q48 0 68 0.5t47 3.5t35 8t19.5 17.5t15 28t7.5 41.5zM280 780h-27l-133 167h27l119 -115l120 115h27z" />
    <glyph glyph-name="ecaron" unicode="&#x11b;" horiz-adv-x="464" 
d="M433 72l4 -4q-63 -78 -166 -78q-114 0 -176 72t-62 172q0 104 61 175t152 71q77 0 130.5 -50t53.5 -127h-314q-2 -20 -2 -34q0 -116 54.5 -181t142.5 -65q69 0 122 49zM118 323h230q-3 68 -30.5 106t-73.5 38t-80.5 -39.5t-45.5 -104.5zM251 530h-27l-133 167h27
l119 -115l120 115h27z" />
    <glyph glyph-name="Gcircumflex" unicode="&#x11c;" horiz-adv-x="743" 
d="M596 69v182q0 31 -3 48.5t-12.5 26.5t-16.5 11t-25 5v5q44 -2 94 -2q39 0 81 2v-5q-20 -4 -28 -10t-12 -23.5t-4 -57.5v-196q-17 -5 -58.5 -24t-85 -30t-98.5 -11q-93 0 -168.5 31t-123.5 83.5t-73.5 118t-25.5 136.5q0 155 102.5 264t277.5 109q44 0 90 -7.5t76.5 -15.5
t89.5 -26q-3 -33 -3 -94q0 -32 1 -39h-5q-8 80 -76 120t-169 40q-55 0 -105 -19.5t-94 -58.5t-70.5 -108.5t-26.5 -160.5q0 -155 87.5 -253t218.5 -98q108 0 165 57zM559 780h-27l-120 115l-119 -115h-27l133 167h27z" />
    <glyph glyph-name="gcircumflex" unicode="&#x11d;" horiz-adv-x="459" 
d="M462 451l-36 -58q-8 31 -29 31q-14 0 -30 -14q29 -40 29 -93q0 -73 -51.5 -116t-126.5 -43q-13 0 -35 2q-46 -15 -46 -55q0 -12 3.5 -20.5t12 -14.5t16 -9.5t23.5 -6l26 -4t32 -3.5l33 -3q85 -9 123 -44t38 -84q0 -57 -57 -99t-157 -42q-85 0 -147.5 33.5t-62.5 93.5
q0 86 120 124q-34 7 -51.5 21.5t-17.5 44.5q0 29 22.5 48t53.5 28q-53 17 -81.5 58.5t-28.5 92.5q0 65 47.5 113t131.5 48q89 0 142 -59q42 47 73 47q19 0 31 -17zM179 22q-81 -22 -81 -114q0 -59 37.5 -89t96.5 -30q55 0 92 28t37 87q0 16 -3.5 30t-7.5 24t-13.5 18.5
l-15.5 14t-20.5 10.5l-21.5 7.5t-25 5t-24 3.5t-26.5 3t-24.5 2zM215 171q98 0 98 143q0 153 -101 153q-92 0 -92 -144q0 -80 23.5 -116t71.5 -36zM362 530h-27l-120 115l-119 -115h-27l133 167h27z" />
    <glyph glyph-name="Gbreve" unicode="&#x11e;" horiz-adv-x="743" 
d="M596 69v182q0 31 -3 48.5t-12.5 26.5t-16.5 11t-25 5v5q44 -2 94 -2q39 0 81 2v-5q-20 -4 -28 -10t-12 -23.5t-4 -57.5v-196q-17 -5 -58.5 -24t-85 -30t-98.5 -11q-93 0 -168.5 31t-123.5 83.5t-73.5 118t-25.5 136.5q0 155 102.5 264t277.5 109q44 0 90 -7.5t76.5 -15.5
t89.5 -26q-3 -33 -3 -94q0 -32 1 -39h-5q-8 80 -76 120t-169 40q-55 0 -105 -19.5t-94 -58.5t-70.5 -108.5t-26.5 -160.5q0 -155 87.5 -253t218.5 -98q108 0 165 57zM508 913h22q0 -50 -36 -91.5t-94 -41.5q-59 0 -95 41.5t-36 91.5h22q17 -96 108 -96q49 0 72 23t37 73z
" />
    <glyph glyph-name="gbreve" unicode="&#x11f;" horiz-adv-x="459" 
d="M462 451l-36 -58q-8 31 -29 31q-14 0 -30 -14q29 -40 29 -93q0 -73 -51.5 -116t-126.5 -43q-13 0 -35 2q-46 -15 -46 -55q0 -12 3.5 -20.5t12 -14.5t16 -9.5t23.5 -6l26 -4t32 -3.5l33 -3q85 -9 123 -44t38 -84q0 -57 -57 -99t-157 -42q-85 0 -147.5 33.5t-62.5 93.5
q0 86 120 124q-34 7 -51.5 21.5t-17.5 44.5q0 29 22.5 48t53.5 28q-53 17 -81.5 58.5t-28.5 92.5q0 65 47.5 113t131.5 48q89 0 142 -59q42 47 73 47q19 0 31 -17zM179 22q-81 -22 -81 -114q0 -59 37.5 -89t96.5 -30q55 0 92 28t37 87q0 16 -3.5 30t-7.5 24t-13.5 18.5
l-15.5 14t-20.5 10.5l-21.5 7.5t-25 5t-24 3.5t-26.5 3t-24.5 2zM215 171q98 0 98 143q0 153 -101 153q-92 0 -92 -144q0 -80 23.5 -116t71.5 -36zM323 663h22q0 -50 -36 -91.5t-94 -41.5q-59 0 -95 41.5t-36 91.5h22q17 -96 108 -96q49 0 72 23t37 73z" />
    <glyph glyph-name="Gdotaccent" unicode="&#x120;" horiz-adv-x="743" 
d="M596 69v182q0 31 -3 48.5t-12.5 26.5t-16.5 11t-25 5v5q44 -2 94 -2q39 0 81 2v-5q-20 -4 -28 -10t-12 -23.5t-4 -57.5v-196q-17 -5 -58.5 -24t-85 -30t-98.5 -11q-93 0 -168.5 31t-123.5 83.5t-73.5 118t-25.5 136.5q0 155 102.5 264t277.5 109q44 0 90 -7.5t76.5 -15.5
t89.5 -26q-3 -33 -3 -94q0 -32 1 -39h-5q-8 80 -76 120t-169 40q-55 0 -105 -19.5t-94 -58.5t-70.5 -108.5t-26.5 -160.5q0 -155 87.5 -253t218.5 -98q108 0 165 57zM438 815q0 -14 -11 -24.5t-25 -10.5t-24.5 10.5t-10.5 24.5t10.5 24.5t24.5 10.5t25 -10.5t11 -24.5z" />
    <glyph glyph-name="gdotaccent" unicode="&#x121;" horiz-adv-x="459" 
d="M462 451l-36 -58q-8 31 -29 31q-14 0 -30 -14q29 -40 29 -93q0 -73 -51.5 -116t-126.5 -43q-13 0 -35 2q-46 -15 -46 -55q0 -12 3.5 -20.5t12 -14.5t16 -9.5t23.5 -6l26 -4t32 -3.5l33 -3q85 -9 123 -44t38 -84q0 -57 -57 -99t-157 -42q-85 0 -147.5 33.5t-62.5 93.5
q0 86 120 124q-34 7 -51.5 21.5t-17.5 44.5q0 29 22.5 48t53.5 28q-53 17 -81.5 58.5t-28.5 92.5q0 65 47.5 113t131.5 48q89 0 142 -59q42 47 73 47q19 0 31 -17zM179 22q-81 -22 -81 -114q0 -59 37.5 -89t96.5 -30q55 0 92 28t37 87q0 16 -3.5 30t-7.5 24t-13.5 18.5
l-15.5 14t-20.5 10.5l-21.5 7.5t-25 5t-24 3.5t-26.5 3t-24.5 2zM215 171q98 0 98 143q0 153 -101 153q-92 0 -92 -144q0 -80 23.5 -116t71.5 -36zM252 565q0 -14 -11 -24.5t-25 -10.5t-24.5 10.5t-10.5 24.5t10.5 24.5t24.5 10.5t25 -10.5t11 -24.5z" />
    <glyph glyph-name="Gcommaaccent" unicode="&#x122;" horiz-adv-x="740" 
d="M596 69v182q0 31 -3 48.5t-12.5 26.5t-16.5 11t-25 5v5q44 -2 94 -2q39 0 81 2v-5q-20 -4 -28 -10t-12 -23.5t-4 -57.5v-196q-17 -5 -58.5 -24t-85 -30t-98.5 -11q-93 0 -168.5 31t-123.5 83.5t-73.5 118t-25.5 136.5q0 155 102.5 264t277.5 109q44 0 90 -7.5t76.5 -15.5
t89.5 -26q-3 -33 -3 -94q0 -32 1 -39h-5q-8 80 -76 120t-169 40q-55 0 -105 -19.5t-94 -58.5t-70.5 -108.5t-26.5 -160.5q0 -155 87.5 -253t218.5 -98q108 0 165 57zM408 -228l-4 2q40 32 40 84q0 9 -2 17q-7 -4 -15 -4q-16 0 -24.5 10.5t-8.5 24.5q0 17 10 27.5t24 10.5
q17 0 30.5 -15.5t13.5 -44.5q0 -36 -17 -65.5t-47 -46.5z" />
    <glyph glyph-name="gcommaaccent" unicode="&#x123;" horiz-adv-x="459" 
d="M462 451l-36 -58q-8 31 -29 31q-14 0 -30 -14q29 -40 29 -93q0 -73 -51.5 -116t-126.5 -43q-13 0 -35 2q-46 -15 -46 -55q0 -12 3.5 -20.5t12 -14.5t16 -9.5t23.5 -6l26 -4t32 -3.5l33 -3q85 -9 123 -44t38 -84q0 -57 -57 -99t-157 -42q-85 0 -147.5 33.5t-62.5 93.5
q0 86 120 124q-34 7 -51.5 21.5t-17.5 44.5q0 29 22.5 48t53.5 28q-53 17 -81.5 58.5t-28.5 92.5q0 65 47.5 113t131.5 48q89 0 142 -59q42 47 73 47q19 0 31 -17zM179 22q-81 -22 -81 -114q0 -59 37.5 -89t96.5 -30q55 0 92 28t37 87q0 16 -3.5 30t-7.5 24t-13.5 18.5
l-15.5 14t-20.5 10.5l-21.5 7.5t-25 5t-24 3.5t-26.5 3t-24.5 2zM215 171q98 0 98 143q0 153 -101 153q-92 0 -92 -144q0 -80 23.5 -116t71.5 -36zM240 703l4 -2q-40 -32 -40 -84q0 -9 2 -17q7 4 15 4q16 0 24.5 -10t8.5 -25q0 -17 -10 -27.5t-24 -10.5q-17 0 -30.5 15.5
t-13.5 44.5q0 36 17 65.5t47 46.5z" />
    <glyph glyph-name="Hcircumflex" unicode="&#x124;" horiz-adv-x="733" 
d="M681 3v-5q-42 2 -87 2q-43 0 -87 -2v5q21 3 30 8.5t14.5 24.5t5.5 58v279q-66 1 -197 1q-123 0 -184 -1v-279q0 -39 5.5 -58t14.5 -24.5t30 -8.5v-5q-42 2 -87 2q-43 0 -87 -2v5q21 3 30 8.5t14.5 24.5t5.5 58v537q0 39 -5.5 58t-14.5 24.5t-30 8.5v5q44 -2 87 -2
q45 0 87 2v-5q-21 -3 -30 -8.5t-14.5 -24.5t-5.5 -58v-227q61 -1 184 -1q131 0 197 1v227q0 39 -5.5 58t-14.5 24.5t-30 8.5v5q44 -2 87 -2q45 0 87 2v-5q-21 -3 -30 -8.5t-14.5 -24.5t-5.5 -58v-537q0 -39 5.5 -58t14.5 -24.5t30 -8.5zM513 780h-27l-120 115l-119 -115h-27
l133 167h27z" />
    <glyph glyph-name="hcircumflex" unicode="&#x125;" horiz-adv-x="509" 
d="M486 3v-5q-44 2 -75 2t-75 -2v5q25 5 34 20t9 71v218q0 85 -33.5 116.5t-88.5 31.5q-64 0 -121 -41v-325q0 -56 9 -71t34 -20v-5q-44 2 -75 2t-75 -2v5q25 5 34 20t9 71v587q0 29 -5 38.5t-26 15.5v5q55 4 95 22v-322q64 40 146 40q161 0 161 -163v-223q0 -56 9 -71
t34 -20zM250 780h-27l-120 115l-119 -115h-27l133 167h27z" />
    <glyph glyph-name="Hbar" unicode="&#x126;" horiz-adv-x="733" 
d="M681 3v-5q-42 2 -87 2q-43 0 -87 -2v5q21 3 30 8.5t14.5 24.5t5.5 58v279q-66 1 -197 1q-123 0 -184 -1v-279q0 -39 5.5 -58t14.5 -24.5t30 -8.5v-5q-42 2 -87 2q-43 0 -87 -2v5q21 3 30 8.5t14.5 24.5t5.5 58v435h-49v32q6 0 22.5 -0.5t26.5 -0.5v71q0 39 -5.5 58
t-14.5 24.5t-30 8.5v5q44 -2 87 -2q45 0 87 2v-5q-21 -3 -30 -8.5t-14.5 -24.5t-5.5 -58v-72h381v72q0 39 -5.5 58t-14.5 24.5t-30 8.5v5q44 -2 87 -2q45 0 87 2v-5q-21 -3 -30 -8.5t-14.5 -24.5t-5.5 -58v-71q7 0 19.5 0.5t17.5 0.5v-32h-37v-435q0 -39 5.5 -58t14.5 -24.5
t30 -8.5zM557 404v126h-381v-126q61 -1 184 -1q131 0 197 1z" />
    <glyph glyph-name="hbar" unicode="&#x127;" horiz-adv-x="509" 
d="M486 3v-5q-44 2 -75 2t-75 -2v5q25 5 34 20t9 71v218q0 85 -33.5 116.5t-88.5 31.5q-64 0 -121 -41v-325q0 -56 9 -71t34 -20v-5q-44 2 -75 2t-75 -2v5q25 5 34 20t9 71v505q-10 0 -29.5 -0.5t-28.5 -0.5v30q19 -1 58 -1v54q0 29 -5 38.5t-26 15.5v5q55 4 95 22v-136h47
q56 0 170 2v-30q-57 1 -170 1h-47v-159q64 40 146 40q161 0 161 -163v-223q0 -56 9 -71t34 -20z" />
    <glyph glyph-name="Itilde" unicode="&#x128;" horiz-adv-x="278" 
d="M226 3v-5q-42 2 -87 2q-43 0 -87 -2v5q21 3 30 8.5t14.5 24.5t5.5 58v537q0 39 -5.5 58t-14.5 24.5t-30 8.5v5q44 -2 87 -2q45 0 87 2v-5q-21 -3 -30 -8.5t-14.5 -24.5t-5.5 -58v-537q0 -39 5.5 -58t14.5 -24.5t30 -8.5zM275 867h9q-5 -31 -27.5 -59t-61.5 -28
q-25 0 -68 23t-69 23q-23 0 -33.5 -9.5t-19.5 -36.5h-10q6 36 29 59.5t55 23.5q25 0 69 -23t70 -23q42 0 57 50z" />
    <glyph glyph-name="itilde" unicode="&#x129;" horiz-adv-x="211" 
d="M182 3v-5q-44 2 -75 2t-75 -2v5q25 5 34 20t9 71v300q0 29 -5 38.5t-26 15.5v5q55 4 95 22v-381q0 -56 9 -71t34 -20zM243 617h9q-5 -31 -27.5 -59t-61.5 -28q-25 0 -68 23t-69 23q-23 0 -33.5 -9.5t-19.5 -36.5h-10q6 36 29 59.5t55 23.5q25 0 69 -23t70 -23q42 0 57 50
z" />
    <glyph glyph-name="Imacron" unicode="&#x12a;" horiz-adv-x="278" 
d="M226 3v-5q-42 2 -87 2q-43 0 -87 -2v5q21 3 30 8.5t14.5 24.5t5.5 58v537q0 39 -5.5 58t-14.5 24.5t-30 8.5v5q44 -2 87 -2q45 0 87 2v-5q-21 -3 -30 -8.5t-14.5 -24.5t-5.5 -58v-537q0 -39 5.5 -58t14.5 -24.5t30 -8.5zM276 830v-30q-46 1 -137 1t-136 -1v30
q90 -2 136 -2q45 0 137 2z" />
    <glyph glyph-name="imacron" unicode="&#x12b;" horiz-adv-x="211" 
d="M182 3v-5q-44 2 -75 2t-75 -2v5q25 5 34 20t9 71v300q0 29 -5 38.5t-26 15.5v5q55 4 95 22v-381q0 -56 9 -71t34 -20zM244 580v-30q-46 1 -137 1t-136 -1v30q90 -2 136 -2q45 0 137 2z" />
    <glyph glyph-name="Ibreve" unicode="&#x12c;" horiz-adv-x="278" 
d="M226 3v-5q-42 2 -87 2q-43 0 -87 -2v5q21 3 30 8.5t14.5 24.5t5.5 58v537q0 39 -5.5 58t-14.5 24.5t-30 8.5v5q44 -2 87 -2q45 0 87 2v-5q-21 -3 -30 -8.5t-14.5 -24.5t-5.5 -58v-537q0 -39 5.5 -58t14.5 -24.5t30 -8.5zM248 913h22q0 -50 -36 -91.5t-94 -41.5
q-59 0 -95 41.5t-36 91.5h22q17 -96 108 -96q49 0 72 23t37 73z" />
    <glyph glyph-name="ibreve" unicode="&#x12d;" horiz-adv-x="211" 
d="M182 3v-5q-44 2 -75 2t-75 -2v5q25 5 34 20t9 71v300q0 29 -5 38.5t-26 15.5v5q55 4 95 22v-381q0 -56 9 -71t34 -20zM216 663h22q0 -50 -36 -91.5t-94 -41.5q-59 0 -95 41.5t-36 91.5h22q17 -96 108 -96q49 0 72 23t37 73z" />
    <glyph glyph-name="Iogonek" unicode="&#x12e;" horiz-adv-x="278" 
d="M192 -177l1 -13q-26 -13 -63 -13q-35 0 -58.5 14.5t-23.5 44.5q0 32 30 71.5t79 72.5h-18q-43 0 -87 -2v5q21 3 30 8.5t14.5 24.5t5.5 58v537q0 39 -5.5 58t-14.5 24.5t-30 8.5v5q44 -2 87 -2q45 0 87 2v-5q-21 -3 -30 -8.5t-14.5 -24.5t-5.5 -58v-537q0 -39 5.5 -58
t14.5 -24.5t30 -8.5v-5q-26 2 -48 2q-89 -74 -89 -132q0 -50 60 -50q18 0 43 5z" />
    <glyph glyph-name="iogonek" unicode="&#x12f;" horiz-adv-x="211" 
d="M173 -176l1 -13q-26 -13 -63 -13q-35 0 -58.5 14.5t-23.5 44.5q0 32 29.5 71t78.5 72h-30q-31 0 -75 -2v5q25 5 34 20t9 71v300q0 29 -5 38.5t-26 15.5v5q55 4 95 22v-381q0 -56 9 -71t34 -20v-5l-25 2q-87 -75 -87 -131q0 -50 60 -50q18 0 43 5zM148 588q0 -14 -10 -24
t-26 -10q-14 0 -24 10t-10 24q0 16 10 26t24 10q16 0 26 -10t10 -26z" />
    <glyph glyph-name="Idotaccent" unicode="&#x130;" horiz-adv-x="278" 
d="M226 3v-5q-42 2 -87 2q-43 0 -87 -2v5q21 3 30 8.5t14.5 24.5t5.5 58v537q0 39 -5.5 58t-14.5 24.5t-30 8.5v5q44 -2 87 -2q45 0 87 2v-5q-21 -3 -30 -8.5t-14.5 -24.5t-5.5 -58v-537q0 -39 5.5 -58t14.5 -24.5t30 -8.5zM175 815q0 -14 -11 -24.5t-25 -10.5t-24.5 10.5
t-10.5 24.5t10.5 24.5t24.5 10.5t25 -10.5t11 -24.5z" />
    <glyph glyph-name="dotlessi" unicode="&#x131;" horiz-adv-x="212" 
d="M182 3v-5q-44 2 -75 2t-75 -2v5q25 5 34 20t9 71v300q0 29 -5 38.5t-26 15.5v5q55 4 95 22v-381q0 -56 9 -71t34 -20z" />
    <glyph glyph-name="IJ" unicode="&#x132;" horiz-adv-x="555" 
d="M226 3v-5q-42 2 -87 2q-43 0 -87 -2v5q21 3 30 8.5t14.5 24.5t5.5 58v537q0 39 -5.5 58t-14.5 24.5t-30 8.5v5q44 -2 87 -2q45 0 87 2v-5q-21 -3 -30 -8.5t-14.5 -24.5t-5.5 -58v-537q0 -39 5.5 -58t14.5 -24.5t30 -8.5zM299 -199l-1 5q52 10 67 33.5t15 91.5v700
q0 38 -9 58t-19.5 24.5t-34.5 8.5v5q44 -2 100 -2q54 0 96 2v-5q-24 -5 -33.5 -9.5t-17.5 -24t-8 -57.5v-613q0 -99 -32 -152t-123 -65z" />
    <glyph glyph-name="ij" unicode="&#x133;" horiz-adv-x="406" 
d="M182 3v-5q-44 2 -75 2t-75 -2v5q25 5 34 20t9 71v300q0 29 -5 38.5t-26 15.5v5q55 4 95 22v-381q0 -56 9 -71t34 -20zM148 588q0 -14 -10 -24t-26 -10q-14 0 -24 10t-10 24q0 16 10 26t24 10q16 0 26 -10t10 -26zM202 -224l1 7q50 0 61 45.5t11 194.5v371q0 29 -5 38.5
t-26 15.5v5q55 4 95 22v-487q0 -47 -3.5 -79t-15 -65.5t-38 -51t-66.5 -17.5q-8 0 -14 1zM348 588q0 -14 -10 -24t-26 -10q-14 0 -24 10t-10 24q0 16 10 26t24 10q16 0 26 -10t10 -26z" />
    <glyph glyph-name="Jcircumflex" unicode="&#x134;" horiz-adv-x="277" 
d="M21 -199l-1 5q52 10 67 33.5t15 91.5v700q0 38 -9 58t-19.5 24.5t-34.5 8.5v5q44 -2 100 -2q54 0 96 2v-5q-24 -5 -33.5 -9.5t-17.5 -24t-8 -57.5v-613q0 -99 -32 -152t-123 -65zM286 780h-27l-120 115l-119 -115h-27l133 167h27z" />
    <glyph glyph-name="jcircumflex" unicode="&#x135;" horiz-adv-x="198" 
d="M-6 -224l1 7q50 0 61 45.5t11 194.5v371q0 29 -5 38.5t-26 15.5v5q55 4 95 22v-487q0 -47 -3.5 -79t-15 -65.5t-38 -51t-66.5 -17.5q-8 0 -14 1zM246 530h-27l-120 115l-119 -115h-27l133 167h27z" />
    <glyph glyph-name="Kcommaaccent" unicode="&#x136;" horiz-adv-x="570" 
d="M596 3v-5q-42 2 -91 2q-44 0 -88 -2v5q29 3 29 15q0 5 -4 11.5t-8.5 12l-13.5 16.5l-14 17l-230 279v-260q0 -39 5.5 -58t14.5 -24.5t30 -8.5v-5q-42 2 -87 2q-43 0 -87 -2v5q21 3 30 8.5t14.5 24.5t5.5 58v537q0 39 -5.5 58t-14.5 24.5t-30 8.5v5q44 -2 87 -2q45 0 87 2
v-5q-21 -3 -30 -8.5t-14.5 -24.5t-5.5 -58v-256l144 160q74 81 101 115.5t27 51.5t-29 20v5q44 -2 82 -2q47 0 89 2v-5q-44 -8 -120 -81q-42 -41 -237 -246l272 -322l35 -40.5t25 -20.5t31 -9zM290 -225l-4 2q40 32 40 84q0 9 -2 17q-7 -4 -15 -4q-16 0 -24.5 10t-8.5 25
q0 17 10 27.5t24 10.5q17 0 30.5 -15.5t13.5 -44.5q0 -36 -17 -65.5t-47 -46.5z" />
    <glyph glyph-name="kcommaaccent" unicode="&#x137;" horiz-adv-x="448" 
d="M473 3v-5q-78 2 -91 2q-5 0 -59 -2v5q18 2 18 8q0 4 -7 13l-199 224v-154q0 -56 9 -71t34 -20v-5q-44 2 -75 2t-75 -2v5q25 5 34 20t9 71v587q0 29 -5 38.5t-26 15.5v5q55 4 95 22v-501q94 88 133 130.5t39 62.5q0 14 -24 18v5q46 -2 71 -2q23 0 71 2v-6q-36 -7 -72 -35
t-166 -149l62 -70.5l52 -59l41 -46.5l33.5 -37.5l26 -27.5t22 -20.5t17.5 -12.5t16.5 -8t15.5 -2zM227 -225l-4 2q40 32 40 84q0 9 -2 17q-7 -4 -15 -4q-16 0 -24.5 10t-8.5 25q0 17 10 27.5t24 10.5q17 0 30.5 -15.5t13.5 -44.5q0 -36 -17 -65.5t-47 -46.5z" />
    <glyph glyph-name="kgreenlandic" unicode="&#x138;" horiz-adv-x="456" 
d="M477 3v-5q-78 2 -91 2q-5 0 -59 -2v5q18 2 18 8q0 4 -7 13l-199 224v-154q0 -56 9 -71t34 -20v-5q-44 2 -75 2t-75 -2v5q25 5 34 20t9 71v305q0 29 -5 38.5t-26 15.5v5q55 4 95 22v-219q94 88 133 130.5t39 62.5q0 14 -24 18v5q46 -2 71 -2q23 0 71 2v-6q-36 -7 -72 -35
t-166 -149l62 -70.5l52 -59l41 -46.5l33.5 -37.5l26 -27.5t22 -20.5t17.5 -12.5t16.5 -8t15.5 -2z" />
    <glyph glyph-name="Lacute" unicode="&#x139;" horiz-adv-x="470" 
d="M454 129h5q-1 -46 -3.5 -79.5t-2.5 -52.5q-93 3 -206 3q-159 0 -201 -2v5q36 6 46.5 23t10.5 68v537q0 39 -5.5 58t-14.5 24.5t-30 8.5v5q44 -2 87 -2q45 0 87 2v-5q-21 -3 -30 -8.5t-14.5 -24.5t-5.5 -58v-595q16 -6 85 -6q48 0 68 0.5t47 3.5t35 8t19.5 17.5t15 28
t7.5 41.5zM290 893l-162 -121l-11 9l135 152z" />
    <glyph glyph-name="lacute" unicode="&#x13a;" horiz-adv-x="218" 
d="M184 3v-5q-44 2 -75 2t-75 -2v5q25 5 34 20t9 71v587q0 29 -5 38.5t-26 15.5v5q55 4 95 22v-668q0 -56 9 -71t34 -20zM236 921l-162 -121l-11 9l135 152z" />
    <glyph glyph-name="Lcommaaccent" unicode="&#x13b;" horiz-adv-x="468" 
d="M453 129h5q-1 -46 -3.5 -79.5t-2.5 -52.5q-93 3 -206 3q-159 0 -201 -2v5q36 6 46.5 23t10.5 68v537q0 39 -5.5 58t-14.5 24.5t-30 8.5v5q44 -2 87 -2q45 0 87 2v-5q-21 -3 -30 -8.5t-14.5 -24.5t-5.5 -58v-595q16 -6 85 -6q48 0 68 0.5t47 3.5t35 8t19.5 17.5t15 28
t7.5 41.5zM260 -225l-4 2q40 32 40 84q0 9 -2 17q-7 -4 -15 -4q-16 0 -24.5 10t-8.5 25q0 17 10 27.5t24 10.5q17 0 30.5 -15.5t13.5 -44.5q0 -36 -17 -65.5t-47 -46.5z" />
    <glyph glyph-name="lcommaaccent" unicode="&#x13c;" horiz-adv-x="216" 
d="M183 3v-5q-44 2 -75 2t-75 -2v5q25 5 34 20t9 71v587q0 29 -5 38.5t-26 15.5v5q55 4 95 22v-668q0 -56 9 -71t34 -20zM83 -225l-4 2q40 32 40 84q0 9 -2 17q-7 -4 -15 -4q-16 0 -24.5 10t-8.5 25q0 17 10 27.5t24 10.5q17 0 30.5 -15.5t13.5 -44.5q0 -36 -17 -65.5
t-47 -46.5z" />
    <glyph glyph-name="Lcaron" unicode="&#x13d;" horiz-adv-x="470" 
d="M454 129h5q-1 -46 -3.5 -79.5t-2.5 -52.5q-93 3 -206 3q-159 0 -201 -2v5q36 6 46.5 23t10.5 68v537q0 39 -5.5 58t-14.5 24.5t-30 8.5v5q44 -2 87 -2q45 0 87 2v-5q-21 -3 -30 -8.5t-14.5 -24.5t-5.5 -58v-595q16 -6 85 -6q48 0 68 0.5t47 3.5t35 8t19.5 17.5t15 28
t7.5 41.5zM308 554l-4 2q40 32 40 84q0 9 -2 17q-7 -4 -15 -4q-16 0 -24.5 10.5t-8.5 24.5q0 17 10 27.5t24 10.5q17 0 30.5 -15.5t13.5 -44.5q0 -36 -17 -65.5t-47 -46.5z" />
    <glyph glyph-name="lcaron" unicode="&#x13e;" horiz-adv-x="218" 
d="M184 3v-5q-44 2 -75 2t-75 -2v5q25 5 34 20t9 71v587q0 29 -5 38.5t-26 15.5v5q55 4 95 22v-668q0 -56 9 -71t34 -20zM200 554l-4 2q40 32 40 84q0 9 -2 17q-7 -4 -15 -4q-16 0 -24.5 10.5t-8.5 24.5q0 17 10 27.5t24 10.5q17 0 30.5 -15.5t13.5 -44.5q0 -36 -17 -65.5
t-47 -46.5z" />
    <glyph glyph-name="Ldot" unicode="&#x13f;" horiz-adv-x="485" 
d="M454 129h5q-1 -46 -3.5 -79.5t-2.5 -52.5q-93 3 -206 3q-159 0 -201 -2v5q36 6 46.5 23t10.5 68v537q0 39 -5.5 58t-14.5 24.5t-30 8.5v5q44 -2 87 -2q45 0 87 2v-5q-21 -3 -30 -8.5t-14.5 -24.5t-5.5 -58v-595q16 -6 85 -6q48 0 68 0.5t47 3.5t35 8t19.5 17.5t15 28
t7.5 41.5zM413 362q0 -14 -11 -24.5t-27 -10.5q-14 0 -24.5 10.5t-10.5 24.5q0 16 10.5 27t24.5 11q17 0 27.5 -11t10.5 -27z" />
    <glyph glyph-name="ldot" unicode="&#x140;" horiz-adv-x="297" 
d="M184 3v-5q-44 2 -75 2t-75 -2v5q25 5 34 20t9 71v587q0 29 -5 38.5t-26 15.5v5q55 4 95 22v-668q0 -56 9 -71t34 -20zM294 301q0 -14 -11 -24.5t-27 -10.5q-14 0 -24.5 10.5t-10.5 24.5q0 16 10.5 27t24.5 11q16 0 27 -10.5t11 -27.5z" />
    <glyph glyph-name="Lslash" unicode="&#x141;" horiz-adv-x="470" 
d="M454 129h5q-1 -46 -3.5 -79.5t-2.5 -52.5q-93 3 -206 3q-159 0 -201 -2v5q36 6 46.5 23t10.5 68v135l-80 -43v30l80 43v372q0 39 -5.5 58t-14.5 24.5t-30 8.5v5q44 -2 87 -2q45 0 87 2v-5q-21 -3 -30 -8.5t-14.5 -24.5t-5.5 -58v-332l123 67v-30l-123 -67v-233
q16 -6 85 -6q48 0 68 0.5t47 3.5t35 8t19.5 17.5t15 28t7.5 41.5z" />
    <glyph glyph-name="lslash" unicode="&#x142;" horiz-adv-x="220" 
d="M185 3v-5q-44 2 -75 2t-75 -2v5q25 5 34 20t9 71v150l-70 -38v30l70 38v407q0 29 -5 38.5t-26 15.5v5q55 4 95 22v-453l70 38v-30l-70 -38v-185q0 -56 9 -71t34 -20z" />
    <glyph glyph-name="Nacute" unicode="&#x143;" horiz-adv-x="814" 
d="M708 -22h-5l-568 632v-90q0 -373 9 -438q8 -54 32 -68q7 -4 28 -11v-5q-44 2 -85 2q-37 0 -79 -2v5q32 12 41 26q19 29 22 179q2 76 2 313v221h7l566 -629v89q0 379 -10 446q-8 51 -33 64q-6 4 -23 9q-2 1 -3 1v5q44 -2 85 -2t83 2v-5q-33 -11 -43 -24q-20 -28 -24 -171
q-2 -79 -2 -319v-230zM533 893l-162 -121l-11 9l135 152z" />
    <glyph glyph-name="nacute" unicode="&#x144;" horiz-adv-x="512" 
d="M489 3v-5q-44 2 -75 2t-75 -2v5q25 5 34 20t9 71v218q0 85 -33.5 116.5t-88.5 31.5q-64 0 -121 -41v-325q0 -56 9 -71t34 -20v-5q-44 2 -75 2t-75 -2v5q25 5 34 20t9 71v305q0 29 -5 38.5t-26 15.5v5q55 4 95 22v-40q64 40 146 40q161 0 161 -163v-223q0 -56 9 -71
t34 -20zM384 643l-162 -121l-11 9l135 152z" />
    <glyph glyph-name="Ncommaaccent" unicode="&#x145;" horiz-adv-x="813" 
d="M708 -22h-5l-568 632v-90q0 -373 9 -438q8 -54 32 -68q7 -4 28 -11v-5q-44 2 -85 2q-37 0 -79 -2v5q32 12 41 26q19 29 22 179q2 76 2 313v221h7l566 -629v89q0 379 -10 446q-8 51 -33 64q-6 4 -23 9q-2 1 -3 1v5q44 -2 85 -2t83 2v-5q-33 -11 -43 -24q-20 -28 -24 -171
q-2 -79 -2 -319v-230zM391 -225l-4 2q40 32 40 84q0 9 -2 17q-7 -4 -15 -4q-16 0 -24.5 10t-8.5 25q0 17 10 27.5t24 10.5q17 0 30.5 -15.5t13.5 -44.5q0 -36 -17 -65.5t-47 -46.5z" />
    <glyph glyph-name="ncommaaccent" unicode="&#x146;" horiz-adv-x="510" 
d="M487 3v-5q-44 2 -75 2t-75 -2v5q25 5 34 20t9 71v218q0 85 -33.5 116.5t-88.5 31.5q-64 0 -121 -41v-325q0 -56 9 -71t34 -20v-5q-44 2 -75 2t-75 -2v5q25 5 34 20t9 71v305q0 29 -5 38.5t-26 15.5v5q55 4 95 22v-40q64 40 146 40q161 0 161 -163v-223q0 -56 9 -71
t34 -20zM240 -225l-4 2q40 32 40 84q0 9 -2 17q-7 -4 -15 -4q-16 0 -24.5 10t-8.5 25q0 17 10 27.5t24 10.5q17 0 30.5 -15.5t13.5 -44.5q0 -36 -17 -65.5t-47 -46.5z" />
    <glyph glyph-name="Ncaron" unicode="&#x147;" horiz-adv-x="814" 
d="M708 -22h-5l-568 632v-90q0 -373 9 -438q8 -54 32 -68q7 -4 28 -11v-5q-44 2 -85 2q-37 0 -79 -2v5q32 12 41 26q19 29 22 179q2 76 2 313v221h7l566 -629v89q0 379 -10 446q-8 51 -33 64q-6 4 -23 9q-2 1 -3 1v5q44 -2 85 -2t83 2v-5q-33 -11 -43 -24q-20 -28 -24 -171
q-2 -79 -2 -319v-230zM429 780h-27l-133 167h27l119 -115l120 115h27z" />
    <glyph glyph-name="ncaron" unicode="&#x148;" horiz-adv-x="512" 
d="M489 3v-5q-44 2 -75 2t-75 -2v5q25 5 34 20t9 71v218q0 85 -33.5 116.5t-88.5 31.5q-64 0 -121 -41v-325q0 -56 9 -71t34 -20v-5q-44 2 -75 2t-75 -2v5q25 5 34 20t9 71v305q0 29 -5 38.5t-26 15.5v5q55 4 95 22v-40q64 40 146 40q161 0 161 -163v-223q0 -56 9 -71
t34 -20zM271 530h-27l-133 167h27l119 -115l120 115h27z" />
    <glyph glyph-name="Eng" unicode="&#x14a;" horiz-adv-x="813" 
d="M583 -199l-1 5q49 9 65.5 40t16.5 85v90l-529 589v-90q0 -373 9 -438q8 -54 32 -68q7 -4 28 -11v-5q-44 2 -85 2q-37 0 -79 -2v5q32 12 41 26q19 29 22 179q2 76 2 313v221h7l566 -629v89q0 379 -10 446q-8 51 -33 64q-6 4 -23 9q-2 1 -3 1v5q44 -2 85 -2t83 2v-5
q-33 -11 -43 -24q-20 -28 -24 -171q-2 -79 -2 -319v-190q0 -100 -25.5 -152.5t-99.5 -64.5z" />
    <glyph glyph-name="eng" unicode="&#x14b;" horiz-adv-x="506" 
d="M309 -220l1 7q50 0 61 45.5t11 194.5v285q0 85 -33.5 116.5t-88.5 31.5q-64 0 -121 -41v-325q0 -56 9 -71t34 -20v-5q-44 2 -75 2t-75 -2v5q25 5 34 20t9 71v305q0 29 -5 38.5t-26 15.5v5q55 4 95 22v-40q64 40 146 40q161 0 161 -163v-325q0 -47 -3.5 -79t-15 -65.5
t-38 -51t-66.5 -17.5q-8 0 -14 1z" />
    <glyph glyph-name="Omacron" unicode="&#x14c;" 
d="M396 -10q-159 0 -258.5 110t-99.5 256q0 96 43 181t128.5 140t194.5 55q148 0 252 -107t104 -266q0 -154 -104.5 -261.5t-259.5 -107.5zM396 13q120 0 196 87t76 253q0 177 -80 267t-192 90q-52 0 -98 -20.5t-84 -61t-60.5 -110t-22.5 -159.5q0 -172 74 -259t191 -87z
M535 830v-30q-46 1 -137 1t-136 -1v30q90 -2 136 -2q45 0 137 2z" />
    <glyph glyph-name="omacron" unicode="&#x14d;" horiz-adv-x="547" 
d="M277 -6q-114 0 -179 64t-65 176q0 107 69 176.5t173 69.5t171.5 -70t67.5 -176q0 -101 -65 -170.5t-172 -69.5zM273 7q48 0 81 20t49 56t22 73t6 85q0 226 -163 226q-152 0 -152 -242q0 -218 157 -218zM410 580v-30q-46 1 -137 1t-136 -1v30q90 -2 136 -2q45 0 137 2z
" />
    <glyph glyph-name="Obreve" unicode="&#x14e;" 
d="M396 -10q-159 0 -258.5 110t-99.5 256q0 96 43 181t128.5 140t194.5 55q148 0 252 -107t104 -266q0 -154 -104.5 -261.5t-259.5 -107.5zM396 13q120 0 196 87t76 253q0 177 -80 267t-192 90q-52 0 -98 -20.5t-84 -61t-60.5 -110t-22.5 -159.5q0 -172 74 -259t191 -87z
M507 913h22q0 -50 -36 -91.5t-94 -41.5q-59 0 -95 41.5t-36 91.5h22q17 -96 108 -96q49 0 72 23t37 73z" />
    <glyph glyph-name="obreve" unicode="&#x14f;" horiz-adv-x="547" 
d="M277 -6q-114 0 -179 64t-65 176q0 107 69 176.5t173 69.5t171.5 -70t67.5 -176q0 -101 -65 -170.5t-172 -69.5zM273 7q48 0 81 20t49 56t22 73t6 85q0 226 -163 226q-152 0 -152 -242q0 -218 157 -218zM382 663h22q0 -50 -36 -91.5t-94 -41.5q-59 0 -95 41.5t-36 91.5h22
q17 -96 108 -96q49 0 72 23t37 73z" />
    <glyph glyph-name="Ohungarumlaut" unicode="&#x150;" 
d="M396 -10q-159 0 -258.5 110t-99.5 256q0 96 43 181t128.5 140t194.5 55q148 0 252 -107t104 -266q0 -154 -104.5 -261.5t-259.5 -107.5zM396 13q120 0 196 87t76 253q0 177 -80 267t-192 90q-52 0 -98 -20.5t-84 -61t-60.5 -110t-22.5 -159.5q0 -172 74 -259t191 -87z
M464 893l-162 -121l-11 9l135 152zM606 893l-162 -121l-11 9l135 152z" />
    <glyph glyph-name="ohungarumlaut" unicode="&#x151;" horiz-adv-x="547" 
d="M277 -6q-114 0 -179 64t-65 176q0 107 69 176.5t173 69.5t171.5 -70t67.5 -176q0 -101 -65 -170.5t-172 -69.5zM273 7q48 0 81 20t49 56t22 73t6 85q0 226 -163 226q-152 0 -152 -242q0 -218 157 -218zM324 643l-162 -121l-11 9l135 152zM466 643l-162 -121l-11 9
l135 152z" />
    <glyph glyph-name="OE" unicode="&#x152;" horiz-adv-x="1059" 
d="M1020 129h5q-1 -46 -3.5 -79.5t-2.5 -52.5q-93 3 -206 3q-159 0 -201 -2v5q36 6 46.5 23t10.5 68v18q-107 -122 -273 -122q-159 0 -258.5 110t-99.5 256q0 96 43 181t128.5 140t194.5 55q78 0 147 -32t118 -89v20q0 56 -11.5 70.5t-48.5 20.5v5q40 -2 128 -2q233 0 278 2
q0 -2 0.5 -17.5t0.5 -24.5q0 -57 -6 -82h-5q0 64 -31 78t-147 14q-61 0 -84 -6v-298q54 0 79 0.5t52.5 3.5t37 6.5t20 13.5t13.5 21t7 32h5q-2 -62 -2 -93q0 -34 2 -102h-5q-4 24 -7 36.5t-13.5 24t-19.5 16t-37 7.5t-53 3.5t-79 0.5v-325q17 -6 85 -6q48 0 68 0.5t47 3.5
t35 8t19.5 17.5t15 28t7.5 41.5zM396 13q120 0 196 87t76 253q0 177 -80 267t-192 90q-52 0 -98 -20.5t-84 -61t-60.5 -110t-22.5 -159.5q0 -172 74 -259t191 -87z" />
    <glyph glyph-name="oe" unicode="&#x153;" horiz-adv-x="863" 
d="M832 72l4 -4q-63 -78 -166 -78q-133 0 -198 102q-68 -98 -195 -98q-114 0 -179 64t-65 176q0 107 69 176.5t173 69.5q62 0 113 -27t83 -74q28 47 73.5 74t100.5 27q77 0 130.5 -50t53.5 -127h-314q-2 -20 -2 -34q0 -116 54.5 -181t142.5 -65q69 0 122 49zM273 7
q48 0 81 20t49 56t22 73t6 85q0 226 -163 226q-152 0 -152 -242q0 -218 157 -218zM517 323h230q-3 68 -30.5 106t-73.5 38t-80.5 -39.5t-45.5 -104.5z" />
    <glyph glyph-name="Racute" unicode="&#x154;" horiz-adv-x="552" 
d="M554 3v-6q-9 -1 -25 -1q-43 2 -63.5 6.5t-48 32t-50.5 67.5t-71 132l-10.5 20l-14 27t-14.5 24t-17 20h-64v-231q0 -39 5.5 -58t14.5 -24.5t30 -8.5v-5q-42 2 -87 2q-43 0 -87 -2v5q21 3 30 8.5t14.5 24.5t5.5 58v537q0 50 -9.5 68t-38.5 23v5q34 -2 96 -2q16 0 55 1
t49 1q111 0 173.5 -55.5t62.5 -144.5q0 -67 -44.5 -120t-129.5 -72q11 -8 52 -86t92.5 -155t93.5 -91zM176 346h48q101 0 141.5 44.5t40.5 123.5q0 83 -41.5 136.5t-116.5 53.5q-36 0 -72 -10v-348zM384 893l-162 -121l-11 9l135 152z" />
    <glyph glyph-name="racute" unicode="&#x155;" horiz-adv-x="313" 
d="M182 3v-5q-44 2 -75 2t-75 -2v5q25 5 34 20t9 71v305q0 29 -5 38.5t-26 15.5v5q55 4 95 22v-46q53 46 100 46q64 0 64 -83h-64q0 52 -37 52q-30 0 -63 -38v-317q0 -56 9 -71t34 -20zM300 643l-162 -121l-11 9l135 152z" />
    <glyph glyph-name="Rcommaaccent" unicode="&#x156;" horiz-adv-x="552" 
d="M554 3v-6q-9 -1 -25 -1q-43 2 -63.5 6.5t-48 32t-50.5 67.5t-71 132l-10.5 20l-14 27t-14.5 24t-17 20h-64v-231q0 -39 5.5 -58t14.5 -24.5t30 -8.5v-5q-42 2 -87 2q-43 0 -87 -2v5q21 3 30 8.5t14.5 24.5t5.5 58v537q0 50 -9.5 68t-38.5 23v5q34 -2 96 -2q16 0 55 1
t49 1q111 0 173.5 -55.5t62.5 -144.5q0 -67 -44.5 -120t-129.5 -72q11 -8 52 -86t92.5 -155t93.5 -91zM176 346h48q101 0 141.5 44.5t40.5 123.5q0 83 -41.5 136.5t-116.5 53.5q-36 0 -72 -10v-348zM302 -225l-4 2q40 32 40 84q0 9 -2 17q-7 -4 -15 -4q-16 0 -24.5 10
t-8.5 25q0 17 10 27.5t24 10.5q17 0 30.5 -15.5t13.5 -44.5q0 -36 -17 -65.5t-47 -46.5z" />
    <glyph glyph-name="rcommaaccent" unicode="&#x157;" horiz-adv-x="310" 
d="M180 3v-5q-44 2 -75 2t-75 -2v5q25 5 34 20t9 71v305q0 29 -5 38.5t-26 15.5v5q55 4 95 22v-46q53 46 100 46q64 0 64 -83h-64q0 52 -37 52q-30 0 -63 -38v-317q0 -56 9 -71t34 -20zM87 -225l-4 2q40 32 40 84q0 9 -2 17q-7 -4 -15 -4q-16 0 -24.5 10t-8.5 25
q0 17 10 27.5t24 10.5q17 0 30.5 -15.5t13.5 -44.5q0 -36 -17 -65.5t-47 -46.5z" />
    <glyph glyph-name="Rcaron" unicode="&#x158;" horiz-adv-x="552" 
d="M554 3v-6q-9 -1 -25 -1q-43 2 -63.5 6.5t-48 32t-50.5 67.5t-71 132l-10.5 20l-14 27t-14.5 24t-17 20h-64v-231q0 -39 5.5 -58t14.5 -24.5t30 -8.5v-5q-42 2 -87 2q-43 0 -87 -2v5q21 3 30 8.5t14.5 24.5t5.5 58v537q0 50 -9.5 68t-38.5 23v5q34 -2 96 -2q16 0 55 1
t49 1q111 0 173.5 -55.5t62.5 -144.5q0 -67 -44.5 -120t-129.5 -72q11 -8 52 -86t92.5 -155t93.5 -91zM176 346h48q101 0 141.5 44.5t40.5 123.5q0 83 -41.5 136.5t-116.5 53.5q-36 0 -72 -10v-348zM270 780h-27l-133 167h27l119 -115l120 115h27z" />
    <glyph glyph-name="rcaron" unicode="&#x159;" horiz-adv-x="313" 
d="M182 3v-5q-44 2 -75 2t-75 -2v5q25 5 34 20t9 71v305q0 29 -5 38.5t-26 15.5v5q55 4 95 22v-46q53 46 100 46q64 0 64 -83h-64q0 52 -37 52q-30 0 -63 -38v-317q0 -56 9 -71t34 -20zM185 530h-27l-133 167h27l119 -115l120 115h27z" />
    <glyph glyph-name="Sacute" unicode="&#x15a;" horiz-adv-x="456" 
d="M59 166h5q-2 -18 -2 -25q0 -58 46.5 -92t110.5 -34q56 0 96 35t40 100q0 40 -16.5 74t-43 57.5t-58.5 46l-64 45t-58.5 48t-43 62t-16.5 80.5q0 80 52 129.5t133 49.5q31 0 73.5 -8t59.5 -8q11 0 17 1q-3 -31 -3 -66q0 -40 1 -55h-6q-22 115 -140 115q-52 0 -87 -28.5
t-35 -84.5q0 -44 22 -81t55 -60.5l72 -51.5t72 -55t55 -70t22 -97q0 -92 -59 -147.5t-149 -55.5q-36 0 -79 9.5t-65 9.5q-9 0 -15 -1q1 5 1 26q0 11 -2.5 33.5t-2.5 35.5q0 36 12 63zM339 893l-162 -121l-11 9l135 152z" />
    <glyph glyph-name="sacute" unicode="&#x15b;" horiz-adv-x="361" 
d="M311 365h-5q-8 43 -36.5 72.5t-75.5 29.5q-38 0 -63 -23.5t-25 -64.5q0 -32 22.5 -55.5t55 -40t65 -35.5t55 -51.5t22.5 -78.5q0 -61 -48 -94.5t-112 -33.5q-66 0 -126 32q3 14 5 55.5t7 63.5h5q-1 -6 -1 -19q0 -52 26.5 -85t83.5 -33q41 0 66.5 25t25.5 71
q0 35 -22.5 61t-54.5 42.5l-63.5 34t-54 48t-22.5 72.5q0 59 47.5 90.5t109.5 31.5q57 0 114 -17q-3 -15 -3 -32q0 -2 2 -66zM282 643l-162 -121l-11 9l135 152z" />
    <glyph glyph-name="Scircumflex" unicode="&#x15c;" horiz-adv-x="456" 
d="M59 166h5q-2 -18 -2 -25q0 -58 46.5 -92t110.5 -34q56 0 96 35t40 100q0 40 -16.5 74t-43 57.5t-58.5 46l-64 45t-58.5 48t-43 62t-16.5 80.5q0 80 52 129.5t133 49.5q31 0 73.5 -8t59.5 -8q11 0 17 1q-3 -31 -3 -66q0 -40 1 -55h-6q-22 115 -140 115q-52 0 -87 -28.5
t-35 -84.5q0 -44 22 -81t55 -60.5l72 -51.5t72 -55t55 -70t22 -97q0 -92 -59 -147.5t-149 -55.5q-36 0 -79 9.5t-65 9.5q-9 0 -15 -1q1 5 1 26q0 11 -2.5 33.5t-2.5 35.5q0 36 12 63zM379 780h-27l-120 115l-119 -115h-27l133 167h27z" />
    <glyph glyph-name="scircumflex" unicode="&#x15d;" horiz-adv-x="361" 
d="M311 365h-5q-8 43 -36.5 72.5t-75.5 29.5q-38 0 -63 -23.5t-25 -64.5q0 -32 22.5 -55.5t55 -40t65 -35.5t55 -51.5t22.5 -78.5q0 -61 -48 -94.5t-112 -33.5q-66 0 -126 32q3 14 5 55.5t7 63.5h5q-1 -6 -1 -19q0 -52 26.5 -85t83.5 -33q41 0 66.5 25t25.5 71
q0 35 -22.5 61t-54.5 42.5l-63.5 34t-54 48t-22.5 72.5q0 59 47.5 90.5t109.5 31.5q57 0 114 -17q-3 -15 -3 -32q0 -2 2 -66zM332 530h-27l-120 115l-119 -115h-27l133 167h27z" />
    <glyph glyph-name="Scedilla" unicode="&#x15e;" horiz-adv-x="457" 
d="M168 -145h3q16 -28 53 -28q22 0 37 13t15 37q0 19 -12.5 33t-31.5 14q-22 0 -42 -18h-2l39 85q-5 -1 -17 -1q-36 0 -79 9.5t-65 9.5q-9 0 -15 -1q1 5 1 26q0 11 -2.5 33.5t-2.5 35.5q0 36 12 63h5q-2 -18 -2 -25q0 -58 46.5 -92t110.5 -34q56 0 96 35t40 100
q0 40 -16.5 74t-43 57.5t-58.5 46l-64 45t-58.5 48t-43 62t-16.5 80.5q0 80 52 129.5t133 49.5q31 0 73.5 -8t59.5 -8q11 0 17 1q-3 -31 -3 -66q0 -40 1 -55h-6q-22 115 -140 115q-52 0 -87 -28.5t-35 -84.5q0 -44 22 -81t55 -60.5l72 -51.5t72 -55t55 -70t22 -97
q0 -83 -49 -137t-127 -64l-18 -49q12 4 25 4q28 0 47.5 -19t19.5 -50q0 -33 -24 -53t-55 -20q-25 0 -44 13t-25 37z" />
    <glyph glyph-name="scedilla" unicode="&#x15f;" horiz-adv-x="363" 
d="M128 -145h3q16 -28 53 -28q22 0 37 13t15 37q0 19 -12.5 33t-31.5 14q-22 0 -42 -18h-2l39 85q-3 0 -10 -0.5t-10 -0.5q-66 0 -126 32q3 14 5 55.5t7 63.5h5q-1 -6 -1 -19q0 -52 26.5 -85t83.5 -33q41 0 66.5 25t25.5 71q0 35 -22.5 61t-54.5 42.5l-63.5 34t-54 48
t-22.5 72.5q0 59 47.5 90.5t109.5 31.5q57 0 114 -17q-3 -15 -3 -32q0 -2 2 -66h-5q-8 43 -36.5 72.5t-75.5 29.5q-38 0 -63 -23.5t-25 -64.5q0 -32 22.5 -55.5t55 -40t65 -35.5t55 -51.5t22.5 -78.5q0 -52 -36 -84.5t-89 -40.5l-18 -50q12 4 25 4q28 0 47.5 -19t19.5 -50
q0 -33 -24 -53t-55 -20q-25 0 -44 13t-25 37z" />
    <glyph glyph-name="Scaron" unicode="&#x160;" horiz-adv-x="456" 
d="M59 166h5q-2 -18 -2 -25q0 -58 46.5 -92t110.5 -34q56 0 96 35t40 100q0 40 -16.5 74t-43 57.5t-58.5 46l-64 45t-58.5 48t-43 62t-16.5 80.5q0 80 52 129.5t133 49.5q31 0 73.5 -8t59.5 -8q11 0 17 1q-3 -31 -3 -66q0 -40 1 -55h-6q-22 115 -140 115q-52 0 -87 -28.5
t-35 -84.5q0 -44 22 -81t55 -60.5l72 -51.5t72 -55t55 -70t22 -97q0 -92 -59 -147.5t-149 -55.5q-36 0 -79 9.5t-65 9.5q-9 0 -15 -1q1 5 1 26q0 11 -2.5 33.5t-2.5 35.5q0 36 12 63zM236 780h-27l-133 167h27l119 -115l120 115h27z" />
    <glyph glyph-name="scaron" unicode="&#x161;" horiz-adv-x="361" 
d="M311 365h-5q-8 43 -36.5 72.5t-75.5 29.5q-38 0 -63 -23.5t-25 -64.5q0 -32 22.5 -55.5t55 -40t65 -35.5t55 -51.5t22.5 -78.5q0 -61 -48 -94.5t-112 -33.5q-66 0 -126 32q3 14 5 55.5t7 63.5h5q-1 -6 -1 -19q0 -52 26.5 -85t83.5 -33q41 0 66.5 25t25.5 71
q0 35 -22.5 61t-54.5 42.5l-63.5 34t-54 48t-22.5 72.5q0 59 47.5 90.5t109.5 31.5q57 0 114 -17q-3 -15 -3 -32q0 -2 2 -66zM192 530h-27l-133 167h27l119 -115l120 115h27z" />
    <glyph glyph-name="Tcommaaccent" unicode="&#x162;" horiz-adv-x="546" 
d="M365 3v-5q-42 2 -87 2q-43 0 -87 -2v5q21 3 30 8.5t14.5 24.5t5.5 58v593q-130 0 -172 -9.5t-63 -54.5h-5q3 16 15 54t19 73h5q2 -23 36 -28t181 -5q179 0 225.5 3.5t67.5 21.5h6q-5 -12 -16.5 -51.5t-14.5 -55.5h-6q2 8 2 15q0 12 -7 19t-30.5 11t-61.5 5.5t-107 1.5
v-593q0 -39 5.5 -58t14.5 -24.5t30 -8.5zM253 -225l-4 2q40 32 40 84q0 9 -2 17q-7 -4 -15 -4q-16 0 -24.5 10t-8.5 25q0 17 10 27.5t24 10.5q17 0 30.5 -15.5t13.5 -44.5q0 -36 -17 -65.5t-47 -46.5z" />
    <glyph glyph-name="tcommaaccent" unicode="&#x163;" horiz-adv-x="291" 
d="M282 72l5 -3q-32 -79 -115 -79q-49 0 -76 23t-27 96v305q0 31 -9 40.5t-40 14.5v5q46 0 77.5 37t44.5 95h6q-15 -85 -15 -131h82q40 0 54 4t25 21l6 -6l-14 -20t-16 -25.5t-11 -25.5h-8q2 6 2 11q0 12 -10.5 16.5t-37.5 4.5h-72v-344q0 -51 16 -72t55 -21q55 0 78 54z
M151 -225l-4 2q40 32 40 84q0 9 -2 17q-7 -4 -15 -4q-16 0 -24.5 10t-8.5 25q0 17 10 27.5t24 10.5q17 0 30.5 -15.5t13.5 -44.5q0 -36 -17 -65.5t-47 -46.5z" />
    <glyph glyph-name="Tcaron" unicode="&#x164;" horiz-adv-x="546" 
d="M366 3v-5q-42 2 -87 2q-43 0 -87 -2v5q21 3 30 8.5t14.5 24.5t5.5 58v593q-130 0 -172 -9.5t-63 -54.5h-5q3 16 15 54t19 73h5q2 -23 36 -28t181 -5q179 0 225.5 3.5t67.5 21.5h6q-5 -12 -16.5 -51.5t-14.5 -55.5h-6q2 8 2 15q0 12 -7 19t-30.5 11t-61.5 5.5t-107 1.5
v-593q0 -39 5.5 -58t14.5 -24.5t30 -8.5zM292 780h-27l-133 167h27l119 -115l120 115h27z" />
    <glyph glyph-name="tcaron" unicode="&#x165;" horiz-adv-x="292" 
d="M283 72l5 -3q-32 -79 -115 -79q-49 0 -76 23t-27 96v305q0 31 -9 40.5t-40 14.5v5q46 0 77.5 37t44.5 95h6q-15 -85 -15 -131h82q40 0 54 4t25 21l6 -6l-14 -20t-16 -25.5t-11 -25.5h-8q2 6 2 11q0 12 -10.5 16.5t-37.5 4.5h-72v-344q0 -51 16 -72t55 -21q55 0 78 54z
M231 553l-4 2q40 32 40 84q0 9 -2 17q-7 -4 -15 -4q-16 0 -24.5 10t-8.5 25q0 17 10 27.5t24 10.5q17 0 30.5 -15.5t13.5 -44.5q0 -36 -17 -65.5t-47 -46.5z" />
    <glyph glyph-name="Tbar" unicode="&#x166;" horiz-adv-x="546" 
d="M366 3v-5q-42 2 -87 2q-43 0 -87 -2v5q21 3 30 8.5t14.5 24.5t5.5 58v369q-88 0 -132 -1v33q88 -2 132 -2v194q-130 0 -172 -9.5t-63 -54.5h-5q3 16 15 54t19 73h5q2 -23 36 -28t181 -5q179 0 225.5 3.5t67.5 21.5h6q-5 -12 -16.5 -51.5t-14.5 -55.5h-6q2 8 2 15
q0 12 -7 19t-30.5 11t-61.5 5.5t-107 1.5v-194q43 0 133 2v-33q-45 1 -133 1v-369q0 -39 5.5 -58t14.5 -24.5t30 -8.5z" />
    <glyph glyph-name="tbar" unicode="&#x167;" horiz-adv-x="293" 
d="M284 72l5 -3q-32 -79 -115 -79q-49 0 -76 23t-27 96v218q-20 -1 -58 -1l-1 28q10 0 29.5 -0.5t29.5 -0.5v61q0 31 -9 40.5t-40 14.5v5q46 0 77.5 37t44.5 95h6q-15 -85 -15 -131h82q40 0 54.5 4t24.5 21l6 -6l-14 -20t-16 -25.5t-11 -25.5h-8q2 6 2 11q0 12 -10.5 16.5
t-37.5 4.5h-72v-102q66 0 100 1v-28q-67 0 -100 1v-216q0 -51 16 -72t55 -21q55 0 78 54z" />
    <glyph glyph-name="Utilde" unicode="&#x168;" horiz-adv-x="684" 
d="M560 260v328q0 44 -2 67t-13.5 37t-21 17.5t-38.5 11.5v5q44 -2 91 -2q41 0 83 2v-5q-33 -9 -44.5 -16.5t-18 -32.5t-6.5 -83v-315q0 -165 -69 -228q-68 -62 -171 -62q-116 0 -182 52q-80 62 -80 223v372q0 39 -5.5 58t-14.5 24.5t-30 8.5v5q44 -2 87 -2q52 0 94 2v-5
q-33 -4 -45 -19.5t-12 -71.5v-361q0 -154 50 -201q56 -53 142 -53q91 0 143 52q63 62 63 192zM489 867h9q-5 -31 -27.5 -59t-61.5 -28q-25 0 -68 23t-69 23q-23 0 -33.5 -9.5t-19.5 -36.5h-10q6 36 29 59.5t55 23.5q25 0 69 -23t70 -23q42 0 57 50z" />
    <glyph glyph-name="utilde" unicode="&#x169;" horiz-adv-x="522" 
d="M503 46l2 -5q-10 -16 -17 -25t-22 -17.5t-33 -8.5q-56 0 -56 92q-56 -92 -161 -92q-151 0 -151 173v236q0 27 -9.5 38t-39.5 16v5q82 5 113 22v-312q0 -80 26.5 -115.5t85.5 -35.5q91 0 136 89v293q0 29 -7.5 39t-36.5 15v5q76 5 108 22v-385q0 -16 0.5 -24t2.5 -19.5
t8 -17t15 -5.5q18 0 36 17zM391 617h9q-5 -31 -27.5 -59t-61.5 -28q-25 0 -68 23t-69 23q-23 0 -33.5 -9.5t-19.5 -36.5h-10q6 36 29 59.5t55 23.5q25 0 69 -23t70 -23q42 0 57 50z" />
    <glyph glyph-name="Umacron" unicode="&#x16a;" horiz-adv-x="684" 
d="M560 260v328q0 44 -2 67t-13.5 37t-21 17.5t-38.5 11.5v5q44 -2 91 -2q41 0 83 2v-5q-33 -9 -44.5 -16.5t-18 -32.5t-6.5 -83v-315q0 -165 -69 -228q-68 -62 -171 -62q-116 0 -182 52q-80 62 -80 223v372q0 39 -5.5 58t-14.5 24.5t-30 8.5v5q44 -2 87 -2q52 0 94 2v-5
q-33 -4 -45 -19.5t-12 -71.5v-361q0 -154 50 -201q56 -53 142 -53q91 0 143 52q63 62 63 192zM488 830v-30q-46 1 -137 1t-136 -1v30q90 -2 136 -2q45 0 137 2z" />
    <glyph glyph-name="umacron" unicode="&#x16b;" horiz-adv-x="522" 
d="M503 46l2 -5q-10 -16 -17 -25t-22 -17.5t-33 -8.5q-56 0 -56 92q-56 -92 -161 -92q-151 0 -151 173v236q0 27 -9.5 38t-39.5 16v5q82 5 113 22v-312q0 -80 26.5 -115.5t85.5 -35.5q91 0 136 89v293q0 29 -7.5 39t-36.5 15v5q76 5 108 22v-385q0 -16 0.5 -24t2.5 -19.5
t8 -17t15 -5.5q18 0 36 17zM382 580v-30q-46 1 -137 1t-136 -1v30q90 -2 136 -2q45 0 137 2z" />
    <glyph glyph-name="Ubreve" unicode="&#x16c;" horiz-adv-x="684" 
d="M560 260v328q0 44 -2 67t-13.5 37t-21 17.5t-38.5 11.5v5q44 -2 91 -2q41 0 83 2v-5q-33 -9 -44.5 -16.5t-18 -32.5t-6.5 -83v-315q0 -165 -69 -228q-68 -62 -171 -62q-116 0 -182 52q-80 62 -80 223v372q0 39 -5.5 58t-14.5 24.5t-30 8.5v5q44 -2 87 -2q52 0 94 2v-5
q-33 -4 -45 -19.5t-12 -71.5v-361q0 -154 50 -201q56 -53 142 -53q91 0 143 52q63 62 63 192zM467 913h22q0 -50 -36 -91.5t-94 -41.5q-59 0 -95 41.5t-36 91.5h22q17 -96 108 -96q49 0 72 23t37 73z" />
    <glyph glyph-name="ubreve" unicode="&#x16d;" horiz-adv-x="522" 
d="M503 46l2 -5q-10 -16 -17 -25t-22 -17.5t-33 -8.5q-56 0 -56 92q-56 -92 -161 -92q-151 0 -151 173v236q0 27 -9.5 38t-39.5 16v5q82 5 113 22v-312q0 -80 26.5 -115.5t85.5 -35.5q91 0 136 89v293q0 29 -7.5 39t-36.5 15v5q76 5 108 22v-385q0 -16 0.5 -24t2.5 -19.5
t8 -17t15 -5.5q18 0 36 17zM354 663h22q0 -50 -36 -91.5t-94 -41.5q-59 0 -95 41.5t-36 91.5h22q17 -96 108 -96q49 0 72 23t37 73z" />
    <glyph glyph-name="Uring" unicode="&#x16e;" horiz-adv-x="684" 
d="M560 260v328q0 44 -2 67t-13.5 37t-21 17.5t-38.5 11.5v5q44 -2 91 -2q41 0 83 2v-5q-33 -9 -44.5 -16.5t-18 -32.5t-6.5 -83v-315q0 -165 -69 -228q-68 -62 -171 -62q-116 0 -182 52q-80 62 -80 223v372q0 39 -5.5 58t-14.5 24.5t-30 8.5v5q44 -2 87 -2q52 0 94 2v-5
q-33 -4 -45 -19.5t-12 -71.5v-361q0 -154 50 -201q56 -53 142 -53q91 0 143 52q63 62 63 192zM442 845q0 -34 -24.5 -58.5t-59.5 -24.5q-34 0 -58.5 24t-24.5 59t24.5 59t59.5 24q34 0 58.5 -24.5t24.5 -58.5zM415 845q0 23 -16.5 39t-39.5 16t-39.5 -16t-16.5 -39t16.5 -39
t38.5 -16q24 0 40.5 16t16.5 39z" />
    <glyph glyph-name="uring" unicode="&#x16f;" horiz-adv-x="522" 
d="M503 46l2 -5q-10 -16 -17 -25t-22 -17.5t-33 -8.5q-56 0 -56 92q-56 -92 -161 -92q-151 0 -151 173v236q0 27 -9.5 38t-39.5 16v5q82 5 113 22v-312q0 -80 26.5 -115.5t85.5 -35.5q91 0 136 89v293q0 29 -7.5 39t-36.5 15v5q76 5 108 22v-385q0 -16 0.5 -24t2.5 -19.5
t8 -17t15 -5.5q18 0 36 17zM330 595q0 -34 -24.5 -58.5t-59.5 -24.5q-34 0 -58.5 24t-24.5 59t24.5 59t59.5 24q34 0 58.5 -24.5t24.5 -58.5zM303 595q0 23 -16.5 39t-39.5 16t-39.5 -16t-16.5 -39t16.5 -39t38.5 -16q24 0 40.5 16t16.5 39z" />
    <glyph glyph-name="Uhungarumlaut" unicode="&#x170;" horiz-adv-x="684" 
d="M560 260v328q0 44 -2 67t-13.5 37t-21 17.5t-38.5 11.5v5q44 -2 91 -2q41 0 83 2v-5q-33 -9 -44.5 -16.5t-18 -32.5t-6.5 -83v-315q0 -165 -69 -228q-68 -62 -171 -62q-116 0 -182 52q-80 62 -80 223v372q0 39 -5.5 58t-14.5 24.5t-30 8.5v5q44 -2 87 -2q52 0 94 2v-5
q-33 -4 -45 -19.5t-12 -71.5v-361q0 -154 50 -201q56 -53 142 -53q91 0 143 52q63 62 63 192zM412 893l-162 -121l-11 9l135 152zM554 893l-162 -121l-11 9l135 152z" />
    <glyph glyph-name="uhungarumlaut" unicode="&#x171;" horiz-adv-x="522" 
d="M503 46l2 -5q-10 -16 -17 -25t-22 -17.5t-33 -8.5q-56 0 -56 92q-56 -92 -161 -92q-151 0 -151 173v236q0 27 -9.5 38t-39.5 16v5q82 5 113 22v-312q0 -80 26.5 -115.5t85.5 -35.5q91 0 136 89v293q0 29 -7.5 39t-36.5 15v5q76 5 108 22v-385q0 -16 0.5 -24t2.5 -19.5
t8 -17t15 -5.5q18 0 36 17zM308 643l-162 -121l-11 9l135 152zM450 643l-162 -121l-11 9l135 152z" />
    <glyph glyph-name="Uogonek" unicode="&#x172;" horiz-adv-x="687" 
d="M493 -161l1 -13q-26 -13 -63 -13q-35 0 -58.5 14.5t-23.5 44.5q0 58 82 124q-39 -12 -81 -12q-116 0 -182 52q-80 62 -80 223v372q0 39 -5.5 58t-14.5 24.5t-30 8.5v5q44 -2 87 -2q52 0 94 2v-5q-33 -4 -45 -19.5t-12 -71.5v-361q0 -154 50 -201q56 -53 142 -53
q91 0 143 52q63 62 63 192v328q0 44 -2 67t-13.5 37t-21 17.5t-38.5 11.5v5q44 -2 91 -2q41 0 83 2v-5q-33 -9 -44.5 -16.5t-18 -32.5t-6.5 -83v-315q0 -165 -69 -228q-19 -17 -41 -30q-90 -75 -90 -132q0 -50 60 -50q18 0 43 5z" />
    <glyph glyph-name="uogonek" unicode="&#x173;" horiz-adv-x="522" 
d="M485 -175l1 -13q-26 -13 -63 -13q-35 0 -58.5 14.5t-23.5 44.5q0 29 25 65t67 67q-56 0 -56 92q-56 -92 -161 -92q-151 0 -151 173v236q0 27 -9.5 38t-39.5 16v5q82 5 113 22v-312q0 -80 26.5 -115.5t85.5 -35.5q91 0 136 89v293q0 29 -7.5 39t-36.5 15v5q76 5 108 22
v-385q0 -16 0.5 -24t2.5 -19.5t8 -17t15 -5.5q18 0 36 17l2 -5q-19 -31 -38 -42q-85 -73 -85 -129q0 -50 60 -50q18 0 43 5z" />
    <glyph glyph-name="Wcircumflex" unicode="&#x174;" horiz-adv-x="914" 
d="M601 -22h-6l-136 362l-144 -362h-6l-248 669q-14 38 -27.5 53.5t-41.5 21.5v5q42 -2 96 -2q45 0 89 2v-5q-44 -5 -44 -38q0 -15 12 -49l189 -509l107 263l-97 258q-15 40 -31.5 54t-48.5 21v5q42 -2 103 -2q39 0 83 2v-5q-40 -5 -40 -34q0 -16 14 -53l57 -147l19 47
q41 100 41 136q0 44 -50 51v5q44 -2 116 -2q24 0 66 2v-5q-41 -8 -67 -42.5t-75 -157.5l-32 -81l121 -315l155 409q37 97 37 134q0 45 -55 55v3q44 -2 125 -2q24 0 66 2v-3q-24 -7 -34.5 -12t-28 -24.5t-35.5 -58.5t-44 -107zM616 780h-27l-120 115l-119 -115h-27l133 167
h27z" />
    <glyph glyph-name="wcircumflex" unicode="&#x175;" horiz-adv-x="734" 
d="M476 -16h-7l-111 323l-140 -323h-7l-165 439q-10 28 -20.5 36t-33.5 12v5q4 0 33 -0.5t50 -0.5q22 0 52 0.5t34 0.5v-5q-24 -3 -34.5 -8.5t-10.5 -18.5q0 -8 7 -29l115 -320l107 248l-27 80q-8 25 -20.5 33t-43.5 15v5q63 -3 118 -3q23 0 56.5 1.5t42.5 1.5v-5
q-22 -5 -38 -19.5t-33 -51.5l97 -305l116 254q29 63 29 85q0 33 -52 37v5q3 0 29 -0.5t52 -0.5q19 0 43.5 0.5t29.5 0.5v-5q-21 -5 -32 -11.5t-31 -37t-48 -91.5zM513 530h-27l-120 115l-119 -115h-27l133 167h27z" />
    <glyph glyph-name="Ycircumflex" unicode="&#x176;" horiz-adv-x="577" 
d="M453 780h-27l-120 115l-119 -115h-27l133 167h27zM375 3v-5q-42 2 -87 2q-43 0 -87 -2v5q31 6 40.5 20.5t9.5 70.5v150l-201 403q-20 40 -33 54.5t-40 20.5v5q42 -2 100 -2q45 0 89 2v-5q-45 -6 -45 -32q0 -18 19 -55l168 -341l124 241q5 11 15 29q44 86 47 107q1 7 1 15
q0 29 -41 36v5q44 -2 73 -2q34 0 76 2v-5q-30 -6 -43 -23t-60 -107l-37 -70l-138 -263v-165q0 -56 9.5 -70.5t40.5 -20.5z" />
    <glyph glyph-name="ycircumflex" unicode="&#x177;" horiz-adv-x="518" 
d="M231 -221v-5q-3 0 -39.5 0.5t-62.5 0.5q-19 0 -35 -0.5t-21 -0.5v5q36 3 58.5 27t65.5 116l40 84l-184 415q-9 20 -19.5 30.5t-18.5 13.5t-24 6v5q4 0 37 -0.5t54 -0.5q22 0 52 0.5t34 0.5v-5q-25 -3 -35.5 -8.5t-10.5 -18.5q0 -12 8 -31l145 -326l124 260q29 63 29 86
q0 34 -50 38v5q3 0 28 -0.5t51 -0.5q19 0 42.5 0.5t28.5 0.5v-5q-29 -6 -48.5 -29t-60.5 -111l-192 -409q-36 -76 -36 -107q0 -13 6 -20.5t13 -10t21 -5.5zM423 530h-27l-120 115l-119 -115h-27l133 167h27z" />
    <glyph glyph-name="Ydieresis" unicode="&#x178;" horiz-adv-x="577" 
d="M284 815q0 -14 -11 -24.5t-25 -10.5t-24.5 10.5t-10.5 24.5t10.5 24.5t24.5 10.5t25 -10.5t11 -24.5zM376 780q-14 0 -25 10.5t-11 24.5t11 24.5t25 10.5t24.5 -11t10.5 -24t-10.5 -24t-24.5 -11zM375 3v-5q-42 2 -87 2q-43 0 -87 -2v5q31 6 40.5 20.5t9.5 70.5v150
l-201 403q-20 40 -33 54.5t-40 20.5v5q42 -2 100 -2q45 0 89 2v-5q-45 -6 -45 -32q0 -18 19 -55l168 -341l124 241q5 11 15 29q44 86 47 107q1 7 1 15q0 29 -41 36v5q44 -2 73 -2q34 0 76 2v-5q-30 -6 -43 -23t-60 -107l-37 -70l-138 -263v-165q0 -56 9.5 -70.5t40.5 -20.5z
" />
    <glyph glyph-name="Zacute" unicode="&#x179;" horiz-adv-x="596" 
d="M551 128h5q0 -31 -1 -62.5t-1 -40.5q0 -17 1 -28q-137 3 -400 3h-141v5l461 690h-167h-64t-51.5 -1.5t-44 -4t-32.5 -7.5t-27.5 -12.5t-18 -19t-15 -26.5t-8.5 -35h-5q0 22 2.5 66.5t2.5 71.5q91 -2 395 -2h139v-5l-462 -690h174q57 0 83 0.5t60.5 3.5t48.5 8.5t30.5 17
t23.5 27.5t12 41zM416 893l-162 -121l-11 9l135 152z" />
    <glyph glyph-name="zacute" unicode="&#x17a;" horiz-adv-x="466" 
d="M426 133h5q0 -26 -3.5 -68t-3.5 -67q-120 2 -309 2h-92v3l325 449h-110h-57t-42.5 -2t-33.5 -3.5t-21.5 -7.5t-16.5 -11.5t-9.5 -18.5t-9 -24.5t-6.5 -33.5h-5q3 31 3 71q0 27 -2 55q40 -2 198 -2q149 0 206 2v-5l-327 -449h153q95 0 123.5 21t34.5 89zM344 643
l-162 -121l-11 9l135 152z" />
    <glyph glyph-name="Zdotaccent" unicode="&#x17b;" horiz-adv-x="596" 
d="M551 128h5q0 -31 -1 -62.5t-1 -40.5q0 -17 1 -28q-137 3 -400 3h-141v5l461 690h-167h-64t-51.5 -1.5t-44 -4t-32.5 -7.5t-27.5 -12.5t-18 -19t-15 -26.5t-8.5 -35h-5q0 22 2.5 66.5t2.5 71.5q91 -2 395 -2h139v-5l-462 -690h174q57 0 83 0.5t60.5 3.5t48.5 8.5t30.5 17
t23.5 27.5t12 41zM335 815q0 -14 -11 -24.5t-25 -10.5t-24.5 10.5t-10.5 24.5t10.5 24.5t24.5 10.5t25 -10.5t11 -24.5z" />
    <glyph glyph-name="zdotaccent" unicode="&#x17c;" horiz-adv-x="466" 
d="M426 133h5q0 -26 -3.5 -68t-3.5 -67q-120 2 -309 2h-92v3l325 449h-110h-57t-42.5 -2t-33.5 -3.5t-21.5 -7.5t-16.5 -11.5t-9.5 -18.5t-9 -24.5t-6.5 -33.5h-5q3 31 3 71q0 27 -2 55q40 -2 198 -2q149 0 206 2v-5l-327 -449h153q95 0 123.5 21t34.5 89zM266 565
q0 -14 -11 -24.5t-25 -10.5t-24.5 10.5t-10.5 24.5t10.5 24.5t24.5 10.5t25 -10.5t11 -24.5z" />
    <glyph glyph-name="Zcaron" unicode="&#x17d;" horiz-adv-x="596" 
d="M551 128h5q0 -31 -1 -62.5t-1 -40.5q0 -17 1 -28q-137 3 -400 3h-141v5l461 690h-167h-64t-51.5 -1.5t-44 -4t-32.5 -7.5t-27.5 -12.5t-18 -19t-15 -26.5t-8.5 -35h-5q0 22 2.5 66.5t2.5 71.5q91 -2 395 -2h139v-5l-462 -690h174q57 0 83 0.5t60.5 3.5t48.5 8.5t30.5 17
t23.5 27.5t12 41zM313 780h-27l-133 167h27l119 -115l120 115h27z" />
    <glyph glyph-name="zcaron" unicode="&#x17e;" horiz-adv-x="466" 
d="M426 133h5q0 -26 -3.5 -68t-3.5 -67q-120 2 -309 2h-92v3l325 449h-110h-57t-42.5 -2t-33.5 -3.5t-21.5 -7.5t-16.5 -11.5t-9.5 -18.5t-9 -24.5t-6.5 -33.5h-5q3 31 3 71q0 27 -2 55q40 -2 198 -2q149 0 206 2v-5l-327 -449h153q95 0 123.5 21t34.5 89zM251 530h-27
l-133 167h27l119 -115l120 115h27z" />
    <glyph glyph-name="longs" unicode="&#x17f;" horiz-adv-x="208" 
d="M179 3v-5q-44 2 -75 2t-75 -2v5q25 5 34 20t9 71v361h-17v3l17 17q0 99 13.5 156.5t59.5 96.5t101 39q35 0 55 -15l-42 -54q-29 31 -63 31q-40 0 -50 -45.5t-10 -161.5v-428q0 -56 9 -71t34 -20z" />
    <glyph glyph-name="florin" unicode="&#x192;" horiz-adv-x="275" 
d="M-60 -192l42 54q29 -31 63 -31q40 0 50 45.5t10 161.5v325h-60q-19 0 -22 -5h-5q0 7 1 27t1 35h4q0 -23 7.5 -30t33.5 -7h40v86q0 104 13.5 162t59.5 97t101 39q35 0 55 -15l-42 -54q-29 31 -63 31q-40 0 -50 -45.5t-10 -161.5v-139h61q19 0 22 5h5q0 -7 -1 -27t-1 -35
h-4q0 23 -7.5 30t-33.5 7h-41v-272q0 -104 -13.5 -162t-59.5 -97t-101 -39q-35 0 -55 15z" />
    <glyph glyph-name="OI" unicode="&#x1a2;" 
d="M396 -9q-159 0 -258.5 110t-99.5 256q0 96 43 181t128.5 140t194.5 55q148 0 252 -107t104 -266q0 -154 -104.5 -261.5t-259.5 -107.5zM396 13q120 0 196 87t76 253q0 177 -80 267t-192 90q-52 0 -98 -20.5t-84 -61t-60.5 -110t-22.5 -159.5q0 -172 74 -259t191 -87z
M484 158v-5q-42 2 -87 2q-43 0 -87 -2v5q21 3 30 8.5t14.5 24.5t5.5 58v222q0 39 -5.5 58t-14.5 24.5t-30 8.5v5q44 -2 87 -2q45 0 87 2v-5q-21 -3 -30 -8.5t-14.5 -24.5t-5.5 -58v-222q0 -39 5.5 -58t14.5 -24.5t30 -8.5z" />
    <glyph glyph-name="AEacute" unicode="&#x1fc;" horiz-adv-x="882" 
d="M843 129h5q-1 -46 -3.5 -79.5t-2.5 -52.5q-93 3 -206 3q-159 0 -201 -2v5q36 6 46.5 23t10.5 68v184h-121q-79 0 -118 -1l-111 -162q-27 -40 -34 -53.5t-7 -29.5q0 -25 34 -29l-1 -5q-44 2 -93 2q-52 0 -73 -2l1 5q43 9 70 32.5t84 105.5l367 530q-4 29 -16 37.5
t-42 13.5v5q32 -2 128 -2q233 0 278 2q0 -2 0.5 -17.5t0.5 -24.5q0 -57 -6 -82h-5q0 64 -31 78t-147 14q-62 0 -84 -6v-298q54 0 79 0.5t52.5 3.5t37 6.5t20 13.5t13.5 21t7 32h5q-2 -62 -2 -93q0 -34 2 -102h-5q-4 24 -7 36.5t-13.5 24t-19.5 16t-37 7.5t-53 3.5t-79 0.5
v-325q16 -6 85 -6q48 0 68 0.5t47 3.5t35 8t19.5 17.5t15 28t7.5 41.5zM492 307v320l-218 -319q32 -1 97 -1h121zM763 893l-162 -121l-11 9l135 152z" />
    <glyph glyph-name="aeacute" unicode="&#x1fd;" horiz-adv-x="733" 
d="M702 72l4 -4q-63 -78 -166 -78q-134 0 -197 100q-86 -100 -187 -100q-61 0 -94.5 32t-33.5 78q0 54 44.5 90.5t116.5 36.5t116 -34q-3 37 -3 76q0 16 1.5 47.5t1.5 46.5q0 49 -21 74t-70 25q-45 0 -79.5 -33t-36.5 -93h-51q10 66 59.5 105t115.5 39q114 0 139 -78
q60 78 154 78q77 0 130.5 -50t53.5 -127h-314q-2 -20 -2 -34q0 -116 54.5 -181t142.5 -65q69 0 122 49zM335 103q-21 40 -27 70q-42 35 -99 35q-51 0 -80 -30.5t-29 -71.5q0 -36 24 -62t67 -26q77 0 144 85zM387 323h230q-3 68 -30.5 106t-73.5 38t-80.5 -39.5t-45.5 -104.5
zM517 643l-162 -121l-11 9l135 152z" />
    <glyph glyph-name="Oslashacute" unicode="&#x1fe;" 
d="M248 -46h-31l28 68q-96 44 -151.5 136t-55.5 198q0 96 43 181t128.5 140t194.5 55q62 0 122 -22l24 57h31l-28 -68q94 -45 150.5 -135t56.5 -205q0 -154 -104.5 -261.5t-259.5 -107.5q-64 0 -125 21zM257 52l257 628q-55 30 -118 30q-52 0 -98 -20.5t-84 -61t-60.5 -110
t-22.5 -159.5q0 -224 126 -307zM539 665l-257 -627q51 -25 114 -25q120 0 196 87t76 253q0 221 -129 312zM485 893l-162 -121l-11 9l135 152z" />
    <glyph glyph-name="oslashacute" unicode="&#x1ff;" horiz-adv-x="547" 
d="M171 -55h-31l28 68q-65 26 -100 83t-35 138q0 107 69 176.5t173 69.5q40 0 79 -13l22 54h31l-26 -64q61 -30 97 -89t36 -134q0 -101 -65 -170.5t-172 -69.5q-40 0 -82 10zM177 36l170 413q-34 18 -79 18q-152 0 -152 -242q0 -138 61 -189zM371 433l-169 -412
q30 -14 71 -14q48 0 81 20t49 56t22 73t6 85q0 140 -60 192zM398 643l-162 -121l-11 9l135 152z" />
    <glyph glyph-name="dotlessj" unicode="&#x237;" horiz-adv-x="197" 
d="M-6 -224l1 7q50 0 61 45.5t11 194.5v371q0 29 -5 38.5t-26 15.5v5q55 4 95 22v-487q0 -47 -3.5 -79t-15 -65.5t-38 -51t-66.5 -17.5q-8 0 -14 1z" />
    <glyph glyph-name="circumflex" unicode="&#x2c6;" horiz-adv-x="393" 
d="M343 530h-27l-120 115l-119 -115h-27l133 167h27z" />
    <glyph glyph-name="caron" unicode="&#x2c7;" horiz-adv-x="393" 
d="M210 530h-27l-133 167h27l119 -115l120 115h27z" />
    <glyph glyph-name="breve" unicode="&#x2d8;" horiz-adv-x="361" 
d="M289 663h22q0 -50 -36 -91.5t-94 -41.5q-59 0 -95 41.5t-36 91.5h22q17 -96 108 -96q49 0 72 23t37 73z" />
    <glyph glyph-name="dotaccent" unicode="&#x2d9;" horiz-adv-x="171" 
d="M121 565q0 -14 -11 -24.5t-25 -10.5t-24.5 10.5t-10.5 24.5t10.5 24.5t24.5 10.5t25 -10.5t11 -24.5z" />
    <glyph glyph-name="ring" unicode="&#x2da;" horiz-adv-x="267" 
d="M217 595q0 -34 -24.5 -58.5t-59.5 -24.5t-59 24t-24 59t24.5 59t59.5 24q34 0 58.5 -24.5t24.5 -58.5zM190 595q0 23 -16.5 39t-39.5 16t-39.5 -16t-16.5 -39t16 -39t39 -16q24 0 40.5 16t16.5 39z" />
    <glyph glyph-name="ogonek" unicode="&#x2db;" horiz-adv-x="333" 
d="M254 -181l1 -13q-26 -13 -63 -13q-35 0 -58.5 14.5t-23.5 44.5q0 32 31.5 73t83.5 75h20q-94 -78 -94 -136q0 -50 60 -50q18 0 43 5z" />
    <glyph glyph-name="tilde" unicode="&#x2dc;" horiz-adv-x="389" 
d="M330 617h9q-5 -31 -27.5 -59t-61.5 -28q-25 0 -68 23t-69 23q-23 0 -33.5 -9.5t-19.5 -36.5h-10q6 36 29 59.5t55 23.5q25 0 69 -23t70 -23q42 0 57 50z" />
    <glyph glyph-name="hungarumlaut" unicode="&#x2dd;" horiz-adv-x="333" 
d="M273 643l-162 -121l-11 9l135 152zM415 643l-162 -121l-11 9l135 152z" />
    <glyph glyph-name="uni1E02" unicode="&#x1e02;" horiz-adv-x="535" 
d="M46 -2v5q22 4 32 9t17.5 24.5t7.5 57.5v537q0 56 -11.5 71t-43.5 20v5q44 -2 80 -2q30 0 66 1t52 1q98 0 148 -48t50 -116q0 -56 -33.5 -97.5t-104.5 -60.5q92 -12 142.5 -71.5t50.5 -136.5q0 -87 -54 -143.5t-152 -56.5q-28 0 -77 1.5t-76 1.5q-50 0 -94 -2zM202 380
h-25v-348q43 -8 76 -8q165 0 165 176q0 180 -216 180zM177 698v-294q192 0 192 153q0 69 -40 109t-100 40q-28 0 -52 -8zM275 815q0 -14 -11 -24.5t-25 -10.5t-24.5 10.5t-10.5 24.5t10.5 24.5t24.5 10.5t25 -10.5t11 -24.5z" />
    <glyph glyph-name="uni1E03" unicode="&#x1e03;" horiz-adv-x="509" 
d="M44 27v3q17 9 20 30.5t3 107.5v513q0 29 -7.5 39t-36.5 15v5q76 5 108 22v-329q59 47 128 47q105 0 161.5 -66.5t56.5 -161.5q0 -103 -62.5 -182.5t-163.5 -79.5q-43 0 -92 19.5t-76 19.5q-25 0 -39 -2zM131 412v-265q0 -134 117 -134q75 0 110 61t35 158
q0 100 -36.5 163t-111.5 63q-63 0 -114 -46zM322 605q0 -14 -11 -24.5t-25 -10.5t-24.5 10.5t-10.5 24.5t10.5 24.5t24.5 10.5t25 -10.5t11 -24.5z" />
    <glyph glyph-name="uni1E0A" unicode="&#x1e0a;" horiz-adv-x="779" 
d="M43 -2v5q24 4 33.5 6.5t20.5 11.5t14 26t3 47v537q0 29 -4 46.5t-16 26.5t-20 11.5t-30 6.5v5q44 -2 95 -2q33 0 83.5 0.5t74.5 0.5q207 0 325 -97.5t118 -271.5q0 -156 -98.5 -258t-287.5 -102q-25 0 -98.5 1.5t-104.5 1.5q-64 0 -108 -2zM188 691v-656q78 -14 165 -14
q67 0 119.5 16.5t95 54t65.5 106t23 165.5q0 174 -97 256.5t-256 82.5q-69 0 -115 -11zM406 815q0 -14 -11 -24.5t-25 -10.5t-24.5 10.5t-10.5 24.5t10.5 24.5t24.5 10.5t25 -10.5t11 -24.5z" />
    <glyph glyph-name="uni1E0B" unicode="&#x1e0b;" horiz-adv-x="526" 
d="M521 36l3 -5q-29 -41 -77 -41q-31 0 -45 13.5t-19 43.5q-52 -57 -137 -57q-99 0 -156.5 68.5t-57.5 163.5q0 110 70.5 184t166.5 74q58 0 111 -33v234q0 29 -7.5 39t-36.5 15v5q76 5 108 22v-628q0 -72 6 -93t28 -21t43 16zM380 105v285q-15 32 -48 51t-70 19
q-62 0 -103 -56.5t-41 -171.5q0 -92 44 -150t121 -58q34 0 65.5 19t31.5 62zM249 605q0 -14 -11 -24.5t-25 -10.5t-24.5 10.5t-10.5 24.5t10.5 24.5t24.5 10.5t25 -10.5t11 -24.5z" />
    <glyph glyph-name="uni1E1E" unicode="&#x1e1e;" horiz-adv-x="468" 
d="M232 3v-5q-42 2 -93 2q-43 0 -87 -2v5q21 3 30 8.5t14.5 24.5t5.5 58v537q0 56 -11.5 70.5t-48.5 20.5v5q40 -2 128 -2q233 0 278 2q0 -2 0.5 -17.5t0.5 -24.5q0 -57 -6 -82h-5q0 64 -31 78t-147 14q-62 0 -84 -6v-293q140 0 169.5 12t36.5 77h5q-2 -62 -2 -105
q0 -26 2 -94h-5q-3 22 -5.5 33.5t-12.5 22t-19.5 14t-37 6.5t-53 3.5t-78.5 0.5v-272q0 -56 11.5 -71t44.5 -20zM311 815q0 -14 -11 -24.5t-25 -10.5t-24.5 10.5t-10.5 24.5t10.5 24.5t24.5 10.5t25 -10.5t11 -24.5z" />
    <glyph glyph-name="uni1E1F" unicode="&#x1e1f;" horiz-adv-x="234" 
d="M179 3v-5q-44 2 -75 2t-75 -2v5q25 5 34 20t9 71v361h-17v3l17 17q0 99 13.5 156.5t59.5 96.5t101 39q35 0 55 -15l-42 -54q-29 31 -63 31q-40 0 -50 -45.5t-10 -161.5v-47h61q19 0 22 5h5q0 -7 -1 -27t-1 -35h-4q0 23 -7.5 30t-33.5 7h-41v-361q0 -56 9 -71t34 -20z
M228 843q0 -14 -11 -24.5t-25 -10.5t-24.5 10.5t-10.5 24.5t10.5 24.5t24.5 10.5t25 -10.5t11 -24.5z" />
    <glyph glyph-name="uni1E40" unicode="&#x1e40;" horiz-adv-x="876" 
d="M870 3v-5q-42 2 -87 2q-55 0 -99 -2v5q31 4 41 11.5t10 23.5q0 6 -8 52l-82 475l-222 -557h-5l-230 554l-74 -427q-8 -45 -8 -70q0 -28 11 -42t40 -20v-5q-44 2 -99 2q-24 0 -66 -2v5q39 10 56.5 40t30.5 103l111 596h5l245 -599l243 599h5l120 -664q7 -38 19 -53t43 -22
zM467 697q0 -14 -11 -24.5t-25 -10.5t-24.5 10.5t-10.5 24.5t10.5 24.5t24.5 10.5t25 -10.5t11 -24.5z" />
    <glyph glyph-name="uni1E41" unicode="&#x1e41;" horiz-adv-x="800" 
d="M777 3v-5q-44 2 -75 2t-75 -2v5q25 5 34 20t9 71v203q0 163 -110 163q-68 0 -144 -53q18 -37 18 -100v-213q0 -56 9 -71t34 -20v-5q-44 2 -75 2t-75 -2v5q25 5 34 20t9 71v208q0 92 -31 125t-79 33q-65 0 -121 -39v-327q0 -56 9 -71t34 -20v-5q-44 2 -75 2t-75 -2v5
q25 5 34 20t9 71v305q0 29 -5 38.5t-26 15.5v5q55 4 95 22v-40q64 40 146 40q89 0 124 -60q86 60 176 60q149 0 149 -178v-208q0 -56 9 -71t34 -20zM437 565q0 -14 -11 -24.5t-25 -10.5t-24.5 10.5t-10.5 24.5t10.5 24.5t24.5 10.5t25 -10.5t11 -24.5z" />
    <glyph glyph-name="uni1E56" unicode="&#x1e56;" horiz-adv-x="504" 
d="M226 3v-5q-42 2 -87 2q-43 0 -87 -2v5q21 3 30 8.5t14.5 24.5t5.5 58v537q0 56 -11.5 71t-43.5 20v5q44 -2 80 -2q30 0 65.5 1t52.5 1q123 0 183 -54.5t60 -142.5q0 -80 -54.5 -140t-147.5 -60q-50 0 -79 23l4 8q25 -14 61 -14q66 0 100 46t34 120q0 88 -42 139.5
t-118 51.5q-37 0 -70 -10v-600q0 -39 5.5 -58t14.5 -24.5t30 -8.5zM293 815q0 -14 -11 -24.5t-25 -10.5t-24.5 10.5t-10.5 24.5t10.5 24.5t24.5 10.5t25 -10.5t11 -24.5z" />
    <glyph glyph-name="uni1E57" unicode="&#x1e57;" horiz-adv-x="543" 
d="M178 -222v-5q-44 2 -75 2t-75 -2v5q25 5 34 20t9 71v530q0 29 -7.5 39t-36.5 15v5q76 5 108 22v-48q70 48 149 48q101 0 163.5 -72t62.5 -176q0 -108 -71 -173t-168 -65q-75 0 -136 41v-166q0 -56 9 -71t34 -20zM135 406v-346q49 -45 126 -45q29 0 55 9.5t52 31.5
t41.5 67t15.5 108q0 93 -47.5 158.5t-124.5 65.5q-63 0 -118 -49zM308 565q0 -14 -11 -24.5t-25 -10.5t-24.5 10.5t-10.5 24.5t10.5 24.5t24.5 10.5t25 -10.5t11 -24.5z" />
    <glyph glyph-name="uni1E60" unicode="&#x1e60;" horiz-adv-x="456" 
d="M59 166h5q-2 -18 -2 -25q0 -58 46.5 -92t110.5 -34q56 0 96 35t40 100q0 40 -16.5 74t-43 57.5t-58.5 46l-64 45t-58.5 48t-43 62t-16.5 80.5q0 80 52 129.5t133 49.5q31 0 73.5 -8t59.5 -8q11 0 17 1q-3 -31 -3 -66q0 -40 1 -55h-6q-22 115 -140 115q-52 0 -87 -28.5
t-35 -84.5q0 -44 22 -81t55 -60.5l72 -51.5t72 -55t55 -70t22 -97q0 -92 -59 -147.5t-149 -55.5q-36 0 -79 9.5t-65 9.5q-9 0 -15 -1q1 5 1 26q0 11 -2.5 33.5t-2.5 35.5q0 36 12 63zM273 815q0 -14 -11 -24.5t-25 -10.5t-24.5 10.5t-10.5 24.5t10.5 24.5t24.5 10.5
t25 -10.5t11 -24.5z" />
    <glyph glyph-name="uni1E61" unicode="&#x1e61;" horiz-adv-x="361" 
d="M311 365h-5q-8 43 -36.5 72.5t-75.5 29.5q-38 0 -63 -23.5t-25 -64.5q0 -32 22.5 -55.5t55 -40t65 -35.5t55 -51.5t22.5 -78.5q0 -61 -48 -94.5t-112 -33.5q-66 0 -126 32q3 14 5 55.5t7 63.5h5q-1 -6 -1 -19q0 -52 26.5 -85t83.5 -33q41 0 66.5 25t25.5 71
q0 35 -22.5 61t-54.5 42.5l-63.5 34t-54 48t-22.5 72.5q0 59 47.5 90.5t109.5 31.5q57 0 114 -17q-3 -15 -3 -32q0 -2 2 -66zM221 565q0 -14 -11 -24.5t-25 -10.5t-24.5 10.5t-10.5 24.5t10.5 24.5t24.5 10.5t25 -10.5t11 -24.5z" />
    <glyph glyph-name="uni1E6A" unicode="&#x1e6a;" horiz-adv-x="546" 
d="M366 3v-5q-42 2 -87 2q-43 0 -87 -2v5q21 3 30 8.5t14.5 24.5t5.5 58v593q-130 0 -172 -9.5t-63 -54.5h-5q3 16 15 54t19 73h5q2 -23 36 -28t181 -5q179 0 225.5 3.5t67.5 21.5h6q-5 -12 -16.5 -51.5t-14.5 -55.5h-6q2 8 2 15q0 12 -7 19t-30.5 11t-61.5 5.5t-107 1.5
v-593q0 -39 5.5 -58t14.5 -24.5t30 -8.5zM314 815q0 -14 -11 -24.5t-25 -10.5t-24.5 10.5t-10.5 24.5t10.5 24.5t24.5 10.5t25 -10.5t11 -24.5z" />
    <glyph glyph-name="uni1E6B" unicode="&#x1e6b;" horiz-adv-x="292" 
d="M283 72l5 -3q-32 -79 -115 -79q-49 0 -76 23t-27 96v305q0 31 -9 40.5t-40 14.5v5q46 0 77.5 37t44.5 95h6q-15 -85 -15 -131h82q40 0 54 4t25 21l6 -6l-14 -20t-16 -25.5t-11 -25.5h-8q2 6 2 11q0 12 -10.5 16.5t-37.5 4.5h-72v-344q0 -51 16 -72t55 -21q55 0 78 54z
M173 669q0 -14 -11 -24.5t-25 -10.5t-24.5 10.5t-10.5 24.5t10.5 24.5t24.5 10.5t25 -10.5t11 -24.5z" />
    <glyph glyph-name="Wgrave" unicode="&#x1e80;" horiz-adv-x="914" 
d="M601 -22h-6l-136 362l-144 -362h-6l-248 669q-14 38 -27.5 53.5t-41.5 21.5v5q42 -2 96 -2q45 0 89 2v-5q-44 -5 -44 -38q0 -15 12 -49l189 -509l107 263l-97 258q-15 40 -31.5 54t-48.5 21v5q42 -2 103 -2q39 0 83 2v-5q-40 -5 -40 -34q0 -16 14 -53l57 -147l19 47
q41 100 41 136q0 44 -50 51v5q44 -2 116 -2q24 0 66 2v-5q-41 -8 -67 -42.5t-75 -157.5l-32 -81l121 -315l155 409q37 97 37 134q0 45 -55 55v3q44 -2 125 -2q24 0 66 2v-3q-24 -7 -34.5 -12t-28 -24.5t-35.5 -58.5t-44 -107zM516 780l-11 -9l-162 121l38 40z" />
    <glyph glyph-name="wgrave" unicode="&#x1e81;" horiz-adv-x="734" 
d="M476 -16h-7l-111 323l-140 -323h-7l-165 439q-10 28 -20.5 36t-33.5 12v5q4 0 33 -0.5t50 -0.5q22 0 52 0.5t34 0.5v-5q-24 -3 -34.5 -8.5t-10.5 -18.5q0 -8 7 -29l115 -320l107 248l-27 80q-8 25 -20.5 33t-43.5 15v5q63 -3 118 -3q23 0 56.5 1.5t42.5 1.5v-5
q-22 -5 -38 -19.5t-33 -51.5l97 -305l116 254q29 63 29 85q0 33 -52 37v5q3 0 29 -0.5t52 -0.5q19 0 43.5 0.5t29.5 0.5v-5q-21 -5 -32 -11.5t-31 -37t-48 -91.5zM407 530l-11 -9l-162 121l38 40z" />
    <glyph glyph-name="Wacute" unicode="&#x1e82;" horiz-adv-x="914" 
d="M601 -22h-6l-136 362l-144 -362h-6l-248 669q-14 38 -27.5 53.5t-41.5 21.5v5q42 -2 96 -2q45 0 89 2v-5q-44 -5 -44 -38q0 -15 12 -49l189 -509l107 263l-97 258q-15 40 -31.5 54t-48.5 21v5q42 -2 103 -2q39 0 83 2v-5q-40 -5 -40 -34q0 -16 14 -53l57 -147l19 47
q41 100 41 136q0 44 -50 51v5q44 -2 116 -2q24 0 66 2v-5q-41 -8 -67 -42.5t-75 -157.5l-32 -81l121 -315l155 409q37 97 37 134q0 45 -55 55v3q44 -2 125 -2q24 0 66 2v-3q-24 -7 -34.5 -12t-28 -24.5t-35.5 -58.5t-44 -107zM596 893l-162 -121l-11 9l135 152z" />
    <glyph glyph-name="wacute" unicode="&#x1e83;" horiz-adv-x="734" 
d="M476 -16h-7l-111 323l-140 -323h-7l-165 439q-10 28 -20.5 36t-33.5 12v5q4 0 33 -0.5t50 -0.5q22 0 52 0.5t34 0.5v-5q-24 -3 -34.5 -8.5t-10.5 -18.5q0 -8 7 -29l115 -320l107 248l-27 80q-8 25 -20.5 33t-43.5 15v5q63 -3 118 -3q23 0 56.5 1.5t42.5 1.5v-5
q-22 -5 -38 -19.5t-33 -51.5l97 -305l116 254q29 63 29 85q0 33 -52 37v5q3 0 29 -0.5t52 -0.5q19 0 43.5 0.5t29.5 0.5v-5q-21 -5 -32 -11.5t-31 -37t-48 -91.5zM493 643l-162 -121l-11 9l135 152z" />
    <glyph glyph-name="Wdieresis" unicode="&#x1e84;" horiz-adv-x="914" 
d="M601 -22h-6l-136 362l-144 -362h-6l-248 669q-14 38 -27.5 53.5t-41.5 21.5v5q42 -2 96 -2q45 0 89 2v-5q-44 -5 -44 -38q0 -15 12 -49l189 -509l107 263l-97 258q-15 40 -31.5 54t-48.5 21v5q42 -2 103 -2q39 0 83 2v-5q-40 -5 -40 -34q0 -16 14 -53l57 -147l19 47
q41 100 41 136q0 44 -50 51v5q44 -2 116 -2q24 0 66 2v-5q-41 -8 -67 -42.5t-75 -157.5l-32 -81l121 -315l155 409q37 97 37 134q0 45 -55 55v3q44 -2 125 -2q24 0 66 2v-3q-24 -7 -34.5 -12t-28 -24.5t-35.5 -58.5t-44 -107zM445 815q0 -14 -11 -24.5t-25 -10.5t-24.5 10.5
t-10.5 24.5t10.5 24.5t24.5 10.5t25 -10.5t11 -24.5zM537 780q-14 0 -25 10.5t-11 24.5t11 24.5t25 10.5q13 0 24 -11t11 -24t-11 -24t-24 -11z" />
    <glyph glyph-name="wdieresis" unicode="&#x1e85;" horiz-adv-x="734" 
d="M476 -16h-7l-111 323l-140 -323h-7l-165 439q-10 28 -20.5 36t-33.5 12v5q4 0 33 -0.5t50 -0.5q22 0 52 0.5t34 0.5v-5q-24 -3 -34.5 -8.5t-10.5 -18.5q0 -8 7 -29l115 -320l107 248l-27 80q-8 25 -20.5 33t-43.5 15v5q63 -3 118 -3q23 0 56.5 1.5t42.5 1.5v-5
q-22 -5 -38 -19.5t-33 -51.5l97 -305l116 254q29 63 29 85q0 33 -52 37v5q3 0 29 -0.5t52 -0.5q19 0 43.5 0.5t29.5 0.5v-5q-21 -5 -32 -11.5t-31 -37t-48 -91.5zM330 565q0 -14 -11 -24.5t-25 -10.5t-24.5 10.5t-10.5 24.5t10.5 24.5t24.5 10.5t25 -10.5t11 -24.5zM422 530
q-14 0 -25 10.5t-11 24.5t11 24.5t25 10.5t24.5 -11t10.5 -24t-10.5 -24t-24.5 -11z" />
    <glyph glyph-name="Ygrave" unicode="&#x1ef2;" horiz-adv-x="577" 
d="M345 780l-11 -9l-162 121l38 40zM375 3v-5q-42 2 -87 2q-43 0 -87 -2v5q31 6 40.5 20.5t9.5 70.5v150l-201 403q-20 40 -33 54.5t-40 20.5v5q42 -2 100 -2q45 0 89 2v-5q-45 -6 -45 -32q0 -18 19 -55l168 -341l124 241q5 11 15 29q44 86 47 107q1 7 1 15q0 29 -41 36v5
q44 -2 73 -2q34 0 76 2v-5q-30 -6 -43 -23t-60 -107l-37 -70l-138 -263v-165q0 -56 9.5 -70.5t40.5 -20.5z" />
    <glyph glyph-name="ygrave" unicode="&#x1ef3;" horiz-adv-x="518" 
d="M231 -221v-5q-3 0 -39.5 0.5t-62.5 0.5q-19 0 -35 -0.5t-21 -0.5v5q36 3 58.5 27t65.5 116l40 84l-184 415q-9 20 -19.5 30.5t-18.5 13.5t-24 6v5q4 0 37 -0.5t54 -0.5q22 0 52 0.5t34 0.5v-5q-25 -3 -35.5 -8.5t-10.5 -18.5q0 -12 8 -31l145 -326l124 260q29 63 29 86
q0 34 -50 38v5q3 0 28 -0.5t51 -0.5q19 0 42.5 0.5t28.5 0.5v-5q-29 -6 -48.5 -29t-60.5 -111l-192 -409q-36 -76 -36 -107q0 -13 6 -20.5t13 -10t21 -5.5zM310 530l-11 -9l-162 121l38 40z" />
    <glyph glyph-name="endash" unicode="&#x2013;" horiz-adv-x="421" 
d="M364 316v-30q-51 1 -154 1q-102 0 -153 -1v30q102 -2 153 -2q52 0 154 2z" />
    <glyph glyph-name="emdash" unicode="&#x2014;" horiz-adv-x="645" 
d="M588 316v-30q-89 1 -266 1t-265 -1v30q176 -2 265 -2q88 0 266 2z" />
    <glyph glyph-name="quoteleft" unicode="&#x2018;" horiz-adv-x="143" 
d="M98 732l4 -2q-40 -32 -40 -84q0 -9 2 -17q7 4 15 4q16 0 24.5 -10.5t8.5 -24.5q0 -17 -10 -27.5t-24 -10.5q-17 0 -30.5 15.5t-13.5 44.5q0 36 17 65.5t47 46.5z" />
    <glyph glyph-name="quoteright" unicode="&#x2019;" horiz-adv-x="143" 
d="M48 554l-4 2q40 32 40 84q0 9 -2 17q-7 -4 -15 -4q-16 0 -24.5 10.5t-8.5 24.5q0 17 10 27.5t24 10.5q17 0 30.5 -15.5t13.5 -44.5q0 -36 -17 -65.5t-47 -46.5z" />
    <glyph glyph-name="quotesinglbase" unicode="&#x201a;" horiz-adv-x="178" 
d="M64 -83l-4 2q40 32 40 84q0 9 -2 17q-7 -4 -15 -4q-16 0 -24.5 10t-8.5 25q0 17 10 27.5t24 10.5q17 0 30.5 -15.5t13.5 -44.5q0 -36 -17 -65.5t-47 -46.5z" />
    <glyph glyph-name="quotedblleft" unicode="&#x201c;" horiz-adv-x="261" 
d="M216 732l4 -2q-40 -32 -40 -84q0 -9 2 -17q7 4 15 4q16 0 24.5 -10.5t8.5 -24.5q0 -17 -10 -27.5t-24 -10.5q-17 0 -30.5 15.5t-13.5 44.5q0 36 17 65.5t47 46.5zM98 732l4 -2q-40 -32 -40 -84q0 -9 2 -17q7 4 15 4q16 0 24.5 -10.5t8.5 -24.5q0 -17 -10 -27.5t-24 -10.5
q-17 0 -30.5 15.5t-13.5 44.5q0 36 17 65.5t47 46.5z" />
    <glyph glyph-name="quotedblright" unicode="&#x201d;" horiz-adv-x="261" 
d="M48 554l-4 2q40 32 40 84q0 9 -2 17q-7 -4 -15 -4q-16 0 -24.5 10.5t-8.5 24.5q0 17 10 27.5t24 10.5q17 0 30.5 -15.5t13.5 -44.5q0 -36 -17 -65.5t-47 -46.5zM166 554l-4 2q40 32 40 84q0 9 -2 17q-7 -4 -15 -4q-16 0 -24.5 10.5t-8.5 24.5q0 17 10 27.5t24 10.5
q17 0 30.5 -15.5t13.5 -44.5q0 -36 -17 -65.5t-47 -46.5z" />
    <glyph glyph-name="quotedblbase" unicode="&#x201e;" horiz-adv-x="296" 
d="M64 -83l-4 2q40 32 40 84q0 9 -2 17q-7 -4 -15 -4q-16 0 -24.5 10t-8.5 25q0 17 10 27.5t24 10.5q17 0 30.5 -15.5t13.5 -44.5q0 -36 -17 -65.5t-47 -46.5zM182 -83l-4 2q40 32 40 84q0 9 -2 17q-7 -4 -15 -4q-16 0 -24.5 10t-8.5 25q0 17 10 27.5t24 10.5
q17 0 30.5 -15.5t13.5 -44.5q0 -36 -17 -65.5t-47 -46.5z" />
    <glyph glyph-name="dagger" unicode="&#x2020;" horiz-adv-x="441" 
d="M239 -105h-40q1 89 1 432v189q-131 0 -165 -1v35q70 -2 165 -2q0 49 -0.5 123t-0.5 91h40q-1 -24 -1.5 -101t-0.5 -113q97 0 169 2v-35q-36 1 -169 1v-189q0 -254 2 -432z" />
    <glyph glyph-name="daggerdbl" unicode="&#x2021;" horiz-adv-x="447" 
d="M242 -105h-40q1 86 1 416q-131 0 -165 -1v35q70 -2 165 -2v173q-131 0 -165 -1v35q70 -2 165 -2q0 49 -0.5 123t-0.5 91h40q-1 -24 -1.5 -101t-0.5 -113q97 0 169 2v-35q-36 1 -169 1v-173q97 0 169 2v-35q-36 1 -169 1q0 -244 2 -416z" />
    <glyph glyph-name="bullet" unicode="&#x2022;" horiz-adv-x="284" 
d="M240 363q0 -39 -29.5 -66.5t-73.5 -27.5q-38 0 -66 28t-28 66q0 44 27.5 73.5t66.5 29.5q45 0 74 -29t29 -74z" />
    <glyph glyph-name="ellipsis" unicode="&#x2026;" horiz-adv-x="525" 
d="M124 31q0 -14 -11 -24.5t-27 -10.5q-14 0 -24.5 10.5t-10.5 24.5q0 16 10.5 27t24.5 11q16 0 27 -10.5t11 -27.5zM299 31q0 -14 -11 -24.5t-27 -10.5q-14 0 -24.5 10.5t-10.5 24.5q0 16 10.5 27t24.5 11q17 0 27.5 -10.5t10.5 -27.5zM474 31q0 -14 -11 -24.5t-27 -10.5
q-14 0 -24.5 10.5t-10.5 24.5q0 16 10.5 27t24.5 11q16 0 27 -10.5t11 -27.5z" />
    <glyph glyph-name="perthousand" unicode="&#x2030;" horiz-adv-x="1298" 
d="M1079 -10q-89 0 -139.5 49.5t-50.5 136.5q0 84 53.5 138.5t134.5 54.5t134 -54.5t53 -138.5q0 -78 -51 -132t-134 -54zM1076 -1q38 0 63.5 15.5t38 44t17 57.5t4.5 66q0 177 -127 177q-119 0 -119 -190q0 -170 123 -170zM206 0h-31l491 767h31zM227 383
q-89 0 -139.5 49.5t-50.5 136.5q0 84 53.5 138.5t134.5 54.5t134 -54.5t53 -138.5q0 -78 -51 -132t-134 -54zM224 392q38 0 63.5 15.5t38 44t17 57.5t4.5 66q0 177 -127 177q-119 0 -119 -190q0 -170 123 -170zM647 -10q-89 0 -139.5 49.5t-50.5 136.5q0 84 53.5 138.5
t134.5 54.5t134 -54.5t53 -138.5q0 -78 -51 -132t-134 -54zM644 -1q38 0 63.5 15.5t38 44t17 57.5t4.5 66q0 177 -127 177q-119 0 -119 -190q0 -170 123 -170z" />
    <glyph glyph-name="guilsinglleft" unicode="&#x2039;" horiz-adv-x="250" 
d="M194 92l-167 133v27l167 133v-27l-115 -119l115 -120v-27z" />
    <glyph glyph-name="guilsinglright" unicode="&#x203a;" horiz-adv-x="250" 
d="M223 225l-167 -133v27l115 120l-115 119v27l167 -133v-27z" />
    <glyph glyph-name="fraction" unicode="&#x2044;" horiz-adv-x="464" 
d="M12 0h-31l491 767h31z" />
    <glyph glyph-name="Euro" unicode="&#x20ac;" horiz-adv-x="801" 
d="M738 161h5q-6 -43 -6 -107q-129 -64 -250 -64q-158 0 -257.5 83t-125.5 209h-68v23h64q-4 24 -4 54q0 28 5 61h-65v23h69q27 124 123 206.5t248 82.5q21 0 42.5 -1.5t43.5 -5t38 -6.5t39.5 -9l33.5 -8.5t34.5 -10t29.5 -8.5q-3 -39 -3 -95q0 -10 0.5 -23t0.5 -15h-5
q-7 77 -76 118.5t-174 41.5q-109 0 -187.5 -67.5t-99.5 -199.5h471v-23h-474q-3 -32 -3 -65q0 -26 3 -50h474v-23h-471q21 -132 110.5 -200t199.5 -68q80 0 147 37.5t88 109.5z" />
    <glyph glyph-name="trademark" unicode="&#x2122;" horiz-adv-x="766" 
d="M229 406v-6q-4 0 -20.5 0.5t-24.5 0.5q-10 0 -26 -0.5t-20 -0.5v6q14 2 18.5 9t4.5 34v259q-56 0 -74 -4.5t-28 -25.5h-6l15 69h6q1 -11 16 -13t84 -2q80 0 102 2t32 10l6 -2l-14 -60l-6 2q0 18 -11.5 21t-76.5 3v-259q0 -27 4.5 -34t18.5 -9zM711 406v-6q-4 0 -20.5 0.5
t-24.5 0.5q-10 0 -28.5 -0.5t-23.5 -0.5v6q15 2 19.5 4.5t4.5 8.5q0 2 -4 24l-38 196l-96 -234h-6l-95 232l-35 -173q-4 -26 -4 -33q0 -12 5 -17t19 -8v-6q-4 0 -23 0.5t-28 0.5t-20.5 -0.5t-15.5 -0.5v6q19 5 27 17.5t14 45.5l51 277h4l108 -259l117 259h5l59 -309
q3 -17 8 -22t21 -9z" />
    <glyph glyph-name="Delta" unicode="&#x2206;" horiz-adv-x="565" 
d="M543 -1h-286h-235v7l277 736h10l234 -738v-5zM453 33l-178 570l-210 -569q59 -5 194 -5q131 0 194 4z" />
    <glyph glyph-name="product" unicode="&#x220f;" horiz-adv-x="733" 
d="M681 3v-5q-42 2 -87 2q-43 0 -87 -2v5q21 3 30 8.5t14.5 24.5t5.5 58v517q0 40 -6 80q-64 5 -191 5q-122 0 -181 -5q-3 -31 -3 -80v-517q0 -39 5.5 -58t14.5 -24.5t30 -8.5v-5q-42 2 -87 2q-43 0 -87 -2v5q21 3 30 8.5t14.5 24.5t5.5 58v537q0 39 -5.5 58t-14.5 24.5
t-30 8.5v5q97 -2 308 -2q213 0 321 2v-5q-21 -3 -30 -8.5t-14.5 -24.5t-5.5 -58v-537q0 -39 5.5 -58t14.5 -24.5t30 -8.5z" />
    <glyph glyph-name="minus" unicode="&#x2212;" horiz-adv-x="503" 
d="M437 317v-30q-39 1 -186 1t-185 -1v30q76 -2 185 -2q108 0 186 2z" />
    <glyph glyph-name="integral" unicode="&#x222b;" horiz-adv-x="275" 
d="M-60 -192l42 54q29 -31 63 -31q40 0 50 45.5t10 161.5v431q0 104 13.5 162t59.5 97t101 39q35 0 55 -15l-42 -54q-29 31 -63 31q-40 0 -50 -45.5t-10 -161.5v-431q0 -104 -13.5 -162t-59.5 -97t-101 -39q-35 0 -55 15z" />
    <glyph glyph-name="approxequal" unicode="&#x2248;" horiz-adv-x="504" 
d="M438 395v-34q-52 -26 -89 -26q-35 0 -103.5 16t-95.5 16q-35 0 -83 -24v36q53 22 87 22q31 0 99.5 -16t101.5 -16q34 0 83 26zM438 267v-34q-52 -25 -92 -25q-36 0 -102.5 16t-93.5 16q-35 0 -83 -26v37q53 22 87 22q29 0 97.5 -16t97.5 -16q35 0 89 26z" />
    <glyph glyph-name="notequal" unicode="&#x2260;" horiz-adv-x="496" 
d="M433 251v-30q-39 1 -186 1h-18l-43 -104h-31l42 104q-106 0 -135 -1v30q64 -2 146 -2l43 103h-4q-147 0 -185 -1v30q76 -2 185 -2h15l43 104h31l-43 -104q76 0 140 2v-30q-33 1 -151 1l-42 -103h7q108 0 186 2z" />
    <glyph glyph-name="lessequal" unicode="&#x2264;" horiz-adv-x="465" 
d="M390 136l-333 202v24l333 204v-24l-287 -193l287 -189v-24zM385 64v-29q-39 1 -162 1q-124 0 -161 -1v29q37 -1 161 -1q123 0 162 1z" />
    <glyph glyph-name="greaterequal" unicode="&#x2265;" horiz-adv-x="465" 
d="M403 64v-29q-37 1 -161 1q-123 0 -162 -1v29q39 -1 162 -1q124 0 161 1zM408 338l-333 -202v24l287 189l-287 193v24l333 -204v-24z" />
    <glyph glyph-name="LL" unicode="&#xf6bf;" horiz-adv-x="810" 
d="M794 129h5q-1 -46 -3.5 -79.5t-2.5 -52.5q-132 3 -407 3q-226 0 -340 -2v5q36 6 46.5 23t10.5 68v537q0 39 -5.5 58t-14.5 24.5t-30 8.5v5q44 -2 87 -2q45 0 87 2v-5q-21 -3 -30 -8.5t-14.5 -24.5t-5.5 -58v-595q16 -6 85 -6q121 0 151 10t30 58v533q0 39 -5.5 58
t-14.5 24.5t-30 8.5v5q44 -2 87 -2q45 0 87 2v-5q-21 -3 -30 -8.5t-14.5 -24.5t-5.5 -58v-595q17 -6 85 -6q48 0 68 0.5t47 3.5t35 8t19.5 17.5t15 28t7.5 41.5z" />
    <glyph glyph-name="commaaccent" unicode="&#xf6c3;" horiz-adv-x="158" 
d="M54 -225l-4 2q40 32 40 84q0 9 -2 17q-7 -4 -15 -4q-16 0 -24.5 10t-8.5 25q0 17 10 27.5t24 10.5q17 0 30.5 -15.5t13.5 -44.5q0 -36 -17 -65.5t-47 -46.5z" />
    <glyph glyph-name="apple" unicode="&#xf8ff;" horiz-adv-x="1995" 
d="M869 -94h-10q35 28 35 62q0 49 -40 58q6 -34 6 -73q0 -53 -44.5 -81t-100.5 -28q-36 0 -64.5 20.5t-28.5 54.5q0 32 21.5 45.5t42.5 13.5q13 0 18 -1q19 37 63 56v3q-4 11 -4 33q-27 -57 -77 -57q-27 0 -44.5 28.5t-17.5 70.5q0 29 24.5 92.5t24.5 82.5q0 32 -12 32
q-15 0 -29.5 -16t-16.5 -26q0 -49 -48 -74q0 -198 -161 -198q-47 0 -79.5 22t-32.5 69q0 29 17 53t43 24q18 0 26.5 -12t8.5 -29q0 -29 -15.5 -52t-41.5 -23q-4 0 -12 3t-11 4q4 -16 18.5 -28t28.5 -12q22 0 40 15t30.5 45t20 55t16.5 64q-32 14 -49 44q-13 -5 -20 -5
q-78 0 -78 82q0 63 44.5 112.5t107.5 49.5q51 0 89.5 -17.5t49.5 -17.5q8 0 22 2v-5q-36 -9 -71 -33t-57 -55q-4 26 -23 42t-47 16q-41 0 -72.5 -34t-31.5 -76q0 -58 64 -58q11 0 19 4q-7 15 -7 39q0 28 15 47.5t30 19.5q11 0 17.5 -8.5t6.5 -19.5q0 -22 -15 -44.5
t-36 -35.5q12 -25 44 -39q23 96 65 147q14 17 43.5 40t53.5 26v-8q-65 -31 -65 -152q0 -23 3 -52q44 22 44 64q0 36 -16 52v2q17 -9 21 -42q9 17 26.5 31t41.5 14q32 0 49 -30t17 -74q0 -16 -24.5 -80t-24.5 -93q0 -23 13 -23q16 0 30 21t24.5 58t18.5 72.5t16.5 80
t13.5 65.5q24 -11 36 -11q10 0 17 3t18 10.5t13 8.5q-3 -15 -13.5 -60t-17 -75.5t-12.5 -70t-6 -64.5v-11l1 -19q51 -12 51 -70q0 -38 -33 -66zM1935 117l-157 -30l10 -56l-97 78q-35 -80 -90 -137q27 -9 58 -9q73 0 101 57h4q-6 -32 -36 -51.5t-64 -19.5q-37 0 -73 14
q-83 -83 -158 -83q-81 0 -81 133q-2 -1 -8 -1q-44 0 -75 39.5t-31 112.5q0 48 57.5 109t119.5 61q23 0 39 -18t16 -55q0 -47 -45.5 -82t-95.5 -40q-13 -72 -13 -92q0 -24 28 -24q5 0 8 1v1q0 43 27.5 89t65.5 46q19 0 19 -28q0 -36 -33.5 -75t-69.5 -43q0 -62 21.5 -91.5
t57.5 -29.5q62 0 137 75q-40 19 -64 53.5t-24 80.5q0 35 20.5 66t53.5 38v-5q-32 -9 -49 -38t-17 -65q0 -39 24.5 -71t64.5 -49q61 67 84 142l-126 38l55 22l-73 150l59 -18l-13 88l57 -64l34 49l34 -108l47 149l23 -39l87 51v-98h53l-114 -113l113 32l-18 -59l85 -9
l-82 -39zM1104 -14v-5q-11 0 -21 -7t-10 -18q0 -14 9 -22t22 -8q41 0 69.5 41.5t28.5 83.5q0 26 -15 49q-41 -88 -97 -88q-43 0 -43 58q0 38 20.5 60t41.5 26q16 108 16 153q0 3 -3.5 7t-9.5 4q-8 0 -18 -8t-19.5 -29.5t-9.5 -49.5q0 -30 -32.5 -193t-38.5 -181
q-20 11 -36 11q-7 0 -14.5 -2.5t-11 -4.5t-11.5 -8t-9 -7q2 10 23.5 124.5l39 213t17.5 115.5q0 27 -11.5 43.5t-27.5 28t-32 28t-27.5 53.5t-11.5 94q0 39 25.5 122t25.5 123q0 24 -10 24q-12 0 -32.5 -24t-34.5 -60q-3 -28 -20.5 -119t-21.5 -107q-22 12 -36 12
q-24 0 -43 -13q46 271 46 290t-10 19q-18 0 -41 -58h-11q7 22 13.5 35t21.5 25t36 12q54 0 65 -62q1 1 13 18.5t17.5 23.5t18.5 14t27 8q32 0 50.5 -38.5t18.5 -88.5q0 -56 -27.5 -138.5t-27.5 -121.5q0 -33 10.5 -52t26 -27l31.5 -15.5t29.5 -24t17.5 -44.5q19 32 33 42.5
t32 10.5q37 0 60 -48.5t23 -90.5q0 -40 -18 -85q21 -32 21 -64q0 -48 -28.5 -88.5t-74.5 -40.5q-19 0 -31.5 10.5t-12.5 28.5q0 12 9.5 21.5t21.5 9.5q6 0 9 -1zM230 350h-6l4 5q13 0 30 11.5t17 28.5q0 4 -1 7q-23 -9 -54 -9q-30 0 -62.5 11.5t-32.5 35.5q0 17 19.5 25
t38.5 8q24 0 55 -16t43 -37q50 22 50 64q0 25 -12 40q-35 -23 -78 -23q-65 0 -108 46.5t-43 124.5q0 20 15 60q-37 24 -37 80q0 52 33 97.5t79 45.5q8 0 18 -2v-7q-4 1 -13 1q-44 0 -76 -42t-32 -91q0 -48 33 -70q37 85 110 169t120 84q44 0 44 -75q0 -59 -50 -114.5
t-114 -79.5v-2q-1 -1 -1 -2q-31 -122 -31 -162q0 -21 12.5 -34t22.5 -15.5t16 -2.5q36 0 69 25q-18 13 -48 13q-31 0 -39 -8v5q16 12 36 12q32 0 58 -16q58 50 58 126q0 62 -39 62q-37 0 -61 -33t-24 -71q0 -14 6 -27.5t19 -13.5q20 0 32 24t12 48q0 2 -0.5 4.5t-1.5 6.5
t-1 6h8q3 -6 3 -17q0 -27 -15.5 -54t-36.5 -27q-33 0 -33 53q0 38 25.5 74t64.5 36q29 0 46.5 -25.5t17.5 -62.5q0 -34 -18 -66.5t-49 -54.5q17 -17 17 -47q0 -52 -60 -77q1 -2 1 -6q0 -20 -18 -34.5t-38 -14.5zM1634 629h12q-30 -119 -85 -119q-24 0 -44 17t-26 51
q-22 -42 -37.5 -56t-34.5 -14q-26 0 -45 26t-26.5 56.5t-7.5 58.5q0 49 53 115.5t94 66.5q23 0 33 -27q24 120 32 152q20 -11 36 -11q10 0 17 3t18 10.5t13 8.5q-2 -12 -22.5 -117.5l-37 -197t-16.5 -109.5t10 -18q18 0 36.5 35t27.5 69zM1315 583h11q-20 -74 -64 -74
q-24 0 -42 16.5t-24 50.5q-22 -41 -37.5 -54.5t-34.5 -13.5q-26 0 -45 26t-26.5 56.5t-7.5 58.5q0 49 53 115.5t94 66.5q24 0 36 -32l7 28q24 -11 37 -11q14 0 46 22q-2 -13 -16.5 -85.5l-25.5 -132.5t-11 -77q0 -18 9 -18q19 0 41 58zM1935 583h11q-20 -74 -64 -74
q-24 0 -42 16.5t-24 50.5q-22 -41 -37 -54.5t-34 -13.5q-38 0 -59 47.5t-21 93.5q0 49 53.5 115.5t94.5 66.5q23 0 35 -32l8 28q24 -11 36 -11q7 0 14.5 2.5t11 4.5t11.5 8t9 7q-2 -13 -16.5 -85.5l-25.5 -132.5t-11 -77q0 -18 9 -18q19 0 41 58zM689 583h10
q-17 -74 -64 -74q-23 0 -41.5 17t-24.5 50q-21 -41 -36.5 -54.5t-35.5 -13.5q-37 0 -57.5 47.5t-20.5 93.5q0 49 53 115.5t95 66.5q22 0 34 -32l7 28q24 -11 37 -11q7 0 14.5 2.5t11.5 5t11 7.5l10 7l-17.5 -85.5t-25.5 -132t-11 -77.5q0 -18 10 -18q19 0 41 58zM460 -111
h-5q-25 0 -52 13.5t-27 38.5q0 30 37 30q25 0 46.5 -17t21.5 -40q0 -5 -2 -11q34 8 59 31.5t25 61.5q0 21 -6 41h4q8 -13 8 -41q0 -40 -27.5 -69t-67.5 -36q-10 -18 -33 -28t-46 -10q-38 0 -72.5 17.5t-34.5 50.5q0 16 10 27.5t27 11.5q9 0 16 -2q-48 43 -93.5 61t-106.5 18
q-39 0 -119 -11q24 8 57 18t45 15q50 18 88.5 61.5t38.5 81.5q0 47 -31.5 73t-78.5 26q-99 0 -99 -56q0 -17 18.5 -27.5t40.5 -10.5q27 0 73 38v-10q-12 -17 -32.5 -30.5t-40.5 -13.5q-28 0 -49 15t-21 39q0 67 104 67q61 0 94.5 -31t33.5 -84q0 -28 -21.5 -59.5t-41 -48
t-36.5 -28.5l20 -5q57 -12 96.5 -35t75.5 -72h-2v-2q-22 5 -23 5q-35 0 -35 -31q0 -29 33.5 -45t65.5 -16q43 0 65 29zM697 -42q-6 1 -17 1q-21 0 -33.5 -11.5t-12.5 -32.5q0 -28 24 -45t55 -17q29 0 56 19t27 49q0 14 -4.5 31.5t-12.5 39t-10 29.5q-41 -14 -56 -47
q19 -7 30 -22.5t11 -27.5q0 -9 -7 -18t-21 -9q-13 0 -22 13t-9 28q0 14 2 20zM1513 769q-3 51 -20 51q-6 0 -10.5 -2.5t-8 -8.5t-6 -11t-4.5 -13.5t-3.5 -13.5t-3 -13t-1.5 -10q-34 -176 -34 -213q0 -12 9 -12q27 0 41.5 47t40.5 199zM1814 622q2 35 24 136q0 62 -20 62
q-25 0 -36 -72q-34 -176 -34 -213q0 -12 9 -12q33 0 57 99zM1194 622q2 35 24 136q0 62 -20 62q-8 0 -14 -5t-10 -15.5t-5.5 -17t-4 -20t-2.5 -14.5q-34 -176 -34 -213q0 -12 8 -12q34 0 58 99zM567 622q5 51 25 136q0 62 -20 62q-13 0 -23.5 -26t-12.5 -46
q-7 -33 -20.5 -111t-13.5 -102q0 -12 8 -12q33 0 57 99zM287 916q0 -1 -12.5 -32.5t-28 -74.5t-23.5 -68q56 25 96 86.5t40 127.5q0 27 -19 27q-13 0 -23.5 -13.5t-29.5 -52.5zM1641 534h2q-6 -44 -36.5 -69.5t-68.5 -31.5q-1 -29 -30 -51.5t-68 -22.5q-34 0 -61 16t-27 52
q0 21 17.5 40.5t40.5 20.5v-4q-18 -3 -32.5 -17t-14.5 -32q0 -57 79 -57q84 0 88 55q-3 -1 -8 -1q-25 0 -42.5 10.5t-17.5 27.5q0 8 8.5 15t16.5 7q17 0 31 -13.5t19 -31.5q35 4 65 28.5t39 58.5zM1331 150q26 4 47.5 32.5t31.5 60.5t10 56t-11 24q-45 0 -78 -173zM1297 488
l11 -5q-8 -38 -46 -65t-84 -27h-12q-17 -18 -53 -18q-34 0 -64 15t-45 44l1 1q49 -55 105 -55q29 0 47 15q-20 3 -41.5 10.5t-45.5 20t-39 34.5t-15 49q0 26 11 38l5 -5q-6 -20 -6 -30q0 -46 45 -71.5t98 -30.5q4 8 4 19q0 25 -20.5 42.5t-48.5 17.5q-25 0 -44 -11l-4 1
q16 17 46 17t54 -18.5t24 -47.5q0 -11 -3 -20h4q41 0 74.5 20t41.5 60zM1360 28v-3q27 0 59.5 38.5t32.5 71.5q0 16 -10 16q-31 0 -56.5 -42.5t-25.5 -80.5zM270 416q-12 20 -38.5 34.5t-48.5 14.5q-44 0 -44 -25q0 -34 74 -34q30 0 57 10zM871 348l-6 1v3q-5 28 -21 41
t-31 13q-9 0 -43 -16t-67 -16q-18 0 -27.5 8t-9.5 20q0 18 15.5 26.5t32.5 8.5l64 -7q35 0 35 25q0 16 -12.5 24.5t-28.5 8.5q-12 0 -22 -5t-10 -14q0 -15 18 -15q11 0 23 7l2 -8q-12 -6 -24 -6q-27 0 -27 21q0 12 13.5 19.5t27.5 7.5q20 0 34 -10.5t14 -27.5t-13.5 -25
t-28.5 -8l-65 7q-15 0 -28.5 -7t-13.5 -22q0 -20 29 -20q19 0 55 18t49 18q29 0 47.5 -20t18.5 -50zM1108 144q-23 -2 -38.5 -27t-15.5 -53q0 -38 26 -38q5 0 9.5 8.5t7.5 23.5t4.5 28.5l3.5 32t3 25.5zM471 -84q0 19 -17.5 33t-36.5 14q-30 0 -30 -28q0 -18 20.5 -27
t42.5 -9q12 0 16.5 3t4.5 14zM418 259q18 12 32 32t14 38q0 22 -16 22q-19 0 -27 -19.5t-8 -41.5q0 -21 5 -31zM1525 447h4q-8 36 -38 36q-17 0 -17 -14q0 -22 51 -22zM708 -45q-1 -5 -1 -14q0 -12 4.5 -22.5t12.5 -10.5q16 0 16 13q0 21 -32 34z" />
    <glyph glyph-name="zero.alt" horiz-adv-x="624" 
d="M311 -10q-47 0 -91.5 20.5t-83.5 62t-63 114t-24 167.5q0 97 29 181.5t90 140.5t144 56t144 -56t90 -140.5t29 -181.5q0 -95 -24 -167.5t-63 -114t-84 -62t-93 -20.5zM311 13q170 0 170 353q0 176 -41.5 259.5t-128.5 83.5q-85 0 -126.5 -83.5t-41.5 -259.5
q0 -353 168 -353zM312 255h-2q-4 97 -91 104v2q87 7 91 104h2q4 -98 91 -104v-2q-87 -6 -91 -104z" />
    <glyph glyph-name="A.alt" horiz-adv-x="582" 
d="M578 3v-5q-42 2 -87 2t-89 -2v5q44 3 44 35q0 12 -12 52l-34 109q-54 1 -162 1q-75 0 -113 -1l-31 -84q-17 -47 -17 -68q0 -39 46 -44v-5q-44 2 -93 2q-26 0 -68 -2v5q40 9 59.5 32.5t50.5 105.5l226 601h10l210 -664q16 -49 24 -60t36 -15zM362 319l-88 284l-104 -283
q31 -1 94 -1h98zM390 230l-19 60h-107q-70 0 -106 -1l-22 -59q34 -1 102 -1q101 0 152 1z" />
    <glyph glyph-name="B.alt" horiz-adv-x="535" 
d="M46 -2v5q22 4 32 9t17.5 24.5t7.5 57.5v537q0 56 -11.5 71t-43.5 20v5q44 -2 80 -2q30 0 66 1t52 1q98 0 148 -48t50 -116q0 -56 -33.5 -99t-104.5 -64q93 -10 143 -68.5t50 -134.5q0 -87 -54 -143.5t-152 -56.5q-28 0 -77 1.5t-76 1.5q-50 0 -94 -2zM203 391v3
q76 4 121 44.5t45 118.5q0 69 -40 109t-100 40q-28 0 -52 -8v-666q43 -8 76 -8q165 0 165 176q0 87 -52 139t-163 52z" />
    <glyph glyph-name="C.alt" horiz-adv-x="724" 
d="M680 0h-5q-3 32 -10 48q-122 -58 -237 -58q-93 0 -168.5 31t-123.5 84t-73.5 119t-25.5 139q0 71 25.5 136.5t73.5 118t123.5 83.5t168.5 31q115 0 237 -58q7 16 10 48h5q-2 -42 -2 -70q0 -54 6 -91h-5q-21 72 -88 109.5t-147 37.5q-58 0 -112.5 -20.5t-101 -60.5
t-74.5 -109t-28 -157q0 -90 28 -159t75 -109t101 -59.5t112 -19.5q80 0 147 37.5t88 109.5h5q-6 -37 -6 -91q0 -28 2 -70z" />
    <glyph glyph-name="D.alt" horiz-adv-x="719" 
d="M43 -2v5q24 4 33.5 6.5t20.5 11.5t14 26t3 47v537q0 29 -4 46.5t-16 26.5t-20 11.5t-30 6.5v5q44 -2 95 -2q33 0 83.5 0.5t74.5 0.5q178 0 280.5 -101t102.5 -258q0 -163 -98 -266.5t-288 -103.5q-28 0 -76 1.5t-67 1.5q-64 0 -108 -2zM188 691v-656q62 -14 105 -14
q68 0 120 16.5t94.5 55t65.5 109.5t23 171q0 156 -81.5 242.5t-211.5 86.5q-69 0 -115 -11z" />
    <glyph glyph-name="E.alt" horiz-adv-x="493" 
d="M454 129h5q-1 -46 -3.5 -79.5t-2.5 -52.5q-93 3 -206 3q-159 0 -201 -2v5q36 6 46.5 23t10.5 68v537q0 56 -11.5 70.5t-48.5 20.5v5q40 -2 128 -2q233 0 278 2q0 -2 0.5 -17.5t0.5 -24.5q0 -57 -6 -82h-5q0 64 -31 78t-147 14q-61 0 -84 -6v-653q16 -6 85 -6q48 0 68 0.5
t47 3.5t35 8t19.5 17.5t15 28t7.5 41.5zM312 271h-2q-4 97 -91 104v2q87 7 91 104h2q4 -98 91 -104v-2q-87 -6 -91 -104z" />
    <glyph glyph-name="F.alt" horiz-adv-x="468" 
d="M232 3v-5q-42 2 -93 2q-43 0 -87 -2v5q21 3 30 8.5t14.5 24.5t5.5 58v537q0 56 -11.5 70.5t-48.5 20.5v5q40 -2 128 -2q233 0 278 2q0 -2 0.5 -17.5t0.5 -24.5q0 -57 -6 -82h-5q0 64 -31 78t-147 14q-62 0 -84 -6v-595q0 -56 11.5 -71t44.5 -20zM311 276h-2
q-4 97 -91 104v2q87 7 91 104h2q4 -98 91 -104v-2q-87 -6 -91 -104z" />
    <glyph glyph-name="G.alt" horiz-adv-x="743" 
d="M693 41v-3q-18 5 -40 5q-30 0 -101 -26.5t-144 -26.5q-93 0 -165.5 31t-116.5 83.5t-66.5 117.5t-22.5 137q0 155 102.5 264t277.5 109q126 0 241 -55q7 16 10 48h5q-3 -46 -3 -145q0 -18 1 -30h-5q-8 80 -75.5 120t-169.5 40q-55 0 -105 -19.5t-94 -58.5t-70.5 -108.5
t-26.5 -160.5q0 -158 78.5 -254.5t207.5 -96.5q88 0 136.5 31.5t48.5 95.5v112q0 31 -3 48.5t-12.5 26.5t-16.5 11t-25 5v5q44 -2 94 -2q39 0 81 2v-5q-20 -4 -28 -10t-12 -23.5t-4 -57.5v-72q0 -85 3.5 -108t19.5 -30z" />
    <glyph glyph-name="H.alt" horiz-adv-x="733" 
d="M681 3v-5q-42 2 -87 2q-43 0 -87 -2v5q21 3 30 8.5t14.5 24.5t5.5 58v216q-66 1 -197 1q-123 0 -184 -1v-216q0 -39 5.5 -58t14.5 -24.5t30 -8.5v-5q-42 2 -87 2q-43 0 -87 -2v5q21 3 30 8.5t14.5 24.5t5.5 58v537q0 39 -5.5 58t-14.5 24.5t-30 8.5v5q44 -2 87 -2
q45 0 87 2v-5q-21 -3 -30 -8.5t-14.5 -24.5t-5.5 -58v-200q61 -1 184 -1q131 0 197 1v200q0 39 -5.5 58t-14.5 24.5t-30 8.5v5q44 -2 87 -2q45 0 87 2v-5q-21 -3 -30 -8.5t-14.5 -24.5t-5.5 -58v-537q0 -39 5.5 -58t14.5 -24.5t30 -8.5zM557 341v59q-66 1 -197 1
q-123 0 -184 -1v-59q61 -1 184 -1q131 0 197 1z" />
    <glyph glyph-name="I.alt" horiz-adv-x="278" 
d="M226 3v-5q-42 2 -87 2q-43 0 -87 -2v5q21 3 30 8.5t14.5 24.5t5.5 58v537q0 39 -5.5 58t-14.5 24.5t-30 8.5v5q44 -2 87 -2q45 0 87 2v-5q-21 -3 -30 -8.5t-14.5 -24.5t-5.5 -58v-537q0 -39 5.5 -58t14.5 -24.5t30 -8.5zM141 755h-2q-4 97 -91 104v2q87 7 91 104h2
q4 -98 91 -104v-2q-87 -6 -91 -104z" />
    <glyph glyph-name="J.alt" horiz-adv-x="277" 
d="M21 -199l-1 5q52 10 67 33.5t15 91.5v700q0 38 -9 58t-19.5 24.5t-34.5 8.5v5q44 -2 100 -2q54 0 96 2v-5q-24 -5 -33.5 -9.5t-17.5 -24t-8 -57.5v-613q0 -99 -32 -152t-123 -65zM141 755h-2q-4 97 -91 104v2q87 7 91 104h2q4 -98 91 -104v-2q-87 -6 -91 -104z" />
    <glyph glyph-name="K.alt" horiz-adv-x="610" 
d="M226 3v-5q-42 2 -87 2q-43 0 -87 -2v5q21 3 30 8.5t14.5 24.5t5.5 58v537q0 39 -5.5 58t-14.5 24.5t-30 8.5v5q44 -2 87 -2q45 0 87 2v-5q-21 -3 -30 -8.5t-14.5 -24.5t-5.5 -58v-537q0 -39 5.5 -58t14.5 -24.5t30 -8.5zM633 3v-5q-42 2 -91 2q-44 0 -88 -2v5q29 3 29 15
q0 5 -4 11.5t-8.5 12l-13.5 16.5l-14 17l-238 289v3l152 168q74 81 101 115.5t27 51.5t-29 20v5q44 -2 82 -2q47 0 89 2v-5q-44 -8 -120 -81q-42 -41 -237 -246l272 -322l35 -40.5t25 -20.5t31 -9z" />
    <glyph glyph-name="L.alt" horiz-adv-x="473" 
d="M459 -48h-4q-6 33 -24.5 40.5t-90.5 7.5h-93q-159 0 -201 -2v5q36 6 46.5 23t10.5 68v537q0 39 -5.5 58t-14.5 24.5t-30 8.5v5q44 -2 87 -2q45 0 87 2v-5q-21 -3 -30 -8.5t-14.5 -24.5t-5.5 -58v-595q16 -6 85 -6q47 0 71.5 0.5t48.5 4.5t33.5 8.5t19 17.5t12.5 26.5
t7 39.5h5q-2 -62 -2 -83q0 -24 2 -92z" />
    <glyph glyph-name="M.alt" horiz-adv-x="876" 
d="M870 3v-5q-42 2 -87 2q-55 0 -99 -2v5q31 4 41 11.5t10 23.5q0 6 -8 52l-82 475l-222 -557h-5l-230 554l-74 -427q-8 -45 -8 -70q0 -28 11 -42t40 -20v-5q-44 2 -99 2q-24 0 -66 -2v5q38 10 55.5 40t31.5 103l77 412q5 28 5 47q0 95 -86 117v5q40 -2 72 -2q37 0 55 1
l238 -583l236 583q18 -1 54 -1q32 0 72 2v-5q-47 -13 -68 -36.5t-21 -64.5q0 -19 5 -49l90 -494q7 -38 19 -53t43 -22z" />
    <glyph glyph-name="N.alt" horiz-adv-x="815" 
d="M709 -22h-5l-568 655v-113q0 -373 9 -438q8 -54 32 -68q7 -4 28 -11v-5q-44 2 -85 2q-37 0 -79 -2v5q32 12 41 26q19 29 22 179q2 76 2 313v90q0 40 -7 60t-17.5 28t-41.5 23v5q24 -2 68 -2q35 0 49 1l522 -613v89q0 379 -10 446q-8 51 -33 64q-6 4 -23 9q-2 1 -3 1v5
q44 -2 85 -2t83 2v-5q-33 -11 -43 -24q-20 -28 -24 -171q-2 -79 -2 -319v-230z" />
    <glyph glyph-name="O.alt" 
d="M396 -9q-159 0 -258.5 110t-99.5 256q0 96 43 181t128.5 140t194.5 55q148 0 252 -107t104 -266q0 -154 -104.5 -261.5t-259.5 -107.5zM396 13q120 0 196 87t76 253q0 177 -80 267t-192 90q-52 0 -98 -20.5t-84 -61t-60.5 -110t-22.5 -159.5q0 -172 74 -259t191 -87z
M398 255h-2q-4 97 -91 104v2q87 7 91 104h2q4 -98 91 -104v-2q-87 -6 -91 -104z" />
    <glyph glyph-name="P.alt" horiz-adv-x="504" 
d="M226 3v-5q-42 2 -87 2q-43 0 -87 -2v5q21 3 30 8.5t14.5 24.5t5.5 58v537q0 52 -10 69.5t-45 21.5v5q34 -2 103 -2q16 0 55 1t49 1q112 0 173 -54t61 -145q0 -68 -44 -126t-128 -77q-45 -10 -140 -10v-221q0 -39 5.5 -58t14.5 -24.5t30 -8.5zM176 336h48q182 0 182 178
q0 83 -41.5 136.5t-116.5 53.5q-36 0 -72 -10v-358z" />
    <glyph glyph-name="Q.alt" 
d="M753 -10l2 -1q-13 -30 -41 -54.5t-60 -24.5q-24 0 -80 28.5t-89 28.5q-40 0 -84.5 -16t-71 -31t-72.5 -45l-1 2q23 26 77.5 62.5t113.5 54.5q-34 -4 -51 -4q-159 0 -258.5 110t-99.5 256q0 96 43 181t128.5 140t194.5 55q148 0 252 -107t104 -266q0 -126 -72.5 -224
t-189.5 -131q3 0 10.5 0.5t11.5 0.5q48 0 98 -22t75 -22q33 0 60 29zM396 13q120 0 196 87t76 253q0 177 -80 267t-192 90q-52 0 -98 -20.5t-84 -61t-60.5 -110t-22.5 -159.5q0 -172 74 -259t191 -87z" />
    <glyph glyph-name="R.alt" horiz-adv-x="552" 
d="M554 3v-6q-9 -1 -25 -1q-23 1 -37.5 2t-32 8.5t-27.5 13t-26.5 25.5t-27 36t-32 54l-38 69.5l-48.5 93.5q-12 23 -20.5 32.5t-32.5 22.5l4 8q25 -14 61 -14q66 0 100 46t34 120q0 88 -42 139.5t-118 51.5q-37 0 -70 -10v-600q0 -39 5.5 -58t14.5 -24.5t30 -8.5v-5
q-42 2 -87 2q-43 0 -87 -2v5q21 3 30 8.5t14.5 24.5t5.5 58v537q0 56 -11.5 71t-43.5 20v5q44 -2 80 -2q30 0 65.5 1t52.5 1q123 0 183 -54.5t60 -142.5q0 -74 -46.5 -131.5t-134.5 -67.5q19 -14 50 -65t59 -103t66.5 -100t71.5 -60z" />
    <glyph glyph-name="S.alt" horiz-adv-x="453" 
d="M46 168h5q9 -77 49 -115t116 -38q56 0 96 35t40 100q0 40 -16.5 74t-43 57.5t-58.5 46l-64 45t-58.5 48t-43 62t-16.5 80.5q0 80 52 129.5t133 49.5q31 0 73.5 -8t59.5 -8q11 0 17 1q-3 -31 -3 -66q0 -40 1 -55h-6q-22 115 -140 115q-52 0 -87 -28.5t-35 -84.5
q0 -44 22 -81t55 -60.5l72 -51.5t72 -55t55 -70t22 -97q0 -92 -59 -147.5t-149 -55.5q-36 0 -79 9.5t-65 9.5q-9 0 -15 -1q3 15 3 56q0 56 -5 104z" />
    <glyph glyph-name="T.alt" horiz-adv-x="546" 
d="M366 3v-5q-42 2 -87 2q-43 0 -87 -2v5q21 3 30 8.5t14.5 24.5t5.5 58v593q-130 0 -172 -9.5t-63 -54.5h-5q3 16 15 54t19 73h5q2 -23 36 -28t181 -5h103q151 0 202.5 9.5t84.5 51.5h6q-14 -22 -37.5 -42t-42.5 -31.5t-33.5 -29.5t-15.5 -40h-6q2 8 2 15q0 12 -6.5 19
t-30 11t-61.5 5.5t-107 1.5v-593q0 -39 5.5 -58t14.5 -24.5t30 -8.5z" />
    <glyph glyph-name="U.alt" horiz-adv-x="736" 
d="M684 3v-5q-42 2 -71 2q-40 0 -56 -2q3 18 3 96v25q-27 -69 -85.5 -102t-134.5 -33q-127 0 -189.5 68t-62.5 212v367q0 39 -5.5 58t-14.5 24.5t-30 8.5v5q44 -2 87 -2q52 0 94 2v-5q-33 -4 -45 -19.5t-12 -71.5v-356q0 -59 7 -101.5t26 -80.5t56 -57.5t93 -19.5
q109 0 162.5 66t53.5 178v371q0 49 -15 67.5t-46 23.5v5q44 -2 98 -2q45 0 87 2v-5q-21 -3 -30 -8.5t-14.5 -24.5t-5.5 -58v-537q0 -39 5.5 -58t14.5 -24.5t30 -8.5z" />
    <glyph glyph-name="V.alt" horiz-adv-x="616" 
d="M313 -22h-6l-234 637l-23 61.5t-22 53t-24.5 48.5t-27 37t-33 31t-38.5 17t-47 7q-47 0 -65 -15l-3 8q59 45 122 45q134 0 198 -175l222 -611l143 413q38 112 38 139q0 21 -12.5 32t-40.5 16v5q44 -2 109 -2q24 0 66 2v-5q-39 -11 -64 -49t-65 -151z" />
    <glyph glyph-name="W.alt" horiz-adv-x="914" 
d="M601 -22h-6l-136 362l-144 -362h-6l-236 637q-17 47 -26.5 71t-26 59.5t-31 53.5t-34.5 37t-44 26.5t-54 7.5q-47 0 -65 -15l-3 8q59 45 122 45q133 0 197 -175l226 -607l107 263l-97 258q-15 40 -31.5 54t-48.5 21v5q42 -2 103 -2q39 0 83 2v-5q-40 -5 -40 -34
q0 -16 14 -53l57 -147l19 47q41 100 41 136q0 44 -50 51v5q44 -2 116 -2q24 0 66 2v-5q-41 -8 -67 -42.5t-75 -157.5l-32 -81l121 -315l155 409q37 97 37 134q0 45 -55 55v3q44 -2 125 -2q24 0 66 2v-3q-24 -7 -34.5 -12t-28 -24.5t-35.5 -58.5t-44 -107z" />
    <glyph glyph-name="X.alt" horiz-adv-x="621" 
d="M644 3v-5q-42 2 -101 2q-69 0 -113 -2v5q49 4 49 29q0 19 -25 57l-151 236l-91 -135q-74 -110 -74 -145t45 -42v-5q-44 2 -105 2q-70 0 -112 -2v5q57 8 92 41t123 159l105 150l-189 298q-68 108 -116.5 157t-111.5 50q-28 0 -54.5 -9t-37.5 -23l-4 8q62 74 148 74
q107 0 190 -134l223 -358l78 119q73 113 73 148q0 33 -48 39v5q44 -2 109 -2q50 0 92 2v-5q-23 -7 -34.5 -13t-34.5 -25t-52.5 -58t-73.5 -104l-91 -135l194 -309q19 -30 36.5 -46.5t29.5 -21t32 -7.5z" />
    <glyph glyph-name="Y.alt" horiz-adv-x="604" 
d="M384 3v-5q-42 2 -87 2q-43 0 -87 -2v5q31 6 40.5 20.5t9.5 70.5v135q0 59 -46.5 174t-108.5 208t-99 93q-20 0 -27 -3l-2 9q45 23 85 23q56 0 123 -114t113 -269q54 159 129.5 271t148.5 112q25 0 54 -14l-1 -6q-13 3 -25 3q-44 0 -94.5 -62.5t-88 -146t-62.5 -164
t-25 -118.5v-131q0 -56 9.5 -70.5t40.5 -20.5z" />
    <glyph glyph-name="Z.alt" horiz-adv-x="596" 
d="M556 -48h-4q-6 33 -24.5 40.5t-90.5 7.5h-423v5l461 690h-215q-91 0 -134.5 -9t-62 -30t-27.5 -68h-5q4 32 19 88.5t15 79.5h4q6 -19 24 -25t86 -6h402v-5l-462 -690h210q120 0 166 17.5t56 79.5h5q-2 -62 -2 -83q0 -24 2 -92z" />
    <glyph glyph-name="a.alt" horiz-adv-x="438" 
d="M414 3v-5q-44 2 -55 2q-34 0 -54 -2q2 16 2 45v10q-65 -63 -149 -63q-61 0 -94.5 32t-33.5 78q0 54 44.5 90.5t116.5 36.5q69 0 116 -33v169q0 49 -21 74t-70 25q-45 0 -79.5 -33t-36.5 -93h-51q10 66 59.5 105t115.5 39q147 0 147 -130v-256q0 -56 9 -71t34 -20zM307 73
v103q-34 32 -96 32q-51 0 -80 -30.5t-29 -71.5q0 -36 24 -62t67 -26q66 0 114 55z" />
    <glyph glyph-name="d.alt" horiz-adv-x="521" 
d="M487 3v-5q-44 2 -55 2q-34 0 -54 -2q2 16 2 45q-53 -53 -134 -53q-99 0 -156.5 68.5t-57.5 163.5q0 110 70.5 184t166.5 74q58 0 111 -33v234q0 29 -7.5 39t-36.5 15v5q76 5 108 22v-668q0 -56 9 -71t34 -20zM380 102v288q-15 32 -48 51t-70 19q-62 0 -103 -56.5
t-41 -171.5q0 -92 44 -150t121 -58q33 0 65 19t32 59z" />
    <glyph glyph-name="e.alt" horiz-adv-x="469" 
d="M433 72l4 -4q-63 -78 -166 -78q-114 0 -176 72t-62 172q0 104 61 175t152 71q81 0 133 -52.5t52 -128.5q0 -27 -5 -46h-312q4 -109 58 -169.5t139 -60.5q69 0 122 49zM114 273h232q2 24 2 37q0 66 -25.5 111.5t-78.5 45.5q-59 0 -94 -57.5t-36 -136.5z" />
    <glyph glyph-name="f.alt" horiz-adv-x="230" 
d="M175 -222v-5q-44 2 -75 2t-75 -2v5q25 5 34 20t9 71v586h-17v3l17 17q0 99 13.5 156.5t59.5 96.5t101 39q35 0 55 -15l-42 -54q-29 31 -63 31q-40 0 -50 -45.5t-10 -161.5v-47h61q19 0 22 5h5q0 -7 -1 -27t-1 -35h-4q0 23 -7.5 30t-33.5 7h-41v-586q0 -56 9 -71t34 -20z
" />
    <glyph glyph-name="g.alt" horiz-adv-x="458" 
d="M369 492l68 -3q3 -9 3 -16q0 -23 -25.5 -35.5t-57.5 -16.5q38 -45 38 -104q0 -73 -51.5 -116t-126.5 -43q-13 0 -35 2q-46 -15 -46 -55q0 -12 3.5 -20.5t12 -14.5t16 -9.5t23.5 -6l26 -4t32 -3.5l33 -3q85 -9 123 -44t38 -84q0 -57 -57 -99t-157 -42q-85 0 -147.5 33.5
t-62.5 93.5q0 86 120 124q-34 7 -51.5 21.5t-17.5 44.5q0 29 22.5 48t53.5 28q-53 17 -81.5 58.5t-28.5 92.5q0 65 47.5 113t131.5 48q78 0 131 -48q36 9 36 32q0 12 -13 28zM178 22q-81 -22 -81 -114q0 -59 37.5 -89t96.5 -30q55 0 92 28t37 87q0 16 -3.5 30t-7.5 24
t-13.5 18.5l-15.5 14t-20.5 10.5l-21.5 7.5t-25 5t-24 3.5t-26.5 3t-24.5 2zM214 171q98 0 98 143q0 153 -101 153q-92 0 -92 -144q0 -80 23.5 -116t71.5 -36z" />
    <glyph glyph-name="i.alt" horiz-adv-x="211" 
d="M182 3v-5q-44 2 -75 2t-75 -2v5q25 5 34 20t9 71v300q0 29 -5 38.5t-26 15.5v5q55 4 95 22v-381q0 -56 9 -71t34 -20zM103 502h-2q-6 75 -74 85v2q68 10 74 85h2q6 -75 74 -85v-2q-68 -10 -74 -85z" />
    <glyph glyph-name="j.alt" horiz-adv-x="198" 
d="M-6 -224l1 7q50 0 61 45.5t11 194.5v371q0 29 -5 38.5t-26 15.5v5q55 4 95 22v-487q0 -47 -3.5 -79t-15 -65.5t-38 -51t-66.5 -17.5q-8 0 -14 1zM95 502h-2q-6 75 -74 85v2q68 10 74 85h2q6 -75 74 -85v-2q-68 -10 -74 -85z" />
    <glyph glyph-name="k.alt" horiz-adv-x="468" 
d="M489 3v-5q-78 2 -91 2q-5 0 -59 -2v5q18 2 18 8q0 4 -7 13l-203 229v4q91 86 133.5 132t42.5 65q0 14 -24 18v5q46 -2 71 -2q23 0 71 2v-6q-36 -7 -72 -35t-166 -149l62 -70.5l52 -59l41 -46.5l33.5 -37.5l26 -27.5t22 -20.5t17.5 -12.5t16.5 -8t15.5 -2zM179 3v-5
q-44 2 -75 2t-75 -2v5q25 5 34 20t9 71v587q0 29 -5 38.5t-26 15.5v5q55 4 95 22v-668q0 -56 9 -71t34 -20z" />
    <glyph glyph-name="m.alt" horiz-adv-x="800" 
d="M777 3v-5q-44 2 -75 2t-75 -2v5q25 5 34 20t9 71v208q0 89 -28.5 120t-82.5 31q-83 0 -132 -78q7 -42 7 -72v-209q0 -56 9 -71t34 -20v-5q-44 2 -75 2t-75 -2v5q25 5 34 20t9 71v207q0 90 -29 121t-81 31q-70 0 -121 -60v-299q0 -56 9 -71t34 -20v-5q-44 2 -75 2t-75 -2
v5q25 5 34 20t9 71v305q0 29 -5 38.5t-26 15.5v5q55 4 95 22v-68q60 68 146 68q107 0 138 -91q28 49 72.5 70t87.5 21q151 0 151 -178v-208q0 -56 9 -71t34 -20z" />
    <glyph glyph-name="n.alt" horiz-adv-x="517" 
d="M494 3v-5q-44 2 -75 2t-75 -2v5q25 5 34 20t9 71v215q0 85 -31 114.5t-87 29.5q-84 0 -130 -87v-272q0 -56 9 -71t34 -20v-5q-44 2 -75 2t-75 -2v5q25 5 34 20t9 71v305q0 29 -5 38.5t-26 15.5v5q55 4 95 22v-93q26 43 70 68t85 25q157 0 157 -170v-216q0 -56 9 -71
t34 -20z" />
    <glyph glyph-name="o.alt" horiz-adv-x="547" 
d="M277 -6q-114 0 -179 64t-65 176q0 107 69 176.5t173 69.5t171.5 -70t67.5 -176q0 -101 -65 -170.5t-172 -69.5zM273 7q48 0 81 20t49 56t22 73t6 85q0 226 -163 226q-152 0 -152 -242q0 -218 157 -218zM274 151h-2q-6 75 -74 85v2q68 10 74 85h2q6 -75 74 -85v-2
q-68 -10 -74 -85z" />
    <glyph glyph-name="r.alt" horiz-adv-x="361" 
d="M182 3v-5q-44 2 -75 2t-75 -2v5q25 5 34 20t9 71v305q0 29 -5 38.5t-26 15.5v5q55 4 95 22v-93q22 35 65 64t84 29q36 0 49.5 -22t13.5 -61h-64q0 54 -37 54q-23 0 -56 -22t-55 -62v-273q0 -56 9 -71t34 -20z" />
    <glyph glyph-name="u.alt" horiz-adv-x="513" 
d="M484 3v-5q-44 2 -55 2q-34 0 -54 -2q2 16 2 45v39q-56 -92 -161 -92q-151 0 -151 173v236q0 27 -9.5 38t-39.5 16v5q82 5 113 22v-312q0 -80 26.5 -115.5t85.5 -35.5q91 0 136 89v293q0 29 -7.5 39t-36.5 15v5q76 5 108 22v-386q0 -56 9 -71t34 -20z" />
    <glyph glyph-name="w.alt" horiz-adv-x="734" 
d="M476 -16h-7l-111 323l-140 -323h-7l-165 439q-10 28 -20.5 36t-33.5 12v5q4 0 33 -0.5t50 -0.5q22 0 52 0.5t34 0.5v-5q-24 -3 -34.5 -8.5t-10.5 -18.5q0 -8 7 -29l115 -320l107 248l-27 80q-8 25 -20.5 33t-43.5 15v5q63 -3 98 -3q23 0 56.5 1.5t42.5 1.5v-5
q-33 -6 -45 -13t-12 -27q0 -11 6 -31l97 -305l116 254q29 63 29 85q0 33 -52 37v5q3 0 29 -0.5t52 -0.5q19 0 43.5 0.5t29.5 0.5v-5q-21 -5 -32 -11.5t-31 -37t-48 -91.5z" />
    <glyph glyph-name="y.alt" horiz-adv-x="515" 
d="M318 -222v-5q-44 2 -75 2t-75 -2v5q25 5 34 20t9 71v151l-166 403q-11 28 -21.5 36t-32.5 12v5q4 0 33 -0.5t50 -0.5q22 0 52 0.5t34 0.5v-5q-24 -3 -34.5 -8.5t-10.5 -18.5q0 -12 7 -29l142 -348l132 282q29 61 29 86q0 32 -50 36v5q3 0 28 -0.5t51 -0.5q19 0 42.5 0.5
t28.5 0.5v-5q-28 -6 -49 -30t-60 -110l-141 -309v-153q0 -56 9 -71t34 -20z" />
    <glyph glyph-name="ampersand.alt" horiz-adv-x="651" 
d="M352 106h-4q8 18 8 60q0 25 -18 65.5t-50.5 99.5t-47.5 91q-62 -48 -97.5 -99t-35.5 -116q0 -86 60 -135.5t139 -49.5q96 0 177.5 70.5t81.5 161.5q0 79 -87 92q32 19 61 19q34 0 55 -24.5t21 -73.5q0 -94 -112 -188.5t-242 -94.5q-94 0 -161.5 50.5t-67.5 142.5
q0 46 16 85.5t48 73.5t60.5 57t73.5 53q-23 56 -23 94q0 72 66 123.5t131 51.5q28 0 45 -12.5t17 -36.5q0 -39 -27.5 -78t-52.5 -59t-84 -61q-12 -9 -18 -13q16 -37 47.5 -90t50.5 -92t19 -67q0 -48 -49 -100zM276 476q65 45 99 83t34 84q0 41 -44 41q-41 0 -74 -31.5
t-33 -82.5q0 -43 18 -94z" />
    <glyph glyph-name="numbersign.alt" horiz-adv-x="1196" 
d="M1114 130h-290v20h290v-20zM709 -22h-5l-568 655v-112q0 -374 9 -439q8 -54 33 -68q7 -4 27 -11v-5q-44 2 -85 2q-37 0 -79 -2v5q32 12 41 26q19 30 22 183q2 76 2 310v89q0 40 -7 60t-17.5 28t-41.5 23v5q24 -2 68 -2q35 0 49 1l522 -613v89q0 379 -10 446q-8 51 -33 64
q-6 4 -23 9q-2 1 -3 1v5q44 -2 85 -2t83 2v-5q-33 -11 -43 -24q-20 -28 -24 -171q-2 -79 -2 -319v-230zM976 221q-86 0 -137.5 45t-51.5 140q0 92 55 142t132 50q76 0 130.5 -51t54.5 -141q0 -85 -52.5 -135t-130.5 -50zM972 237q64 0 88 45t24 131q0 85 -26.5 126.5
t-89.5 41.5q-107 0 -107 -183q0 -80 25 -120.5t86 -40.5zM977 339h-2q-4 60 -60 69v2q56 9 60 69h2q4 -60 60 -69v-2q-56 -9 -60 -69z" />
    <glyph glyph-name="zero.osf.alt" horiz-adv-x="612" 
d="M306 -13q-112 0 -188.5 75.5t-76.5 206.5q0 127 76.5 201.5t188.5 74.5q111 0 188.5 -76.5t77.5 -203.5t-77.5 -202.5t-188.5 -75.5zM305 6q89 0 134 77t45 183t-45 183t-134 77q-87 0 -132 -75t-45 -185q0 -67 17 -123.5t58.5 -96.5t101.5 -40zM307 161h-2
q-4 97 -91 104v2q87 7 91 104h2q4 -98 91 -104v-2q-87 -6 -91 -104z" />
    <glyph glyph-name="one.osf.alt" horiz-adv-x="272" 
d="M223 3v-5q-42 2 -87 2q-43 0 -87 -2v5q21 3 30 8.5t14.5 24.5t5.5 58v342q0 39 -5.5 58t-14.5 24.5t-30 8.5v5q44 -2 87 -2q45 0 87 2v-5q-21 -3 -30 -8.5t-14.5 -24.5t-5.5 -58v-342q0 -39 5.5 -58t14.5 -24.5t30 -8.5z" />
    <glyph glyph-name="zero.osf" horiz-adv-x="612" 
d="M306 -13q-112 0 -188.5 75.5t-76.5 206.5q0 127 76.5 201.5t188.5 74.5q111 0 188.5 -76.5t77.5 -203.5t-77.5 -202.5t-188.5 -75.5zM305 6q89 0 134 77t45 183t-45 183t-134 77q-87 0 -132 -75t-45 -185q0 -67 17 -123.5t58.5 -96.5t101.5 -40z" />
    <glyph glyph-name="one.osf" horiz-adv-x="285" 
d="M236 3v-5q-42 2 -87 2q-43 0 -87 -2v5q21 3 30 8.5t14.5 24.5t5.5 58v349q-28 -24 -83 -60l-5 11q45 30 67.5 46.5t52 48.5t37.5 61h5v-456q0 -39 5.5 -58t14.5 -24.5t30 -8.5z" />
    <glyph glyph-name="two.osf" horiz-adv-x="493" 
d="M451 140h5q0 -13 -10.5 -58.5t-11.5 -87.5q-126 6 -266 6q-31 0 -94 -0.5t-64 -0.5v5q139 81 238 181t99 195q0 66 -36 99t-86 33q-54 0 -94.5 -36t-40.5 -91q0 -39 25 -70q-24 -4 -39 -15q-15 32 -15 66q0 81 58 129t137 48q70 0 120 -39.5t50 -113.5q0 -149 -282 -321
q56 -1 133 -3.5t85 -2.5q44 0 59 14t30 63z" />
    <glyph glyph-name="three.osf" horiz-adv-x="483" 
d="M71 -6l3 -2q-7 -20 -7 -40q0 -60 39.5 -93.5t101.5 -33.5q73 0 113 47t40 114q0 82 -46.5 130.5t-134.5 52.5v7q90 5 131.5 53.5t41.5 122.5q0 72 -42.5 114t-113.5 42q-57 0 -99 -35t-42 -94q0 -37 25 -66q-22 -5 -39 -15q-14 29 -14 68q0 72 54.5 125t142.5 53
q94 0 152.5 -54t58.5 -132q0 -100 -117 -157q125 -63 125 -183q0 -89 -62 -152.5t-168 -63.5q-64 0 -118.5 37t-78.5 105q20 13 35 30t19 20z" />
    <glyph glyph-name="four.osf" horiz-adv-x="515" 
d="M451 -190v-5q-42 2 -87 2q-43 0 -87 -2v5q21 3 30 8.5t14.5 24.5t5.5 58v121h-328l-2 4l399 523h5v-481h7q26 0 37 1t22.5 9t17.5 24h5q-1 -13 -13.5 -41t-15.5 -44q-14 5 -51 5h-9v-121q0 -39 5.5 -58t14.5 -24.5t30 -8.5zM327 68v353l-270 -353h270z" />
    <glyph glyph-name="five.osf" horiz-adv-x="451" 
d="M35 -37l4 -3q-1 -6 -1 -17q0 -59 43 -94.5t112 -35.5q70 0 121 48.5t51 144.5q0 92 -50 145.5t-132 53.5t-133 -56h-5q17 126 17 385q135 -9 238 -9q36 0 47.5 2.5t20.5 14.5h5q-1 -4 -14.5 -33.5t-19.5 -53.5l-252 9q-2 -117 -7 -212q56 24 113 24q106 0 172 -61.5
t66 -175.5q0 -103 -66.5 -176t-168.5 -73q-67 0 -123 34.5t-81 98.5q15 11 27 24t16 16z" />
    <glyph glyph-name="six.osf" horiz-adv-x="543" 
d="M154 347h-5q17 65 61.5 99.5t100.5 34.5q83 0 144 -64.5t61 -174.5q0 -100 -66 -176t-162 -76q-115 0 -180.5 92t-65.5 224q0 62 15 122t47 115.5t78 97.5t112 67t144 25v-9q-70 -3 -124.5 -30.5t-89 -69.5t-57.5 -99t-32 -116t-9 -124q0 -43 7.5 -87t25 -89t51.5 -73.5
t81 -28.5q39 0 68.5 23t44.5 60t22 73.5t7 71.5q0 104 -41 158.5t-109 54.5q-40 0 -75 -24.5t-54 -76.5z" />
    <glyph glyph-name="seven.osf" horiz-adv-x="510" 
d="M506 530v-5q-101 -190 -207 -423.5t-111 -293.5q-19 3 -61 3q11 17 22.5 39t35 71.5l49.5 106.5l82.5 178.5l118.5 254.5h-304q-31 0 -44 -1t-28.5 -7.5t-21.5 -20.5t-8 -39h-5q0 27 3.5 64t3.5 55q0 23 -2 35h5q20 -17 44 -17h428z" />
    <glyph glyph-name="eight.osf" horiz-adv-x="483" 
d="M292 383q68 -55 104.5 -102.5t36.5 -109.5q0 -80 -59.5 -130.5t-137.5 -50.5q-92 0 -142.5 47.5t-50.5 115.5q0 122 161 200q-33 27 -52.5 45t-42 44.5t-33 55.5t-10.5 62q0 79 50.5 126.5t129.5 47.5q87 0 135 -46.5t48 -111.5q0 -55 -36 -107t-101 -86zM220 340
q-116 -53 -116 -182q0 -64 37 -104.5t105 -40.5q56 0 85.5 36t29.5 87q0 31 -10.5 59.5t-34 55t-43 44t-53.5 45.5zM277 395q50 28 75.5 75.5t25.5 100.5q0 64 -35 102t-104 38q-52 0 -82 -30t-30 -82q0 -25 10 -49.5t19.5 -40.5t36.5 -42t38 -34.5t46 -37.5z" />
    <glyph glyph-name="nine.osf" horiz-adv-x="550" 
d="M122 -198v9q70 3 124.5 30.5t89 69.5t57.5 99t32 116t9 124q0 43 -7.5 87t-25 89t-51.5 73.5t-81 28.5q-39 0 -68.5 -23t-44.5 -60t-22 -73.5t-7 -71.5q0 -104 41 -158.5t109 -54.5q40 0 75 24.5t54 76.5h5q-17 -65 -61.5 -99.5t-100.5 -34.5q-83 0 -144 64.5t-61 174.5
q0 100 66 176t162 76q115 0 180.5 -92t65.5 -224q0 -62 -15 -122t-47 -115.5t-78 -97.5t-112 -67t-144 -25z" />
    <glyph glyph-name="dollar.alt" horiz-adv-x="361" 
d="M196 0h-23v124h-7q-66 0 -126 32q3 14 5 55.5t7 63.5h5q-1 -6 -1 -19q0 -52 26.5 -85t83.5 -33q41 0 66.5 25t25.5 71q0 35 -22.5 61t-54.5 42.5l-63.5 34t-54 48t-22.5 72.5q0 53 38.5 83.5t93.5 36.5v113h23v-111h2q57 0 114 -17q-3 -15 -3 -32q0 -2 2 -66h-5
q-8 43 -36.5 72.5t-75.5 29.5q-38 0 -63 -23.5t-25 -64.5q0 -32 22.5 -55.5t55 -40t65 -35.5t55 -51.5t22.5 -78.5q0 -54 -37.5 -86.5t-92.5 -39.5v-126z" />
    <glyph glyph-name="cent.alt" horiz-adv-x="563" 
d="M330 0h-23v88q-127 7 -198.5 87t-71.5 188q0 69 29 130t92 103t149 45v84h23v-83q21 -1 41.5 -3t43 -7t35.5 -8.5l37.5 -10.5t29.5 -8q-2 -38 -2 -71q0 -7 0.5 -21.5t0.5 -16.5h-5q-5 56 -55.5 89t-125.5 35v-510h11q59 0 109.5 30.5t66.5 84.5h5q-5 -34 -5 -90
q-96 -48 -187 -48v-87zM307 112v507q-83 -6 -137.5 -71t-54.5 -188q0 -114 55 -175.5t137 -72.5z" />
    <glyph glyph-name="yen.alt" horiz-adv-x="730" 
d="M643 172h-246v-78q0 -56 9.5 -70.5t40.5 -20.5v-5q-42 2 -87 2q-43 0 -87 -2v5q31 6 40.5 20.5t9.5 70.5v78h-249v23h249v34q0 35 -19 97h-230v23h222q-42 122 -113.5 238.5t-113.5 116.5q-20 0 -27 -3l-2 9q45 23 85 23q56 0 123 -114t113 -269q54 159 129.5 271
t148.5 112q25 0 54 -14l-1 -6q-13 3 -25 3q-33 0 -70 -35.5t-69.5 -92t-59 -117.5t-45.5 -122h220v-23h-227q-19 -68 -19 -101v-30h246v-23z" />
    <glyph glyph-name="Euro.alt" horiz-adv-x="801" 
d="M739 0h-5q-3 32 -10 48q-122 -58 -237 -58q-157 0 -257 82.5t-126 209.5h-68v23h64q-4 25 -4 58q0 32 4 57h-64v23h68q26 124 126.5 206.5t256.5 82.5q115 0 237 -58q7 16 10 48h5q-2 -42 -2 -70q0 -54 6 -91h-5q-21 72 -88 109.5t-147 37.5q-69 0 -131 -26.5t-112 -88
t-66 -150.5h470v-23h-473q-4 -25 -4 -59q0 -29 3 -56h474v-23h-471q15 -91 65.5 -153.5t112.5 -88.5t132 -26q80 0 147 37.5t88 109.5h5q-6 -37 -6 -91q0 -28 2 -70z" />
    <glyph glyph-name="exclam.alt" horiz-adv-x="244" 
d="M127 173h-7q0 16 -9 85.5t-18 180t-9 226.5q0 60 41 60q42 0 42 -60q0 -116 -10 -226.5t-20 -180t-10 -85.5zM124 -6h-2q-6 29 -16.5 41t-36.5 20v2q26 8 36.5 20t16.5 41h2q6 -29 16.5 -41t36.5 -20v-2q-26 -8 -36.5 -20t-16.5 -41z" />
    <glyph glyph-name="exclamdown.alt" horiz-adv-x="238" 
d="M114 362h7q0 -16 9 -85.5t18 -180t9 -226.5q0 -60 -41 -60q-42 0 -42 60q0 116 10 226.5t20 180t10 85.5zM119 412h-2q-6 29 -17 41.5t-37 20.5v2q26 8 37 20.5t17 41.5h2q6 -29 17 -41.5t37 -20.5v-2q-26 -8 -37 -20.5t-17 -41.5z" />
    <glyph glyph-name="question.alt" horiz-adv-x="461" 
d="M223 163h-8q0 52 14.5 92t35.5 66l42.5 50.5t36 60t14.5 80.5q0 79 -46.5 121t-110.5 42q-56 0 -96.5 -33t-40.5 -89q0 -44 27 -76.5t71 -32.5q22 0 42 4q-22 -31 -24 -51q-69 14 -106.5 62t-37.5 108q0 78 53.5 121.5t128.5 43.5q81 0 141 -50t60 -140q0 -51 -20 -92
t-49 -70l-58 -57.5t-49 -69t-20 -90.5zM220 -6h-2q-6 29 -16.5 41t-36.5 20v2q26 8 36.5 20t16.5 41h2q6 -29 16.5 -41t36.5 -20v-2q-26 -8 -36.5 -20t-16.5 -41z" />
    <glyph glyph-name="questiondown.alt" horiz-adv-x="453" 
d="M238 348h8q0 -52 -14.5 -92t-35.5 -66l-42.5 -50.5t-36 -60t-14.5 -80.5q0 -79 46.5 -121t110.5 -42q56 0 96.5 33t40.5 89q0 44 -27 76.5t-71 32.5q-22 0 -42 -4q22 31 24 51q69 -14 106.5 -62t37.5 -108q0 -78 -53.5 -121.5t-128.5 -43.5q-81 0 -141 50t-60 140
q0 51 20 92t49 70l58 57.5t49 69t20 90.5zM242 391h-2q-6 29 -17 41.5t-37 20.5v2q26 8 37 20.5t17 41.5h2q6 -29 17 -41.5t37 -20.5v-2q-26 -8 -37 -20.5t-17 -41.5z" />
    <glyph glyph-name="asterisk.alt" horiz-adv-x="714" 
d="M361 0h-8q-3 184 -80.5 269.5t-232.5 90.5v8q155 5 232.5 90.5t80.5 269.5h8q3 -185 80.5 -271t232.5 -89v-8q-155 -3 -232.5 -89t-80.5 -271z" />
    <glyph glyph-name="plus.alt" horiz-adv-x="652" 
d="M415 3v-5q-42 2 -87 2q-43 0 -87 -2v5q21 3 30 8.5t14.5 24.5t5.5 58v239h-182q-39 0 -58 -5.5t-24.5 -14.5t-8.5 -30h-5q2 44 2 79q0 37 -2 79h5q3 -21 8.5 -30t24.5 -14.5t58 -5.5h182v240q0 39 -5.5 58t-14.5 24.5t-30 8.5v5q44 -2 87 -2q45 0 87 2v-5
q-21 -3 -30 -8.5t-14.5 -24.5t-5.5 -58v-240h181q39 0 58 5.5t24.5 14.5t8.5 30h5q-2 -42 -2 -79q0 -35 2 -79h-5q-3 21 -8.5 30t-24.5 14.5t-58 5.5h-181v-239q0 -39 5.5 -58t14.5 -24.5t30 -8.5z" />
    <glyph glyph-name="dieresis.alt" horiz-adv-x="321" 
d="M97 510h-2q-5 25 -14.5 35.5t-30.5 16.5v2q21 6 30.5 16.5t14.5 35.5h2q5 -25 14.5 -35.5t30.5 -16.5v-2q-21 -6 -30.5 -16.5t-14.5 -35.5zM226 510h-2q-5 25 -14.5 35.5t-30.5 16.5v2q21 6 30.5 16.5t14.5 35.5h2q5 -25 14.5 -35.5t30.5 -16.5v-2q-21 -6 -30.5 -16.5
t-14.5 -35.5z" />
    <glyph glyph-name="dotaccent.alt" horiz-adv-x="210" 
d="M106 502h-2q-6 29 -17 41.5t-37 20.5v2q26 8 37 20.5t17 41.5h2q6 -29 17 -41.5t37 -20.5v-2q-26 -8 -37 -20.5t-17 -41.5z" />
    <glyph glyph-name="bullet.alt" horiz-adv-x="366" 
d="M185 202h-4q-6 152 -141 162v4q135 10 141 162h4q6 -153 141 -162v-4q-135 -9 -141 -162z" />
    <glyph glyph-name="periodcentered.alt" horiz-adv-x="220" 
d="M111 300h-2q-6 29 -17 41.5t-37 20.5v2q26 8 37 20.5t17 41.5h2q6 -29 17 -41.5t37 -20.5v-2q-26 -8 -37 -20.5t-17 -41.5z" />
    <glyph glyph-name="period.alt" horiz-adv-x="208" 
d="M105 -6h-2q-6 29 -16.5 41t-36.5 20v2q26 8 36.5 20t16.5 41h2q6 -29 16.5 -41t36.5 -20v-2q-26 -8 -36.5 -20t-16.5 -41z" />
    <glyph glyph-name="colon.alt" horiz-adv-x="220" 
d="M111 300h-2q-6 29 -17 41.5t-37 20.5v2q26 8 37 20.5t17 41.5h2q6 -29 17 -41.5t37 -20.5v-2q-26 -8 -37 -20.5t-17 -41.5zM111 -6h-2q-6 29 -17 41.5t-37 20.5v2q26 8 37 20.5t17 41.5h2q6 -29 17 -41.5t37 -20.5v-2q-26 -8 -37 -20.5t-17 -41.5z" />
    <glyph glyph-name="semicolon.alt" horiz-adv-x="222" 
d="M87 -103l-4 2q40 32 40 84q0 9 -2 17q-7 -4 -15 -4q-16 0 -24.5 10t-8.5 25q0 17 10 27.5t24 10.5q17 0 30.5 -15.5t13.5 -44.5q0 -36 -17 -65.5t-47 -46.5zM113 300h-2q-6 29 -17 41.5t-37 20.5v2q26 8 37 20.5t17 41.5h2q6 -29 17 -41.5t37 -20.5v-2q-26 -8 -37 -20.5
t-17 -41.5z" />
    <glyph glyph-name="ellipsis.alt" horiz-adv-x="624" 
d="M105 -6h-2q-6 29 -16.5 41t-36.5 20v2q26 8 36.5 20t16.5 41h2q6 -29 16.5 -41t36.5 -20v-2q-26 -8 -36.5 -20t-16.5 -41zM313 -6h-2q-6 29 -16.5 41t-36.5 20v2q26 8 36.5 20t16.5 41h2q6 -29 16.5 -41t36.5 -20v-2q-26 -8 -36.5 -20t-16.5 -41zM521 -6h-2
q-6 29 -16.5 41t-36.5 20v2q26 8 36.5 20t16.5 41h2q6 -29 16.5 -41t36.5 -20v-2q-26 -8 -36.5 -20t-16.5 -41z" />
    <glyph glyph-name="divide.alt" horiz-adv-x="503" 
d="M437 317v-30q-39 1 -186 1t-185 -1v30q76 -2 185 -2q108 0 186 2zM251 365h-2q-6 29 -17 41.5t-37 20.5v2q26 8 37 20.5t17 41.5h2q6 -29 17 -41.5t37 -20.5v-2q-26 -8 -37 -20.5t-17 -41.5zM251 111h-2q-6 29 -17 41.5t-37 20.5v2q26 8 37 20.5t17 41.5h2
q6 -29 17 -41.5t37 -20.5v-2q-26 -8 -37 -20.5t-17 -41.5z" />
    <glyph glyph-name="ordfeminine.alt" horiz-adv-x="407" 
d="M360 228h-290v20h290v-20zM364 328v-4q-34 2 -42 2q-36 0 -52 -2q2 14 2 35v8q-51 -49 -115 -49q-52 0 -75.5 28t-23.5 67q0 45 32 76.5t92 31.5q54 0 90 -25v105q0 76 -71 76q-34 0 -61 -24t-28 -68h-49q8 52 47.5 81.5t97.5 29.5q123 0 123 -100v-197q0 -43 7 -55
t26 -16zM272 387v90q-27 24 -74 24q-34 0 -54 -25.5t-20 -57.5q0 -29 16 -51t44 -22q49 0 88 42z" />
    <glyph glyph-name="ordmasculine.alt" horiz-adv-x="467" 
d="M376 228h-290v20h290v-20zM238 319q-86 0 -137.5 45t-51.5 140q0 92 55 142t132 50q76 0 130.5 -51t54.5 -141q0 -85 -52.5 -135t-130.5 -50zM234 335q64 0 88 45t24 131q0 85 -26.5 126.5t-89.5 41.5q-107 0 -107 -183q0 -80 25 -120.5t86 -40.5zM239 437h-2
q-4 60 -60 69v2q56 9 60 69h2q4 -60 60 -69v-2q-56 -9 -60 -69z" />
    <glyph glyph-name="Agrave.alt" horiz-adv-x="582" 
d="M357 780l-11 -9l-162 121l38 40zM578 3v-5q-42 2 -87 2t-89 -2v5q44 3 44 35q0 12 -12 52l-34 109q-54 1 -162 1q-75 0 -113 -1l-31 -84q-17 -47 -17 -68q0 -39 46 -44v-5q-44 2 -93 2q-26 0 -68 -2v5q40 9 59.5 32.5t50.5 105.5l226 601h10l210 -664q16 -49 24 -60
t36 -15zM362 319l-88 284l-104 -283q31 -1 94 -1h98zM390 230l-19 60h-107q-70 0 -106 -1l-22 -59q34 -1 102 -1q101 0 152 1z" />
    <glyph glyph-name="agrave.alt" horiz-adv-x="438" 
d="M414 3v-5q-44 2 -55 2q-34 0 -54 -2q2 16 2 45v10q-65 -63 -149 -63q-61 0 -94.5 32t-33.5 78q0 54 44.5 90.5t116.5 36.5q69 0 116 -33v169q0 49 -21 74t-70 25q-45 0 -79.5 -33t-36.5 -93h-51q10 66 59.5 105t115.5 39q147 0 147 -130v-256q0 -56 9 -71t34 -20zM307 73
v103q-34 32 -96 32q-51 0 -80 -30.5t-29 -71.5q0 -36 24 -62t67 -26q66 0 114 55zM287 530l-11 -9l-162 121l38 40z" />
    <glyph glyph-name="Aacute.alt" horiz-adv-x="582" 
d="M397 893l-162 -121l-11 9l135 152zM578 3v-5q-42 2 -87 2t-89 -2v5q44 3 44 35q0 12 -12 52l-34 109q-54 1 -162 1q-75 0 -113 -1l-31 -84q-17 -47 -17 -68q0 -39 46 -44v-5q-44 2 -93 2q-26 0 -68 -2v5q40 9 59.5 32.5t50.5 105.5l226 601h10l210 -664q16 -49 24 -60
t36 -15zM362 319l-88 284l-104 -283q31 -1 94 -1h98zM390 230l-19 60h-107q-70 0 -106 -1l-22 -59q34 -1 102 -1q101 0 152 1z" />
    <glyph glyph-name="aacute.alt" horiz-adv-x="438" 
d="M414 3v-5q-44 2 -55 2q-34 0 -54 -2q2 16 2 45v10q-65 -63 -149 -63q-61 0 -94.5 32t-33.5 78q0 54 44.5 90.5t116.5 36.5q69 0 116 -33v169q0 49 -21 74t-70 25q-45 0 -79.5 -33t-36.5 -93h-51q10 66 59.5 105t115.5 39q147 0 147 -130v-256q0 -56 9 -71t34 -20zM307 73
v103q-34 32 -96 32q-51 0 -80 -30.5t-29 -71.5q0 -36 24 -62t67 -26q66 0 114 55zM323 643l-162 -121l-11 9l135 152z" />
    <glyph glyph-name="Acircumflex.alt" horiz-adv-x="582" 
d="M451 766h-27l-120 115l-119 -115h-27l133 167h27zM578 3v-5q-42 2 -87 2t-89 -2v5q44 3 44 35q0 12 -12 52l-34 109q-54 1 -162 1q-75 0 -113 -1l-31 -84q-17 -47 -17 -68q0 -39 46 -44v-5q-44 2 -93 2q-26 0 -68 -2v5q40 9 59.5 32.5t50.5 105.5l226 601h10l210 -664
q16 -49 24 -60t36 -15zM362 319l-88 284l-104 -283q31 -1 94 -1h98zM390 230l-19 60h-107q-70 0 -106 -1l-22 -59q34 -1 102 -1q101 0 152 1z" />
    <glyph glyph-name="acircumflex.alt" horiz-adv-x="438" 
d="M414 3v-5q-44 2 -55 2q-34 0 -54 -2q2 16 2 45v10q-65 -63 -149 -63q-61 0 -94.5 32t-33.5 78q0 54 44.5 90.5t116.5 36.5q69 0 116 -33v169q0 49 -21 74t-70 25q-45 0 -79.5 -33t-36.5 -93h-51q10 66 59.5 105t115.5 39q147 0 147 -130v-256q0 -56 9 -71t34 -20zM307 73
v103q-34 32 -96 32q-51 0 -80 -30.5t-29 -71.5q0 -36 24 -62t67 -26q66 0 114 55zM360 530h-27l-120 115l-119 -115h-27l133 167h27z" />
    <glyph glyph-name="Atilde.alt" horiz-adv-x="582" 
d="M441 867h9q-5 -31 -27.5 -59t-61.5 -28q-25 0 -68 23t-69 23q-23 0 -33.5 -9.5t-19.5 -36.5h-10q6 36 29 59.5t55 23.5q25 0 69 -23t70 -23q42 0 57 50zM578 3v-5q-42 2 -87 2t-89 -2v5q44 3 44 35q0 12 -12 52l-34 109q-54 1 -162 1q-75 0 -113 -1l-31 -84
q-17 -47 -17 -68q0 -39 46 -44v-5q-44 2 -93 2q-26 0 -68 -2v5q40 9 59.5 32.5t50.5 105.5l226 601h10l210 -664q16 -49 24 -60t36 -15zM362 319l-88 284l-104 -283q31 -1 94 -1h98zM390 230l-19 60h-107q-70 0 -106 -1l-22 -59q34 -1 102 -1q101 0 152 1z" />
    <glyph glyph-name="atilde.alt" horiz-adv-x="438" 
d="M414 3v-5q-44 2 -55 2q-34 0 -54 -2q2 16 2 45v10q-65 -63 -149 -63q-61 0 -94.5 32t-33.5 78q0 54 44.5 90.5t116.5 36.5q69 0 116 -33v169q0 49 -21 74t-70 25q-45 0 -79.5 -33t-36.5 -93h-51q10 66 59.5 105t115.5 39q147 0 147 -130v-256q0 -56 9 -71t34 -20zM307 73
v103q-34 32 -96 32q-51 0 -80 -30.5t-29 -71.5q0 -36 24 -62t67 -26q66 0 114 55zM346 617h9q-5 -31 -27.5 -59t-61.5 -28q-25 0 -68 23t-69 23q-23 0 -33.5 -9.5t-19.5 -36.5h-10q6 36 29 59.5t55 23.5q25 0 69 -23t70 -23q42 0 57 50z" />
    <glyph glyph-name="Adieresis.alt" horiz-adv-x="582" 
d="M578 3v-5q-42 2 -87 2t-89 -2v5q44 3 44 35q0 12 -12 52l-34 109q-54 1 -162 1q-75 0 -113 -1l-31 -84q-17 -47 -17 -68q0 -39 46 -44v-5q-44 2 -93 2q-26 0 -68 -2v5q40 9 59.5 32.5t50.5 105.5l226 601h10l210 -664q16 -49 24 -60t36 -15zM362 319l-88 284l-104 -283
q31 -1 94 -1h98zM390 230l-19 60h-107q-70 0 -106 -1l-22 -59q34 -1 102 -1q101 0 152 1zM179 654h-2q-5 25 -14.5 35.5t-30.5 16.5v2q21 6 30.5 16.5t14.5 35.5h2q5 -25 14.5 -35.5t30.5 -16.5v-2q-21 -6 -30.5 -16.5t-14.5 -35.5zM423 654h-2q-5 25 -14.5 35.5t-30.5 16.5
v2q21 6 30.5 16.5t14.5 35.5h2q5 -25 14.5 -35.5t30.5 -16.5v-2q-21 -6 -30.5 -16.5t-14.5 -35.5z" />
    <glyph glyph-name="adieresis.alt" horiz-adv-x="438" 
d="M414 3v-5q-44 2 -55 2q-34 0 -54 -2q2 16 2 45v10q-65 -63 -149 -63q-61 0 -94.5 32t-33.5 78q0 54 44.5 90.5t116.5 36.5q69 0 116 -33v169q0 49 -21 74t-70 25q-45 0 -79.5 -33t-36.5 -93h-51q10 66 59.5 105t115.5 39q147 0 147 -130v-256q0 -56 9 -71t34 -20zM307 73
v103q-34 32 -96 32q-51 0 -80 -30.5t-29 -71.5q0 -36 24 -62t67 -26q66 0 114 55zM147 510h-2q-5 25 -14.5 35.5t-30.5 16.5v2q21 6 30.5 16.5t14.5 35.5h2q5 -25 14.5 -35.5t30.5 -16.5v-2q-21 -6 -30.5 -16.5t-14.5 -35.5zM276 510h-2q-5 25 -14.5 35.5t-30.5 16.5v2
q21 6 30.5 16.5t14.5 35.5h2q5 -25 14.5 -35.5t30.5 -16.5v-2q-21 -6 -30.5 -16.5t-14.5 -35.5z" />
    <glyph glyph-name="Aring.alt" horiz-adv-x="582" 
d="M386 845q0 -34 -24.5 -58.5t-59.5 -24.5q-34 0 -58.5 24t-24.5 59t24.5 59t59.5 24q34 0 58.5 -24.5t24.5 -58.5zM359 845q0 23 -16.5 39t-39.5 16t-39.5 -16t-16.5 -39t16.5 -39t38.5 -16q24 0 40.5 16t16.5 39zM578 3v-5q-42 2 -87 2t-89 -2v5q44 3 44 35q0 12 -12 52
l-34 109q-54 1 -162 1q-75 0 -113 -1l-31 -84q-17 -47 -17 -68q0 -39 46 -44v-5q-44 2 -93 2q-26 0 -68 -2v5q40 9 59.5 32.5t50.5 105.5l226 601h10l210 -664q16 -49 24 -60t36 -15zM362 319l-88 284l-104 -283q31 -1 94 -1h98zM390 230l-19 60h-107q-70 0 -106 -1l-22 -59
q34 -1 102 -1q101 0 152 1z" />
    </font>
</defs>
</svg>
